<?xml version="1.0" encoding="UTF-8" standalone="no"?>
<!-- Created with Inkscape (http://www.inkscape.org/) -->

<svg
   width="45.508331mm"
   height="1.57485mm"
   viewBox="0 0 45.508332 1.57485"
   version="1.1"
   id="svg5"
   xml:space="preserve"
   inkscape:version="1.2.2 (b0a8486541, 2022-12-01)"
   sodipodi:docname="lvt.svg"
   xmlns:inkscape="http://www.inkscape.org/namespaces/inkscape"
   xmlns:sodipodi="http://sodipodi.sourceforge.net/DTD/sodipodi-0.dtd"
   xmlns="http://www.w3.org/2000/svg"
   xmlns:svg="http://www.w3.org/2000/svg"><sodipodi:namedview
     id="namedview7"
     pagecolor="#ffffff"
     bordercolor="#000000"
     borderopacity="0.25"
     inkscape:showpageshadow="2"
     inkscape:pageopacity="0.0"
     inkscape:pagecheckerboard="0"
     inkscape:deskcolor="#d1d1d1"
     inkscape:document-units="mm"
     showgrid="false"
     inkscape:zoom="2.8699528"
     inkscape:cx="154.8806"
     inkscape:cy="-13.414855"
     inkscape:window-width="2510"
     inkscape:window-height="1363"
     inkscape:window-x="0"
     inkscape:window-y="0"
     inkscape:window-maximized="1"
     inkscape:current-layer="layer1" /><defs
     id="defs2" /><g
     inkscape:label="Layer 1"
     inkscape:groupmode="layer"
     id="layer1"
     transform="translate(-37.203848,-140.52894)"><path
       style="fill:#000000;stroke-width:0.372683"
       d="m 40.378848,140.52894 h 3.175 v 0.78743 0.78742 h -3.175 -3.175 v -0.78742 -0.78743 z m 6.35,0 h 1.05833 v 0.78743 0.78742 h -1.05833 -1.05833 v -0.78742 -0.78743 z m 6.35,0 h 3.175 v 0.78743 0.78742 h -3.175 -3.175 v -0.78742 -0.78743 z m 6.87917,0 h 1.85208 v 0.78743 0.78742 h -1.85208 -1.85209 v -0.78742 -0.78743 z m 6.87916,0 h 3.175 v 0.78743 0.78742 h -3.175 -3.175 v -0.78742 -0.78743 z m 6.35,0 h 1.05834 v 0.78743 0.78742 h -1.05834 -1.05833 v -0.78742 -0.78743 z m 6.35,0 h 3.175 v 0.78743 0.78742 h -3.175 -3.175 v -0.78742 -0.78743 z"
       id="path304" /></g></svg>
