<?xml version="1.0" encoding="UTF-8" standalone="no"?>
<!-- Created with Inkscape (http://www.inkscape.org/) -->

<svg
   width="46.302082mm"
   height="46.302734mm"
   viewBox="0 0 46.302082 46.302734"
   version="1.1"
   id="svg5"
   inkscape:version="1.2.2 (b0a8486541, 2022-12-01)"
   sodipodi:docname="control-arrival-selective-section.svg"
   xmlns:inkscape="http://www.inkscape.org/namespaces/inkscape"
   xmlns:sodipodi="http://sodipodi.sourceforge.net/DTD/sodipodi-0.dtd"
   xmlns="http://www.w3.org/2000/svg"
   xmlns:svg="http://www.w3.org/2000/svg"
   xmlns:rdf="http://www.w3.org/1999/02/22-rdf-syntax-ns#"
   xmlns:cc="http://creativecommons.org/ns#"
   xmlns:dc="http://purl.org/dc/elements/1.1/">
  <sodipodi:namedview
     id="namedview7"
     pagecolor="#ffffff"
     bordercolor="#000000"
     borderopacity="0.25"
     inkscape:showpageshadow="2"
     inkscape:pageopacity="0.0"
     inkscape:pagecheckerboard="0"
     inkscape:deskcolor="#d1d1d1"
     inkscape:document-units="mm"
     showgrid="false"
     inkscape:zoom="6.5085717"
     inkscape:cx="87.730462"
     inkscape:cy="87.807283"
     inkscape:window-width="2510"
     inkscape:window-height="1363"
     inkscape:window-x="0"
     inkscape:window-y="0"
     inkscape:window-maximized="1"
     inkscape:current-layer="layer1" />
  <defs
     id="defs2">
    <mask
       maskUnits="userSpaceOnUse"
       x="0"
       y="0"
       width="1"
       height="1"
       id="mask4710">
      <g
         id="g4720">
        <g
           clip-path="url(#clipPath4708)"
           id="g4718">
          <g
             id="g4716">
            <g
               transform="matrix(1,0,0,-1,0,623.622)"
               id="g4714">
              <path
                 d="m 145.525,514.129 h 14.173 v 14.17407 h -14.173 z"
                 style="fill:#ffffff;fill-opacity:1;fill-rule:nonzero;stroke:none"
                 id="path4712" />
            </g>
          </g>
        </g>
      </g>
    </mask>
    <clipPath
       clipPathUnits="userSpaceOnUse"
       id="clipPath4708">
      <path
         d="M 6.441045,-1657.6683 H 455.41452 V 13308.114 H 6.441045 Z"
         id="path4706" />
    </clipPath>
    <clipPath
       clipPathUnits="userSpaceOnUse"
       id="clipPath4728">
      <path
         d="M 6.441045,-1657.6683 H 455.41452 V 13308.114 H 6.441045 Z"
         id="path4726" />
    </clipPath>
    <mask
       maskUnits="userSpaceOnUse"
       x="0"
       y="0"
       width="1"
       height="1"
       id="mask8812">
      <g
         id="g8822">
        <g
           clip-path="url(#clipPath8810)"
           id="g8820">
          <g
             id="g8818">
            <g
               transform="matrix(1,0,0,-1,0,623.622)"
               id="g8816">
              <path
                 d="m 137.438,324.308 h 14.17301 v 14.17303 H 137.438 Z"
                 style="fill:#ffffff;fill-opacity:1;fill-rule:nonzero;stroke:none"
                 id="path8814" />
            </g>
          </g>
        </g>
      </g>
    </mask>
    <clipPath
       clipPathUnits="userSpaceOnUse"
       id="clipPath8810">
      <path
         d="M 6.441045,-1657.6683 H 455.41452 V 13308.114 H 6.441045 Z"
         id="path8808" />
    </clipPath>
    <clipPath
       clipPathUnits="userSpaceOnUse"
       id="clipPath8830">
      <path
         d="M 6.441045,-1657.6683 H 455.41452 V 13308.114 H 6.441045 Z"
         id="path8828" />
    </clipPath>
    <mask
       maskUnits="userSpaceOnUse"
       x="0"
       y="0"
       width="1"
       height="1"
       id="mask8836">
      <g
         id="g8846">
        <g
           clip-path="url(#clipPath8834)"
           id="g8844">
          <g
             id="g8842">
            <g
               transform="matrix(1,0,0,-1,0,623.622)"
               id="g8840">
              <path
                 d="M -32768,-32768 H 32767 V 32767 H -32768 Z"
                 style="fill:#ffffff;fill-opacity:1;fill-rule:nonzero;stroke:none"
                 id="path8838" />
            </g>
          </g>
        </g>
      </g>
    </mask>
    <clipPath
       clipPathUnits="userSpaceOnUse"
       id="clipPath8834">
      <path
         d="M 6.441045,-1657.6683 H 455.41452 V 13308.114 H 6.441045 Z"
         id="path8832" />
    </clipPath>
    <clipPath
       clipPathUnits="userSpaceOnUse"
       id="clipPath8850">
      <path
         d="M 6.441045,-1657.6683 H 455.41452 V 13308.114 H 6.441045 Z"
         id="path8848" />
    </clipPath>
    <mask
       maskUnits="userSpaceOnUse"
       x="0"
       y="0"
       width="1"
       height="1"
       id="mask9702">
      <g
         id="g9712">
        <g
           clip-path="url(#clipPath9700)"
           id="g9710">
          <g
             id="g9708">
            <g
               transform="matrix(1,0,0,-1,0,623.622)"
               id="g9706">
              <path
                 d="m 137.438,303.216 h 14.17301 v 14.173 H 137.438 Z"
                 style="fill:#ffffff;fill-opacity:1;fill-rule:nonzero;stroke:none"
                 id="path9704" />
            </g>
          </g>
        </g>
      </g>
    </mask>
    <clipPath
       clipPathUnits="userSpaceOnUse"
       id="clipPath9700">
      <path
         d="M 6.441045,-1657.6683 H 455.41452 V 13308.114 H 6.441045 Z"
         id="path9698" />
    </clipPath>
    <clipPath
       clipPathUnits="userSpaceOnUse"
       id="clipPath9720">
      <path
         d="M 6.441045,-1657.6683 H 455.41452 V 13308.114 H 6.441045 Z"
         id="path9718" />
    </clipPath>
    <mask
       maskUnits="userSpaceOnUse"
       x="0"
       y="0"
       width="1"
       height="1"
       id="mask9726">
      <g
         id="g9736">
        <g
           clip-path="url(#clipPath9724)"
           id="g9734">
          <g
             id="g9732">
            <g
               transform="matrix(1,0,0,-1,0,623.622)"
               id="g9730">
              <path
                 d="M -32768,-32768 H 32767 V 32767 H -32768 Z"
                 style="fill:#ffffff;fill-opacity:1;fill-rule:nonzero;stroke:none"
                 id="path9728" />
            </g>
          </g>
        </g>
      </g>
    </mask>
    <clipPath
       clipPathUnits="userSpaceOnUse"
       id="clipPath9724">
      <path
         d="M 6.441045,-1657.6683 H 455.41452 V 13308.114 H 6.441045 Z"
         id="path9722" />
    </clipPath>
    <clipPath
       clipPathUnits="userSpaceOnUse"
       id="clipPath9740">
      <path
         d="M 6.441045,-1657.6683 H 455.41452 V 13308.114 H 6.441045 Z"
         id="path9738" />
    </clipPath>
  </defs>
  <g
     inkscape:label="Layer 1"
     inkscape:groupmode="layer"
     id="layer1"
     transform="translate(-15.103827,-22.093088)">
    <ellipse
       style="fill:#ff0000;fill-opacity:1;stroke:#000000;stroke-width:3.26728;stroke-dasharray:none"
       id="path17628"
       cx="38.254871"
       cy="45.244129"
       rx="21.517403"
       ry="21.517401" />
    <g
       id="g116482"
       transform="matrix(0.39621324,-0.16417203,0.16417203,0.39621324,62.072541,12.065134)">
      <path
         style="opacity:1;fill:#000000;stroke:none;stroke-width:0.529167;stroke-dasharray:none"
         d="m -72.010881,23.96194 c -5.515634,0.03971 -10.656208,1.040318 -15.644523,2.106331 -8.243772,1.761712 -16.077036,3.707846 -24.410916,1.715658 v 34.033065 c 8.24129,2.007043 16.005787,0.08359 24.301879,-1.689303 4.701024,-1.004618 9.571567,-1.958237 14.777392,-2.099613 0.325364,-0.0089 0.651757,-0.01475 0.979785,-0.01705 4.146317,-0.02914 8.50992,0.48214 13.170256,1.899109 V 25.88637 c -4.665988,-1.437792 -9.026517,-1.954289 -13.173873,-1.92443 z"
         id="path111230" />
      <rect
         style="opacity:1;fill:#000000;stroke:none;stroke-width:0.60879;stroke-dasharray:none"
         id="rect114299"
         width="3.1964247"
         height="56.149963"
         x="-59.711246"
         y="25.803446" />
      <path
         id="path111340"
         style="opacity:1;fill:#ffffff;stroke:none;stroke-width:0.5;stroke-dasharray:none"
         d="m -69.308075,25.082053 v 9.937895 c 3.065851,0.160453 6.2529,0.646072 9.59683,1.602486 v -9.937895 c -3.343926,-0.956413 -6.530983,-1.442031 -9.59683,-1.602486 z m -11.345044,0.703316 c -2.380478,0.375504 -4.707785,0.850691 -7.002156,1.341004 -0.869888,0.185895 -1.732858,0.373462 -2.594674,0.558622 v 9.937894 c 0.861816,-0.185159 1.724786,-0.372725 2.594674,-0.558622 2.294371,-0.490311 4.621678,-0.964983 7.002156,-1.340486 z m -30.538701,3.250448 v 9.938411 c 3.25263,0.674502 6.4333,0.765619 9.59683,0.522966 v -9.937895 c -3.16353,0.242654 -6.3442,0.15102 -9.59683,-0.523482 z m 39.635304,6.979935 c -0.151779,-5.56e-4 -0.303073,-5.83e-4 -0.454236,5.17e-4 -2.668886,0.01921 -5.249501,0.264794 -7.768002,0.63252 v 9.937894 c 2.518501,-0.367724 5.099116,-0.612792 7.768002,-0.632002 0.604651,-0.0044 1.214312,0.0042 1.828312,0.02429 v -9.937895 c -0.4605,-0.01501 -0.918741,-0.02365 -1.374076,-0.02532 z m -19.567798,2.851506 c -3.223857,0.685296 -6.404271,1.308678 -9.596316,1.613855 v 9.937895 c 3.192045,-0.305177 6.372459,-0.928558 9.596316,-1.613855 z m 21.816239,8.207251 v 9.938411 c 3.065847,0.160456 6.252904,0.646073 9.59683,1.602487 v -9.937895 c -3.34393,-0.956415 -6.530979,-1.442549 -9.59683,-1.603003 z m -11.345044,0.703833 c -2.380478,0.375504 -4.707785,0.850692 -7.002156,1.341003 -0.869883,0.185896 -1.732863,0.372947 -2.594674,0.558106 v 9.937894 c 0.861811,-0.185158 1.724791,-0.372209 2.594674,-0.558105 2.294371,-0.490311 4.621678,-0.9655 7.002156,-1.341003 z m -30.538701,3.250447 v 9.937895 c 3.25263,0.674503 6.4333,0.766135 9.59683,0.523482 v -9.937894 c -3.16352,0.242652 -6.34421,0.151018 -9.59683,-0.523483 z" />
    </g>
  </g>
  <metadata
     id="metadata125511">
    <rdf:RDF>
      <cc:Work
         rdf:about="">
        <dc:creator>
          <cc:Agent>
            <dc:title>Ilias Daradimos</dc:title>
          </cc:Agent>
        </dc:creator>
        <cc:license
           rdf:resource="http://creativecommons.org/licenses/by-nc-sa/4.0/" />
      </cc:Work>
      <cc:License
         rdf:about="http://creativecommons.org/licenses/by-nc-sa/4.0/">
        <cc:permits
           rdf:resource="http://creativecommons.org/ns#Reproduction" />
        <cc:permits
           rdf:resource="http://creativecommons.org/ns#Distribution" />
        <cc:requires
           rdf:resource="http://creativecommons.org/ns#Notice" />
        <cc:requires
           rdf:resource="http://creativecommons.org/ns#Attribution" />
        <cc:prohibits
           rdf:resource="http://creativecommons.org/ns#CommercialUse" />
        <cc:permits
           rdf:resource="http://creativecommons.org/ns#DerivativeWorks" />
        <cc:requires
           rdf:resource="http://creativecommons.org/ns#ShareAlike" />
      </cc:License>
    </rdf:RDF>
  </metadata>
</svg>
