<?xml version="1.0" encoding="UTF-8" standalone="no"?>
<!-- Generator: Adobe Illustrator 19.0.0, SVG Export Plug-In . SVG Version: 6.00 Build 0)  -->

<svg
   version="1.1"
   id="Layer_1"
   x="0px"
   y="0px"
   viewBox="0 0 250 250"
   style="enable-background:new 0 0 250 250;"
   xml:space="preserve"
   sodipodi:docname="dip.svg"
   inkscape:version="1.2.2 (b0a8486541, 2022-12-01)"
   xmlns:inkscape="http://www.inkscape.org/namespaces/inkscape"
   xmlns:sodipodi="http://sodipodi.sourceforge.net/DTD/sodipodi-0.dtd"
   xmlns="http://www.w3.org/2000/svg"
   xmlns:svg="http://www.w3.org/2000/svg"><defs
   id="defs1338" /><sodipodi:namedview
   id="namedview1336"
   pagecolor="#ffffff"
   bordercolor="#000000"
   borderopacity="0.25"
   inkscape:showpageshadow="2"
   inkscape:pageopacity="0.0"
   inkscape:pagecheckerboard="0"
   inkscape:deskcolor="#d1d1d1"
   showgrid="false"
   inkscape:zoom="4.556"
   inkscape:cx="124.89025"
   inkscape:cy="125"
   inkscape:window-width="2510"
   inkscape:window-height="1363"
   inkscape:window-x="0"
   inkscape:window-y="0"
   inkscape:window-maximized="1"
   inkscape:current-layer="Layer_1" />
<path
   id="XMLID_1_"
   d="M124.4,145.7c-33.7,0-43-18.9-45.6-28.7H17.9c-3.3,0-5.9-2.7-5.9-5.9s2.7-5.9,5.9-5.9h71.7l0.1,5.8  c0.1,2.3,1.8,22.9,34.7,22.9c12.5,0,21.7-2.9,27.3-8.8c6-6.2,5.9-13.8,5.9-13.8l-0.2-6.2h74.5c3.3,0,5.9,2.7,5.9,5.9  s-2.7,5.9-5.9,5.9h-63.1c-0.9,4.5-3.2,10.8-8.6,16.3C152.3,141.5,140.3,145.7,124.4,145.7z"
   style="fill:#ff0000;stroke:#000000" />
</svg>
