<?xml version="1.0" encoding="UTF-8" standalone="no"?>
<!-- Generator: Adobe Illustrator 19.0.0, SVG Export Plug-In . SVG Version: 6.00 Build 0)  -->

<svg
   version="1.1"
   id="Layer_1"
   x="0px"
   y="0px"
   viewBox="0 0 250 250"
   style="enable-background:new 0 0 250 250;"
   xml:space="preserve"
   sodipodi:docname="animal-deer.svg"
   inkscape:version="1.2.2 (b0a8486541, 2022-12-01)"
   xmlns:inkscape="http://www.inkscape.org/namespaces/inkscape"
   xmlns:sodipodi="http://sodipodi.sourceforge.net/DTD/sodipodi-0.dtd"
   xmlns="http://www.w3.org/2000/svg"
   xmlns:svg="http://www.w3.org/2000/svg"><defs
   id="defs13" /><sodipodi:namedview
   id="namedview11"
   pagecolor="#ffffff"
   bordercolor="#000000"
   borderopacity="0.25"
   inkscape:showpageshadow="2"
   inkscape:pageopacity="0.0"
   inkscape:pagecheckerboard="0"
   inkscape:deskcolor="#d1d1d1"
   showgrid="false"
   inkscape:zoom="1.6107892"
   inkscape:cx="21.418072"
   inkscape:cy="171.65498"
   inkscape:window-width="2510"
   inkscape:window-height="1363"
   inkscape:window-x="0"
   inkscape:window-y="0"
   inkscape:window-maximized="1"
   inkscape:current-layer="g1755" />

<g
   id="g1755"
   transform="translate(5.1964457,-7.5081918)"><path
     style="fill:#000000;stroke-width:0.4445"
     d="m 161.70549,221.82128 c -7.90329,-1.05088 -8.90259,-1.26425 -9.54474,-2.03799 -0.79459,-0.95744 0.16081,-3.89232 1.64787,-5.06204 1.40029,-1.10147 2.85341,-1.1398 7.26568,-0.19165 l 3.35614,0.72119 3.32153,-1.32014 c 2.46754,-0.98074 4.69279,-1.45697 8.655,-1.85229 11.21202,-1.11866 16.22479,-3.13853 16.22479,-6.53769 0,-1.57879 -1.04383,-2.00248 -6.53682,-2.65327 -7.18081,-0.85075 -17.6946,-3.39186 -22.06564,-5.33313 -6.5331,-2.90147 -8.22748,-3.28658 -15.32986,-3.48428 -8.27203,-0.23026 -11.07741,-0.85796 -21.80457,-4.87878 -12.98297,-4.86636 -18.03019,-6.21623 -22.94094,-6.13551 -6.030978,0.0991 -10.014661,0.84492 -17.113266,3.20376 -13.456796,4.47164 -17.187985,4.5928 -27.922612,0.9067 -3.604293,-1.23766 -7.047229,-2.24833 -7.650967,-2.24594 -0.603738,0.002 -2.197841,0.52371 -3.542455,1.15849 -1.344613,0.63479 -3.53176,1.53486 -4.860327,2.00017 -3.022441,1.05855 -6.819381,3.13795 -13.076764,7.16151 -4.591435,2.95234 -5.077123,3.15763 -8.250407,3.48725 -1.854478,0.19264 -4.197657,0.64682 -5.207068,1.00929 -2.450295,0.87988 -6.250614,1.26763 -8.1613388,0.83272 -3.3514173,-0.76284 -2.5394307,-4.78846 1.5211959,-7.54164 1.7900919,-1.21373 2.5376129,-1.44463 4.6767749,-1.44463 3.034396,0 5.81595,-0.77395 8.243665,-2.29374 0.9779,-0.61218 3.222481,-1.67605 4.987956,-2.36416 5.076848,-1.97875 9.343696,-5.70767 14.711032,-12.8564 2.485557,-3.31049 5.020485,-6.34754 5.63318,-6.74899 1.237373,-0.81076 3.754797,-0.6251 6.987053,0.51531 2.153351,0.75975 5.773126,0.78419 7.885588,0.0532 1.281263,-0.44334 2.139722,-1.47395 5.222879,-6.27025 2.029282,-3.15683 3.689602,-6.10905 3.689602,-6.56048 0,-0.50878 -0.864611,-1.35279 -2.274477,-2.22029 -2.21703,-1.36415 -3.887805,-3.83471 -3.269687,-4.83485 0.144445,-0.23372 1.705023,-0.42494 3.467956,-0.42494 3.764812,0 8.556935,-1.22215 12.401165,-3.16271 1.4842,-0.74922 4.966768,-2.14434 7.739041,-3.10026 6.046494,-2.08492 7.783859,-2.15865 16.178851,-0.68664 4.68532,0.82154 7.16096,1.54179 11.3243,3.29461 2.93048,1.23378 7.42841,3.12558 9.9954,4.20403 8.61537,3.61947 14.90461,4.67867 23.33627,3.93013 9.77138,-0.86748 15.62573,-2.87339 20.08355,-6.88135 2.70774,-2.4345 4.12529,-5.0239 5.86339,-10.71057 1.91408,-6.26238 2.56102,-9.56754 3.61071,-18.44676 1.12459,-9.51279 1.39245,-10.57576 3.59109,-14.25073 0.9595,-1.60379 1.74455,-3.366767 1.74455,-3.917734 0,-1.293074 -1.68073,-2.830254 -5.55211,-5.077901 -2.82688,-1.641234 -3.4904,-1.833738 -7.35124,-2.132802 -6.78688,-0.525715 -12.05062,-2.205678 -21.15033,-6.750285 -2.66206,-1.329492 -5.59529,-2.662451 -6.51828,-2.96212 -2.06007,-0.668853 -4.32604,-2.512206 -4.3127,-3.508354 0.005,-0.4061 0.40104,-1.238427 0.87911,-1.849615 1.61493,-2.064566 0.85722,-6.085228 -1.41411,-7.503691 -0.47632,-0.297473 -2.75406,-1.01979 -5.06163,-1.605157 -6.00808,-1.524077 -9.07157,-3.28076 -13.53341,-7.760416 -6.30171,-6.326877 -10.21602,-12.201916 -8.96389,-13.45404 0.95524,-0.955247 2.78011,0.202099 5.93743,3.765568 4.82926,5.450499 8.49226,9.035027 9.50289,9.299312 1.64798,0.430957 2.86472,-0.36025 2.86472,-1.862843 0,-1.71404 -0.75209,-3.212461 -4.04879,-8.06661 -1.4387,-2.118385 -2.66648,-4.310463 -2.72839,-4.871285 -0.20618,-1.867457 1.27118,-1.443588 4.13052,1.185092 2.46741,2.268357 2.8785,2.488488 4.13775,2.215661 3.04111,-0.658883 4.73191,-0.783418 4.73191,-0.348528 0,0.245928 -0.30004,1.297539 -0.66675,2.336914 -0.84097,2.383566 -0.85244,5.019066 -0.0288,6.611859 0.88366,1.708802 3.68425,4.150259 6.04886,5.273187 2.36313,1.122223 8.25645,1.891484 14.50395,1.893214 6.01468,0.0016 6.68806,-0.515439 8.57745,-6.586806 1.61609,-5.193154 3.07184,-7.728489 4.96366,-8.644723 2.88508,-1.397285 3.65781,0.43937 2.22864,5.297099 -0.52581,1.787188 -0.95602,3.961707 -0.95602,4.832264 0,1.754199 1.23608,4.50305 2.50858,5.578682 1.626,1.374449 12.6114,7.081242 13.63117,7.081242 1.49365,0 2.7717,-1.579789 4.07132,-5.032571 1.20575,-3.203395 2.07639,-4.795539 3.507,-6.413313 1.04931,-1.186592 1.33081,-1.224271 2.25346,-0.301625 0.874,0.874008 0.88349,2.882726 0.0269,5.706274 -1.14311,3.768145 -0.90941,5.348122 1.11606,7.5455 1.55339,1.68523 1.77801,2.195285 1.77801,4.03754 0,2.357834 1.04918,6.824736 2.08685,8.884751 1.06154,2.107403 2.79051,3.738346 5.6919,5.369195 1.46685,0.824504 4.06718,2.777163 5.77851,4.339244 4.12088,3.7615 8.27556,6.556881 13.3186,8.961151 4.05605,1.93371 6.01716,3.60408 6.01716,5.1251 0,1.33718 -1.94717,3.71319 -4.16842,5.08649 -2.108,1.30328 -2.30067,1.33497 -9.54838,1.57088 -4.06833,0.13243 -7.697,0.43865 -8.06372,0.6805 -0.36671,0.24185 -2.4573,1.04137 -4.64575,1.7767 -5.94363,1.99711 -5.82266,1.6668 -5.64855,15.4241 0.19327,15.27027 -0.83944,21.35327 -4.58876,27.02916 -1.0497,1.58909 -2.99664,4.58947 -4.32653,6.66751 -2.97241,4.64457 -5.93842,7.91468 -10.07912,11.11251 -4.62464,3.57156 -4.72961,5.63273 -0.39851,7.82544 1.29275,0.65449 3.75581,2.13774 5.47348,3.29611 1.71766,1.15837 5.41349,3.25484 8.21294,4.65882 6.2997,3.15941 7.70123,4.21371 8.90375,6.69778 0.92648,1.91385 0.93074,2.0145 0.18184,4.29818 -1.0098,3.0793 -3.33719,6.55839 -5.65876,8.459 -2.1988,1.8001 -6.78597,4.3252 -7.85728,4.3252 -1.23637,0 -7.53819,2.01494 -11.65873,3.72775 -3.55413,1.47736 -4.19619,1.60207 -8.00101,1.5541 -2.27524,-0.0287 -6.75219,-0.39992 -9.94879,-0.82497 z M 176.62975,86.011931 c 1.34461,-0.54718 4.03445,-1.225155 5.97742,-1.506612 5.77197,-0.836128 8.05356,-2.854391 6.75101,-5.971838 -1.20506,-2.884123 -8.90372,-7.603779 -16.20475,-9.934308 -4.20157,-1.34116 -5.64064,-1.568437 -12.5257,-1.978231 -12.80329,-0.762038 -15.11301,-0.308848 -15.11301,2.96532 0,3.917608 8.5815,12.650025 12.4314,12.650025 0.9873,0 2.03793,-1.220358 2.41487,-2.80498 l 0.29716,-1.249235 1.56897,0.96968 c 1.22836,0.759171 2.02116,0.921427 3.65192,0.747427 1.14562,-0.122237 2.483,-0.386337 2.97195,-0.586883 0.7431,-0.304785 0.68838,-0.125638 -0.33337,1.091538 -2.33379,2.780136 -1.40096,5.941832 1.98204,6.717841 1.76522,0.404917 2.92312,0.1953 6.13009,-1.109744 z"
     id="path5273" /></g></svg>
