<?xml version="1.0" encoding="UTF-8" standalone="no"?>
<!-- Generator: Adobe Illustrator 19.0.0, SVG Export Plug-In . SVG Version: 6.00 Build 0)  -->

<svg
   version="1.1"
   id="Layer_1"
   x="0px"
   y="0px"
   viewBox="0 0 250 250"
   style="enable-background:new 0 0 250 250;"
   xml:space="preserve"
   sodipodi:docname="animal-camel.svg"
   inkscape:version="1.2.2 (b0a8486541, 2022-12-01)"
   xmlns:inkscape="http://www.inkscape.org/namespaces/inkscape"
   xmlns:sodipodi="http://sodipodi.sourceforge.net/DTD/sodipodi-0.dtd"
   xmlns="http://www.w3.org/2000/svg"
   xmlns:svg="http://www.w3.org/2000/svg"><defs
   id="defs13" /><sodipodi:namedview
   id="namedview11"
   pagecolor="#ffffff"
   bordercolor="#000000"
   borderopacity="0.25"
   inkscape:showpageshadow="2"
   inkscape:pageopacity="0.0"
   inkscape:pagecheckerboard="0"
   inkscape:deskcolor="#d1d1d1"
   showgrid="false"
   inkscape:zoom="1.6107892"
   inkscape:cx="21.418072"
   inkscape:cy="171.65498"
   inkscape:window-width="2510"
   inkscape:window-height="1363"
   inkscape:window-x="0"
   inkscape:window-y="0"
   inkscape:window-maximized="1"
   inkscape:current-layer="g1755" />

<g
   id="g1755"
   transform="translate(5.1964457,-7.5081918)"><path
     style="fill:#000000;stroke-width:0.436189"
     d="m 14.834785,212.5213 c -0.59518,-0.59518 -0.68544,-2.56375 -0.68544,-14.94946 0,-13.7201 -0.04096,-14.42549 -1.074171,-18.49852 -2.209038,-8.7083 -1.890825,-15.62307 1.058782,-23.00728 2.107122,-5.27507 2.417453,-7.11767 1.592367,-9.4547 -1.846831,-5.23111 -3.743566,-18.26918 -3.75325,-25.79966 -0.01217,-9.46274 7.503259,-21.158175 19.40572,-30.198981 3.117479,-2.367954 6.880102,-7.161178 9.396413,-11.970126 2.276508,-4.350663 4.542987,-7.407193 7.988897,-10.773675 5.668593,-5.537937 12.140466,-9.611396 19.185618,-12.075614 4.130475,-1.444736 4.785573,-1.549539 9.665058,-1.546215 4.121585,0.0028 5.974365,0.214127 8.715854,0.99409 6.068923,1.726627 13.105142,5.46417 17.421727,9.254178 3.88882,3.414432 10.36587,6.166429 16.24924,6.904058 3.89624,0.488497 6.19186,1.703208 11.79702,6.242325 2.34599,1.899807 6.32642,5.126211 8.84541,7.169798 7.32809,5.945066 11.88545,8.389288 15.70279,8.421793 4.96474,0.04227 7.84073,-2.042147 8.71414,-6.315709 1.55617,-7.614383 3.85674,-12.89855 8.62276,-19.805596 2.31658,-3.357252 2.74704,-4.241131 2.33669,-4.798074 -1.20406,-1.634194 -2.31459,-4.637443 -2.54681,-6.88744 -0.21075,-2.042016 -0.12191,-2.526005 0.55445,-3.020576 1.13632,-0.830896 12.0819,-0.78311 16.11087,0.07034 3.25539,0.689579 8.71595,3.084518 10.99329,4.821527 1.27767,0.974528 1.78255,1.062028 6.12793,1.062028 2.85864,0 5.75859,0.266474 7.31679,0.672335 2.9646,0.77218 9.4729,4.083981 11.80747,6.008336 l 1.58713,1.308247 -0.15441,4.838357 c -0.1328,4.161422 -0.29087,5.02976 -1.12974,6.206361 -1.57735,2.212401 -3.66312,2.77579 -10.27641,2.77579 -4.40744,0 -6.00252,0.153997 -6.70716,0.647544 -1.62993,1.14165 -8.54741,3.209044 -11.7764,3.519562 l -3.12873,0.30087 -0.30077,2.236945 c -2.33769,17.386202 -12.74911,30.030482 -29.42732,35.738382 -3.4299,1.17383 -11.34649,2.92031 -13.23748,2.92031 -0.60789,0 -1.2033,0.15863 -1.32313,0.35253 -0.11983,0.19389 -0.86077,4.65937 -1.64652,9.92329 -1.37555,9.21512 -1.42839,10.0651 -1.42199,22.8745 0.009,18.9404 1.51653,29.51456 5.38221,37.7637 1.40481,2.99778 2.06588,3.88221 3.87124,5.17923 2.73032,1.96155 3.5776,3.69657 3.5776,7.32612 0,4.28561 0.0689,4.25587 -9.84859,4.24785 -4.53928,-0.003 -8.50218,-0.16469 -8.80644,-0.35781 -0.75531,-0.47941 -1.14459,-1.97469 -3.14149,-12.06689 -3.3526,-16.94381 -5.66988,-32.54504 -6.3878,-43.0063 l -0.28724,-4.18552 -2.96222,-2.68494 -2.96223,-2.68493 -0.35858,2.50856 c -0.19723,1.37973 -0.28738,12.71539 -0.20034,25.19038 l 0.15825,22.68181 2.29539,2.05825 c 2.90637,2.60613 4.14903,5.1687 4.14903,8.55601 0,3.99244 -0.014,3.99805 -9.92648,3.99805 -6.99217,0 -8.44129,-0.11016 -9.01657,-0.68544 -0.60028,-0.60028 -0.68544,-2.8535 -0.68544,-18.13673 v -17.4513 l -1.31613,-3.72888 c -3.30254,-9.3568 -3.38694,-18.3922 -0.23609,-25.27455 l 1.09499,-2.39176 -1.07995,-3.72667 c -0.59397,-2.04968 -1.07995,-4.18705 -1.07995,-4.74973 0,-1.01772 -0.0132,-1.01521 -2.52824,0.483 -6.4785,3.85922 -14.12429,5.60548 -24.515453,5.59921 -8.545352,-0.005 -12.657385,-0.80586 -19.667223,-3.82963 -0.529149,-0.22826 -1.162791,0.50505 -2.679711,3.10121 -1.092679,1.87008 -3.077712,4.59829 -4.411188,6.06267 l -2.424498,2.66253 1.28793,10.20502 c 2.150614,17.04068 4.800238,31.87489 6.477897,36.26731 0.251982,0.65974 0.73507,1.19953 1.073526,1.19953 1.133004,0 5.889911,3.51171 7.235613,5.3416 1.168427,1.5888 1.330563,2.16264 1.330563,4.70905 0,4.44184 0.249238,4.34356 -11.01695,4.34356 -10.589694,0 -10.499512,0.0258 -11.01459,-3.15372 -0.697594,-4.30619 -3.736673,-18.92358 -5.019547,-24.14303 -3.028597,-12.32207 -5.101308,-17.98732 -8.635818,-23.60393 -0.935149,-1.48601 -2.151661,-4.10568 -2.70337,-5.82149 -1.144546,-3.55956 -1.276881,-3.47901 -2.549335,1.55164 -1.791688,7.08343 -2.333648,12.27484 -2.54926,24.41925 l -0.209092,11.77708 1.938619,2.06397 c 1.066236,1.13517 2.556174,3.3184 3.310967,4.85159 1.229908,2.49831 1.37235,3.19385 1.37235,6.70126 0,5.56224 0.379571,5.35738 -9.926478,5.35738 -6.992168,0 -8.441291,-0.11016 -9.016567,-0.68544 z"
     id="path5238" /></g></svg>
