<?xml version="1.0" encoding="UTF-8" standalone="no"?>
<!-- Generator: Adobe Illustrator 19.0.0, SVG Export Plug-In . SVG Version: 6.00 Build 0)  -->

<svg
   version="1.1"
   id="Layer_1"
   x="0px"
   y="0px"
   viewBox="0 0 250 250"
   style="enable-background:new 0 0 250 250;"
   xml:space="preserve"
   sodipodi:docname="animal-cow.svg"
   inkscape:version="1.2.2 (b0a8486541, 2022-12-01)"
   xmlns:inkscape="http://www.inkscape.org/namespaces/inkscape"
   xmlns:sodipodi="http://sodipodi.sourceforge.net/DTD/sodipodi-0.dtd"
   xmlns="http://www.w3.org/2000/svg"
   xmlns:svg="http://www.w3.org/2000/svg"><defs
   id="defs13" /><sodipodi:namedview
   id="namedview11"
   pagecolor="#ffffff"
   bordercolor="#000000"
   borderopacity="0.25"
   inkscape:showpageshadow="2"
   inkscape:pageopacity="0.0"
   inkscape:pagecheckerboard="0"
   inkscape:deskcolor="#d1d1d1"
   showgrid="false"
   inkscape:zoom="1.6107892"
   inkscape:cx="21.418072"
   inkscape:cy="171.65498"
   inkscape:window-width="2510"
   inkscape:window-height="1363"
   inkscape:window-x="0"
   inkscape:window-y="0"
   inkscape:window-maximized="1"
   inkscape:current-layer="g1755" />

<g
   id="g1755"
   transform="translate(5.1964457,-7.5081918)"><path
     style="fill:#000000;stroke-width:0.443011"
     d="m 19.477519,208.08128 c -1.334685,-1.33469 -1.507047,-1.77618 -1.513343,-3.87635 -0.004,-1.30356 -0.679817,-11.6401 -1.502023,-22.9701 l -1.494922,-20.6 1.631516,-10.18924 1.631515,-10.18925 -2.388014,-11.96128 c -1.313407,-6.57871 -2.468127,-12.04436 -2.566046,-12.14588 -0.58399,-0.60548 -0.492836,1.05893 0.440552,8.04424 l 1.04286,7.80457 -1.285315,5.67057 c -1.095282,4.8322 -1.496464,5.90043 -2.713516,7.22536 -0.7855157,0.85514 -1.4687622,1.63078 -1.5183307,1.72364 -0.049568,0.0929 -0.5672707,0.0491 -1.1504542,-0.0973 -1.0328794,-0.25924 -1.0680545,-0.41995 -1.35851,-6.20755 -0.2464823,-4.91141 -0.1392914,-6.92888 0.6183233,-11.63759 0.5040708,-3.13291 1.1070348,-9.1849 1.3399122,-13.44888 0.2823972,-5.17063 0.9153575,-10.50937 1.9004854,-16.029694 l 1.477064,-8.277014 3.061757,-3.86401 c 2.973014,-3.752012 3.179705,-3.914557 7.130961,-5.60793 l 4.069208,-1.743916 37.7953,1.101107 37.795311,1.101112 37.6559,-3.997343 c 20.71075,-2.198533 37.69482,-4.026984 37.74238,-4.063218 0.0476,-0.03624 0.26705,-0.869537 0.48775,-1.851794 0.40015,-1.780956 0.39222,-1.796027 -2.85529,-5.425675 -2.88432,-3.223714 -3.25656,-3.840044 -3.25656,-5.391923 0,-1.551401 0.13959,-1.782755 1.21828,-2.019114 0.67005,-0.146823 1.4578,-0.340007 1.75055,-0.429304 0.29276,-0.08929 2.80514,1.223161 5.58307,2.916569 l 5.05079,3.078929 h 7.8224 7.8224 l 6.44595,-4.651612 c 5.75423,-4.152441 6.64513,-4.650886 8.30205,-4.64483 2.79219,0.01019 3.0926,0.357346 2.74144,3.167903 -0.28365,2.270275 -0.42002,2.483757 -2.36521,3.702834 -1.13532,0.711511 -3.5262,2.2248 -5.31309,3.362859 l -3.24888,2.069196 12.26014,12.783919 c 6.74435,7.032476 12.53825,13.44946 12.87828,14.26324 0.57177,1.368362 0.51544,1.773393 -0.75095,5.399979 -0.753,2.15636 -1.73541,4.25217 -2.18314,4.65736 -0.60662,0.54899 -3.2195,1.01463 -10.25386,1.82734 l -9.4398,1.09063 -10.33764,4.75602 -10.33765,4.75603 -8.94932,16.59085 -8.94932,16.59085 -5.72025,4.31228 c -3.14614,2.37176 -5.96358,4.56466 -6.261,4.87312 -0.31658,0.32834 -1.05278,5.15265 -1.77591,11.63757 l -1.23516,11.07675 5.43661,10.63078 c 3.70569,7.2461 5.99735,11.2061 7.19776,12.43778 1.57586,1.61689 1.71381,1.93149 1.31124,2.99032 l -0.4499,1.18332 h -5.81246 c -8.10827,0 -7.64818,0.42915 -11.06587,-10.32157 -1.48731,-4.67851 -3.82661,-11.96281 -5.19843,-16.18734 l -2.49424,-7.68096 -2.17865,-1.10401 -2.17865,-1.104 0.27122,4.57636 c 0.14917,2.517 0.40054,7.26766 0.55862,10.55701 l 0.28741,5.98064 3.93543,5.42933 c 3.87923,5.3518 3.92509,5.44512 3.21136,6.53441 -0.71746,1.09497 -0.7835,1.10508 -7.2232,1.10508 h -6.49913 l -1.414,-2.86744 c -1.32102,-2.67889 -1.59146,-4.12649 -4.11278,-22.01408 l -2.69879,-19.14663 -2.91576,-3.56979 c -1.60367,-1.96339 -3.05566,-3.72978 -3.22665,-3.92532 -0.17098,-0.19554 -8.93148,0.47103 -19.46778,1.48127 l -19.15691,1.8368 -5.402524,4.16486 c -5.398387,4.16166 -5.403822,4.16774 -7.099481,7.9327 -0.933326,2.07232 -1.822435,3.76145 -1.975792,3.75363 -0.153357,-0.008 -1.139964,-1.52234 -2.192465,-3.36558 -1.052496,-1.84325 -2.04927,-3.21784 -2.215053,-3.05465 -0.165779,0.16319 -1.114717,1.62786 -2.108749,3.25482 -0.994031,1.62697 -1.963228,2.95812 -2.153771,2.95812 -0.190544,0 -0.939435,-1.49516 -1.664196,-3.32258 -0.724766,-1.82741 -1.360619,-3.36602 -1.413014,-3.41911 -0.05239,-0.0531 -1.186848,-0.22483 -2.521019,-0.38163 l -2.425758,-0.2851 -1.03388,2.20738 -1.033881,2.20738 4.159374,12.7912 4.159379,12.79122 5.906435,3.63246 c 3.24854,1.99786 6.018043,3.74408 6.154455,3.88049 0.136412,0.13641 -0.21945,0.74562 -0.790801,1.3538 -1.021968,1.08783 -1.151548,1.10578 -7.983912,1.10578 -6.887509,0 -6.958541,-0.0101 -8.568699,-1.21828 -0.89299,-0.67005 -2.766659,-3.02225 -4.163711,-5.22709 -2.321157,-3.66328 -2.979219,-5.35234 -7.63472,-19.59625 l -5.094623,-15.58743 -1.569317,-0.007 -1.569312,-0.007 -2.802104,11.78158 c -2.154397,9.05826 -2.69965,12.00233 -2.358864,12.73656 0.24378,0.52523 2.759146,4.71584 5.589696,9.31246 2.830555,4.59662 5.14646,8.49253 5.14646,8.65758 0,0.77446 -4.547035,1.36987 -10.46141,1.36987 h -6.461598 z"
     id="path5203" /></g></svg>
