<?xml version="1.0" encoding="UTF-8" standalone="no"?>
<!-- Generator: Adobe Illustrator 19.0.0, SVG Export Plug-In . SVG Version: 6.00 Build 0)  -->

<svg
   version="1.1"
   id="Layer_1"
   x="0px"
   y="0px"
   viewBox="0 0 250 250"
   style="enable-background:new 0 0 250 250;"
   xml:space="preserve"
   sodipodi:docname="animal-bear.svg"
   inkscape:version="1.2.2 (b0a8486541, 2022-12-01)"
   xmlns:inkscape="http://www.inkscape.org/namespaces/inkscape"
   xmlns:sodipodi="http://sodipodi.sourceforge.net/DTD/sodipodi-0.dtd"
   xmlns="http://www.w3.org/2000/svg"
   xmlns:svg="http://www.w3.org/2000/svg"><defs
   id="defs13" /><sodipodi:namedview
   id="namedview11"
   pagecolor="#ffffff"
   bordercolor="#000000"
   borderopacity="0.25"
   inkscape:showpageshadow="2"
   inkscape:pageopacity="0.0"
   inkscape:pagecheckerboard="0"
   inkscape:deskcolor="#d1d1d1"
   showgrid="false"
   inkscape:zoom="1.6107892"
   inkscape:cx="21.418072"
   inkscape:cy="171.65498"
   inkscape:window-width="2510"
   inkscape:window-height="1363"
   inkscape:window-x="0"
   inkscape:window-y="0"
   inkscape:window-maximized="1"
   inkscape:current-layer="g1755" />

<g
   id="g1755"
   transform="translate(5.1964457,-7.5081918)"><path
     style="fill:#000000;stroke-width:0.443593"
     d="m 84.030849,198.91549 c 0.687755,-4.30098 3.064427,-7.63006 8.072225,-11.30704 2.697762,-1.98085 2.808062,-2.13596 2.596894,-3.65217 -0.121292,-0.87091 -0.624978,-4.4779 -1.119309,-8.01556 -2.837578,-20.30706 -7.251986,-34.67516 -12.750423,-41.50028 -2.873842,-3.56724 -5.323866,-4.71612 -13.619174,-6.38634 -7.720291,-1.55445 -14.133701,-3.53406 -17.29378,-5.33803 -2.740671,-1.56455 -6.303018,-2.28046 -19.968006,-4.01294 -14.269951,-1.80917 -14.420147,-1.85883 -17.810672,-5.88882 -5.1377878,-6.10679 -6.6024778,-9.18286 -5.3110068,-11.1539 0.842418,-1.28569 4.9877918,-3.288064 10.5513848,-5.096724 l 4.169327,-1.355398 1.597444,-3.516634 c 1.548467,-3.40881 1.684051,-3.560953 4.422278,-4.962289 1.553661,-0.795109 4.612508,-2.167354 6.797441,-3.049425 l 3.972599,-1.603774 1.599054,-4.191778 c 2.394913,-6.278078 3.366491,-7.962319 4.593167,-7.962319 1.343341,0 4.234101,2.111504 6.112268,4.464595 l 1.486351,1.862198 8.428261,-0.296254 c 11.175785,-0.392828 18.353896,-1.062732 22.366675,-2.087387 1.971116,-0.503323 5.703022,-2.108924 9.300128,-4.001254 7.317436,-3.849484 9.680995,-4.690274 15.034315,-5.348158 7.0531,-0.866775 10.7018,0.03087 18.14995,4.465351 1.75543,1.045144 4.15083,2.194377 5.32311,2.553856 3.20667,0.983316 8.93017,0.768674 19.1463,-0.718017 19.39461,-2.822385 31.85952,-2.95041 43.85898,-0.450459 10.61149,2.21078 20.20792,8.799205 27.13571,18.630014 2.74181,3.890733 6.62809,11.430936 8.40579,16.309026 3.82499,10.49587 3.68827,13.61648 -1.58847,36.25671 -2.25186,9.66177 -2.48451,11.13845 -2.51604,15.96934 -0.032,4.90704 0.0657,5.56469 1.24976,8.41382 0.70648,1.69989 2.44369,5.17521 3.86049,7.72292 1.45567,2.61764 2.70176,5.47101 2.86521,6.5609 0.36786,2.45308 -0.67593,8.59336 -2.58888,15.22953 l -1.47052,5.10132 -11.00238,0.11874 -11.00239,0.11873 2.90722,-5.56979 2.90721,-5.5698 -1.20392,-0.45562 c -3.61808,-1.36927 -7.13377,-3.51541 -9.79505,-5.97935 l -2.99594,-2.77378 -0.52954,3.08803 c -0.29124,1.69841 -1.15253,4.70351 -1.91397,6.67798 l -1.38444,3.58997 -3.33834,-0.2822 c -1.83609,-0.1552 -9.79576,-0.28219 -17.68817,-0.28219 h -14.34984 l 0.01,-0.99808 c 0.0265,-2.71404 3.57589,-7.18388 7.14791,-9.00155 0.82083,-0.41768 1.57091,-0.82917 1.66684,-0.91441 0.0959,-0.0853 -1.10176,-1.51337 -2.66155,-3.17361 -7.17378,-7.63576 -7.88322,-8.62578 -8.82783,-12.31918 -0.48614,-1.90069 -0.88387,-4.49547 -0.88387,-5.76619 v -2.31039 l -1.77317,-0.23784 c -2.2318,-0.29935 -6.36579,-2.2272 -10.58335,-4.93546 -1.79458,-1.15237 -3.31013,-2.03311 -3.36789,-1.95721 -0.45735,0.60098 -7.73347,18.35831 -9.70085,23.67486 -2.99971,8.10626 -3.65063,10.98416 -4.33334,19.15894 l -0.52792,6.3212 H 104.79863 83.732396 Z M 34.274305,95.736062 c 1.65586,-1.422136 0.368031,-4.521545 -1.878739,-4.521545 -3.125785,0 -4.080565,4.217959 -1.197412,5.289847 1.100061,0.408975 1.953609,0.195793 3.076151,-0.768302 z"
     id="path5378" /></g></svg>
