<?xml version="1.0" encoding="UTF-8" standalone="no"?>
<!-- Generator: Adobe Illustrator 19.0.0, SVG Export Plug-In . SVG Version: 6.00 Build 0)  -->

<svg
   version="1.1"
   id="Layer_1"
   x="0px"
   y="0px"
   viewBox="0 0 250 250"
   style="enable-background:new 0 0 250 250;"
   xml:space="preserve"
   sodipodi:docname="animal-wolf.svg"
   inkscape:version="1.2.2 (b0a8486541, 2022-12-01)"
   xmlns:inkscape="http://www.inkscape.org/namespaces/inkscape"
   xmlns:sodipodi="http://sodipodi.sourceforge.net/DTD/sodipodi-0.dtd"
   xmlns="http://www.w3.org/2000/svg"
   xmlns:svg="http://www.w3.org/2000/svg"><defs
   id="defs13" /><sodipodi:namedview
   id="namedview11"
   pagecolor="#ffffff"
   bordercolor="#000000"
   borderopacity="0.25"
   inkscape:showpageshadow="2"
   inkscape:pageopacity="0.0"
   inkscape:pagecheckerboard="0"
   inkscape:deskcolor="#d1d1d1"
   showgrid="false"
   inkscape:zoom="1.6107892"
   inkscape:cx="21.418072"
   inkscape:cy="171.65498"
   inkscape:window-width="2510"
   inkscape:window-height="1363"
   inkscape:window-x="0"
   inkscape:window-y="0"
   inkscape:window-maximized="1"
   inkscape:current-layer="g1755" />

<g
   id="g1755"
   transform="translate(5.1964457,-7.5081918)"><path
     style="fill:#000000;stroke-width:0.439388"
     d="m 42.415249,240.44549 c -0.616003,-0.45043 -0.922594,-1.70879 -1.364939,-5.60218 -1.337261,-11.77012 -1.181542,-25.3577 0.401157,-35.00374 0.526724,-3.21022 0.764674,-3.6954 4.043333,-8.24422 5.889594,-8.17125 9.676466,-14.95291 10.941602,-19.59461 0.509926,-1.8709 0.474077,-2.14508 -0.488331,-3.7348 -1.349103,-2.22847 -2.989146,-7.18111 -4.271625,-12.89958 l -1.024502,-4.56815 -0.271325,2.2909 c -0.322155,2.72013 0.314118,10.63772 1.191073,14.82131 l 0.624065,2.97717 -1.996899,3.97607 c -2.085126,4.15173 -5.664308,9.74337 -6.885343,10.75674 -0.644379,0.53478 -0.710995,0.286 -0.709377,-2.64915 0.0031,-5.19204 0.838341,-15.11076 1.753282,-20.81484 2.440563,-15.21537 7.58555,-27.02954 14.493617,-33.28099 4.73644,-4.28623 16.920335,-11.08445 41.131335,-22.94997 7.996878,-3.91917 16.400158,-8.169038 18.673958,-9.444159 4.55346,-2.553519 10.06591,-6.447749 10.06591,-7.110979 0,-0.233054 -0.20685,-0.295901 -0.45964,-0.139665 -0.2528,0.156244 -1.40648,0.153854 -2.56374,-0.0052 l -2.10411,-0.289388 5.37204,-2.780742 c 7.94209,-4.111076 9.6234,-5.325111 14.69461,-10.610587 4.41185,-4.598267 4.73844,-4.842526 7.46958,-5.586665 1.57082,-0.427993 3.89408,-1.461813 5.16281,-2.297391 2.56563,-1.689701 3.08896,-2.399552 0.87877,-1.191987 -1.12355,0.613857 -2.46111,0.78021 -6.27355,0.78021 -4.33655,0 -5.07503,-0.118127 -7.0302,-1.124552 -1.20156,-0.618498 -2.18465,-1.392041 -2.18465,-1.718968 0,-0.326936 2.56792,-2.155992 5.70651,-4.064567 3.13858,-1.908576 6.04478,-3.776266 6.45821,-4.15041 0.41343,-0.374152 1.55243,-2.290128 2.53111,-4.25772 3.30892,-6.652434 7.26074,-10.535915 12.17511,-11.964554 3.58215,-1.041359 4.80195,-2.147884 10.22717,-9.277443 3.58863,-4.715989 5.34843,-6.685996 5.98566,-6.700659 0.49643,-0.01139 1.80204,0.54964 2.90135,1.246803 4.35063,2.759084 5.58104,9.094459 3.1595,16.268232 -0.64086,1.898552 -1.04079,3.776171 -0.8887,4.172482 0.24887,0.648558 0.42872,0.656951 1.8,0.08401 0.83794,-0.350112 2.59046,-1.442121 3.89451,-2.42668 1.30404,-0.984559 2.49202,-1.790112 2.63995,-1.790112 0.50592,0 1.18413,3.293052 1.18658,5.761463 0.003,2.10008 -0.19982,2.719553 -1.36054,4.174172 -3.65159,4.57616 -7.71293,16.15974 -8.5327,24.336565 -0.15747,1.570806 -0.32759,7.79912 -0.37803,13.840696 -0.0728,8.722326 -0.22956,11.300415 -0.7611,12.517735 l -0.66942,1.53307 -0.53627,-1.53307 -0.53628,-1.53306 -1.26499,3.759 c -1.87785,5.58011 -4.22158,10.37347 -8.90401,18.21036 -5.17387,8.65939 -6.31953,10.06384 -12.5651,15.40337 -2.73543,2.33859 -5.17772,4.77264 -5.42733,5.40898 -1.64402,4.19131 -2.68197,13.36009 -3.46362,30.59595 -0.47517,10.47794 -0.74953,13.71087 -1.77146,20.8747 -0.60976,4.27447 -0.2906,7.36934 0.91849,8.90646 0.45996,0.58473 1.98918,1.48351 3.3983,1.9973 3.8434,1.40138 6.46216,4.37835 5.66922,6.44473 -0.13879,0.36165 -0.88982,1.04522 -1.66897,1.51905 -1.26397,0.76867 -2.02393,0.84078 -7.0522,0.66913 -3.72846,-0.12728 -6.05299,-0.40824 -6.86907,-0.83025 -1.61308,-0.83415 -3.31627,-3.45393 -4.18322,-6.43446 -0.38228,-1.31426 -1.12227,-3.85427 -1.64443,-5.64447 -0.84647,-2.90205 -0.90737,-3.73562 -0.5618,-7.68927 0.21316,-2.4389 0.35657,-6.21389 0.31869,-8.38885 -0.10898,-6.25676 -3.57184,-37.1806 -4.2381,-37.84687 -0.11792,-0.11792 -2.18862,0.7763 -4.60154,1.98717 -2.41293,1.21086 -6.43759,3.1199 -8.94369,4.24231 -9.2825,4.15736 -15.12028,7.37635 -20.51847,11.31402 -1.28751,0.93917 -2.42862,1.61989 -2.53578,1.51273 -0.10716,-0.10717 1.09454,-3.69371 2.67047,-7.9701 1.57592,-4.27638 2.86532,-7.89686 2.86532,-8.04551 0,-0.14864 -1.77787,2.83521 -3.95082,6.63078 -7.271648,12.70168 -13.640408,22.36273 -17.763238,26.94582 -1.130763,1.257 -5.654705,5.01153 -10.053203,8.3434 -8.796659,6.66348 -15.964488,13.48679 -18.258994,17.38139 -0.810687,1.37603 -1.995279,3.74334 -2.632435,5.26069 -1.081235,2.57492 -1.158717,3.20969 -1.162351,9.52269 l -0.004,6.76388 2.636324,0.72771 c 3.35802,0.92691 5.017582,2.02958 5.771978,3.83511 0.825653,1.97607 0.751173,3.06767 -0.279639,4.09848 -0.816478,0.81648 -1.464622,0.87877 -9.143151,0.87877 -6.158358,0 -8.466824,-0.14803 -9.058823,-0.58091 z M 170.33713,47.344382 c 1.18287,-0.75172 2.46713,-5.360363 1.49373,-5.360363 -1.09664,0 -2.26781,1.680256 -2.52665,3.624938 -0.27147,2.039564 -0.0449,2.42034 1.03292,1.735425 z M 57.353152,223.60074 l -2.165598,-4.59679 1.221892,-2.49993 c 1.820618,-3.72489 4.72799,-7.59405 7.785295,-10.36075 1.497062,-1.35476 2.779752,-2.40539 2.850428,-2.33472 0.153209,0.15322 -1.640224,12.31922 -1.851068,12.55701 -0.08024,0.0905 -0.789342,-0.37692 -1.575779,-1.03865 -0.786437,-0.66176 -1.480379,-1.03237 -1.542091,-0.82361 -0.06172,0.20877 -0.604654,3.32065 -1.206536,6.91531 -0.60188,3.59465 -1.152068,6.59045 -1.222634,6.65732 -0.07057,0.0668 -1.102826,-1.94696 -2.293909,-4.47519 z M 166.50954,212.84676 c 0,-3.2152 -3.57882,-8.28701 -6.33583,-8.97897 -1.32418,-0.33235 -1.36442,-0.47384 -1.99058,-6.99979 -0.74856,-7.80156 -0.56586,-20.97962 0.42437,-30.61034 1.44289,-14.03317 2.02205,-18.10019 2.78864,-19.58261 0.76049,-1.47063 10.51041,-9.96828 10.73562,-9.35676 0.0714,0.19397 -1.05302,3.61677 -2.49879,7.60622 -1.44577,3.98946 -2.83607,8.41119 -3.08956,9.82609 -0.60623,3.38379 -1.34275,19.8025 -1.34729,30.03425 -0.004,8.49832 0.60656,12.45477 2.98236,19.33303 0.82857,2.39885 0.84805,2.41675 2.64754,2.43244 3.25113,0.0283 5.66058,2.71529 5.1025,5.69013 l -0.28965,1.54395 h -4.56466 c -4.36728,0 -4.56467,-0.0405 -4.56467,-0.93764 z"
     id="path5343" /></g></svg>
