<?xml version="1.0" encoding="UTF-8" standalone="no"?>
<!-- Generator: Adobe Illustrator 19.0.0, SVG Export Plug-In . SVG Version: 6.00 Build 0)  -->

<svg
   version="1.1"
   id="Layer_1"
   x="0px"
   y="0px"
   viewBox="0 0 250 250"
   style="enable-background:new 0 0 250 250;"
   xml:space="preserve"
   sodipodi:docname="animal-horse.svg"
   inkscape:version="1.2.2 (b0a8486541, 2022-12-01)"
   xmlns:inkscape="http://www.inkscape.org/namespaces/inkscape"
   xmlns:sodipodi="http://sodipodi.sourceforge.net/DTD/sodipodi-0.dtd"
   xmlns="http://www.w3.org/2000/svg"
   xmlns:svg="http://www.w3.org/2000/svg"><defs
   id="defs13" /><sodipodi:namedview
   id="namedview11"
   pagecolor="#ffffff"
   bordercolor="#000000"
   borderopacity="0.25"
   inkscape:showpageshadow="2"
   inkscape:pageopacity="0.0"
   inkscape:pagecheckerboard="0"
   inkscape:deskcolor="#d1d1d1"
   showgrid="false"
   inkscape:zoom="1.6107892"
   inkscape:cx="21.418072"
   inkscape:cy="171.65498"
   inkscape:window-width="2510"
   inkscape:window-height="1363"
   inkscape:window-x="0"
   inkscape:window-y="0"
   inkscape:window-maximized="1"
   inkscape:current-layer="g1755" />

<g
   id="g1755"
   transform="translate(5.1964457,-7.5081918)"><path
     style="fill:#000000;stroke-width:0.431044"
     d="m 102.63864,242.65618 c -0.29634,-0.11957 -0.53881,-0.58691 -0.53881,-1.03853 0,-1.25427 2.90415,-8.01425 4.86601,-11.32661 1.57189,-2.65396 1.78141,-3.35056 2.0743,-6.89671 0.17918,-2.16951 0.53548,-5.49632 0.79175,-7.39292 0.71578,-5.29708 -0.10326,-13.68862 -1.67877,-17.20014 -1.79078,-3.99132 -2.22301,-6.68682 -2.19448,-13.68551 0.0563,-13.80234 -4.10434,-34.82888 -5.76549,-29.1372 -0.601936,2.06244 -1.147643,17.48205 -1.446066,40.86059 -0.28385,22.23684 -0.377353,24.46594 -1.066749,25.43159 -0.41559,0.58213 -1.436478,2.00466 -2.268643,3.16117 -1.980084,2.75186 -2.198337,3.80425 -1.348209,6.50117 0.649743,2.06119 0.651087,2.41074 0.01688,4.36169 -0.379217,1.16651 -1.18858,2.5773 -1.798598,3.13509 -1.080529,0.98803 -1.278827,1.01025 -7.693205,0.86209 -4.256112,-0.0983 -6.762148,-0.33015 -7.087707,-0.65571 -0.623894,-0.62392 3.663425,-7.93739 7.183736,-12.25428 2.957618,-3.62685 3.872672,-5.7345 4.674805,-10.76742 0.917622,-5.7576 0.951517,-18.63432 0.0599,-22.74403 -0.377681,-1.74073 -0.864292,-7.0749 -1.081361,-11.85371 -0.447358,-9.84854 -0.945454,-12.2966 -4.092156,-20.11204 -1.997751,-4.96179 -3.697487,-11.8265 -3.698743,-14.93807 -8e-4,-1.95376 -0.790288,-3.49166 -3.510954,-6.83921 -2.387821,-2.93801 -3.844792,-5.80129 -5.39061,-10.59379 l -1.144424,-3.54804 1.224634,-6.28634 c 0.949869,-4.87591 1.218004,-7.44686 1.195098,-11.45886 -0.02895,-5.07391 -0.06806,-5.27526 -2.048057,-10.560574 -2.362172,-6.305401 -8.700955,-19.363041 -9.559681,-19.692561 -0.325991,-0.125097 -5.296627,1.979474 -11.045843,4.676826 l -10.453133,4.904275 -1.13765,2.100557 c -1.571755,2.902064 -3.159618,4.467741 -5.04628,4.975762 -3.31412,0.892405 -7.386577,-1.447749 -9.720612,-5.58574 -1.191755,-2.11286 -1.335763,-2.745839 -1.323887,-5.819091 0.01256,-3.246209 0.14165,-3.715784 2.202288,-8.01042 1.203927,-2.509137 3.410213,-6.485516 4.902854,-8.8364 4.315719,-6.797186 4.322853,-6.817378 4.045201,-11.454943 -0.236992,-3.958466 -0.21507,-4.07976 1.296838,-7.175757 0.845849,-1.732076 2.405048,-4.489684 3.464879,-6.128019 l 1.92697,-2.978791 -1.544395,-3.354945 c -0.849408,-1.84522 -1.808866,-4.324794 -2.132122,-5.510165 -0.628173,-2.303536 -0.805708,-6.250136 -0.281147,-6.250136 0.17424,0 2.569811,2.247141 5.323492,4.993647 l 5.006698,4.993647 1.760824,-0.527557 1.760824,-0.527557 0.288817,-2.849676 c 0.158845,-1.567321 0.413863,-3.896646 0.566701,-5.176278 l 0.277885,-2.326604 1.327198,1.117534 c 0.851911,0.717336 2.241156,3.053797 3.879389,6.524436 l 2.552208,5.406901 3.017305,0.01432 c 3.911789,0.01856 6.034994,0.988041 9.196916,4.199434 1.458146,1.480961 5.171149,4.230806 9.130566,6.762086 11.682749,7.46885 13.510875,8.732134 16.301553,11.264809 3.160073,2.867926 6.157813,6.53528 9.880823,12.087957 2.01612,3.006936 3.12264,4.213397 4.7098,5.135237 1.14101,0.662708 3.91727,2.831406 6.16947,4.819333 2.31832,2.046278 5.3075,4.213083 6.88981,4.994294 2.65826,1.312425 3.03756,1.379595 7.75879,1.373935 5.27561,-0.0063 7.1757,-0.390392 17.03313,-3.442902 6.04387,-1.871582 11.40096,-2.801287 16.14144,-2.801287 6.81815,0 9.98414,0.980689 17.91102,5.548077 2.13368,1.229397 5.23719,2.63971 6.89671,3.134031 4.69331,1.397987 7.07553,2.813609 10.39274,6.17582 2.59439,2.629587 3.4636,3.928017 5.66112,8.456535 3.89413,8.02479 7.10927,17.56534 9.81294,29.1188 1.10137,4.70645 1.11143,4.88826 0.50103,9.05192 -0.3426,2.33696 -0.5367,4.9279 -0.43131,5.75766 0.185,1.4567 0.16694,1.47897 -0.52432,0.64656 -0.66974,-0.80648 -0.70098,-0.12535 -0.48437,10.56058 0.20506,10.11685 0.16473,11.17628 -0.3528,9.26744 -0.54576,-2.01301 -0.58435,-1.60368 -0.58478,6.20404 -3.6e-4,6.48074 -0.12906,8.43951 -0.5727,8.71637 -0.36839,0.2299 -0.57223,1.24437 -0.57223,2.84789 v 2.49076 h -2.35801 c -2.02288,0 -2.42754,-0.13947 -2.84725,-0.98131 -0.44239,-0.88735 -0.54445,-0.91479 -1.06582,-0.28658 -0.38607,0.46519 -1.01195,0.6275 -1.89423,0.49123 -0.825,-0.12742 -1.59968,0.045 -2.07198,0.46115 -0.47409,0.41773 -0.75432,0.47969 -0.75432,0.1668 0,-1.21787 -0.8522,-0.31733 -1.46643,1.5496 -1.0396,3.1599 -1.533,7.54807 -1.54234,13.71745 -0.007,4.77974 0.15507,6.18201 1.06906,9.23564 1.30282,4.3527 1.35326,6.59329 0.21574,9.5861 -1.14867,3.02219 -1.09693,3.77514 0.4848,7.05476 1.09301,2.26627 1.3058,3.15954 1.12816,4.73561 -0.12042,1.06837 -0.31203,2.03557 -0.42581,2.14934 -0.55694,0.55695 -7.65978,0.99739 -9.98403,0.61912 -1.39046,-0.22631 -2.6107,-0.49405 -2.71164,-0.595 -0.10095,-0.10095 0.73711,-3.06485 1.86236,-6.58645 1.58692,-4.96649 2.03212,-6.97876 1.98452,-8.96981 -0.0337,-1.4118 0.14406,-3.44848 0.39515,-4.52596 0.57243,-2.4563 0.53569,-12.20718 -0.0647,-17.1731 -0.50739,-4.19677 -2.09238,-10.72275 -3.47611,-14.31247 -0.63045,-1.63552 -0.87432,-3.10595 -0.78638,-4.74147 0.27963,-5.20058 4.3e-4,-8.58713 -1.04784,-12.7158 -1.41707,-5.58055 -4.11788,-13.07986 -6.64709,-18.45689 l -2.00876,-4.27058 -0.95007,1.10452 c -1.0259,1.19267 -2.32227,6.107 -2.32227,8.80331 0,3.13713 1.77924,8.51179 5.02867,15.19039 l 3.25069,6.68118 -0.24773,5.17252 c -0.13626,2.84489 -0.46449,6.72428 -0.72941,8.62087 -0.78751,5.63796 -1.38547,17.17721 -1.2867,24.83036 l 0.0924,7.15755 -1.91722,1.12357 c -1.05447,0.61796 -2.54377,1.83716 -3.30954,2.70934 -1.18827,1.35336 -1.35552,1.81379 -1.14114,3.14154 0.84363,5.22504 0.84855,5.10134 -0.24604,6.19592 -0.80447,0.80448 -1.69788,1.10904 -3.92144,1.33685 -3.18663,0.32649 -9.70131,-0.0855 -10.04089,-0.63493 -0.38514,-0.62316 2.32566,-5.43701 5.13546,-9.1196 3.75582,-4.92243 4.96925,-6.8193 5.46469,-8.54247 0.59827,-2.08084 1.25995,-11.5583 1.32209,-18.9368 0.0494,-5.86737 -0.0332,-6.54509 -1.32881,-10.90337 -2.16652,-7.28777 -4.38623,-12.75891 -7.11416,-17.53502 -1.38365,-2.42249 -3.62566,-7.14842 -4.98226,-10.50205 -4.7537,-11.75159 -5.14093,-12.40781 -6.4155,-10.87203 -0.55993,0.67467 -9.7006,2.99943 -14.46738,3.67952 -1.65953,0.23677 -6.85327,0.56231 -11.54166,0.72344 -5.75602,0.19781 -8.76568,0.46931 -9.26744,0.83603 -0.66707,0.48753 -0.77601,2.05717 -1.06474,15.34136 -0.18425,8.4768 -0.14912,17.49054 0.0823,21.10077 0.32869,5.12905 0.28825,6.68671 -0.21716,8.3661 -0.88422,2.93801 -0.76484,9.08115 0.28871,14.85791 1.49323,8.18751 1.52144,9.82908 0.21326,12.41064 -1.44629,2.85412 -1.43125,4.79821 0.0568,7.33729 0.92084,1.57132 1.17264,2.53775 1.14729,4.40348 -0.0459,3.3812 -0.43126,4.58205 -1.56802,4.88665 -1.1607,0.31102 -13.66974,0.30015 -14.44469,-0.0126 z m 110.99094,-89.89159 c -0.082,-1.72916 -0.14969,-0.42835 -0.15036,2.89068 -8e-4,3.31904 0.0665,4.73382 0.14914,3.14393 0.0827,-1.58988 0.0832,-4.30545 0.002,-6.03461 z"
     id="path5308" /></g></svg>
