<?xml version="1.0" encoding="UTF-8" standalone="no"?>
<!-- Generator: Adobe Illustrator 19.0.0, SVG Export Plug-In . SVG Version: 6.00 Build 0)  -->

<svg
   version="1.1"
   id="Layer_1"
   x="0px"
   y="0px"
   viewBox="0 0 250 250"
   style="enable-background:new 0 0 250 250;"
   xml:space="preserve"
   sodipodi:docname="big-bowl.svg"
   inkscape:version="1.2.2 (b0a8486541, 2022-12-01)"
   xmlns:inkscape="http://www.inkscape.org/namespaces/inkscape"
   xmlns:sodipodi="http://sodipodi.sourceforge.net/DTD/sodipodi-0.dtd"
   xmlns="http://www.w3.org/2000/svg"
   xmlns:svg="http://www.w3.org/2000/svg"><defs
   id="defs13" /><sodipodi:namedview
   id="namedview11"
   pagecolor="#ffffff"
   bordercolor="#000000"
   borderopacity="0.25"
   inkscape:showpageshadow="2"
   inkscape:pageopacity="0.0"
   inkscape:pagecheckerboard="0"
   inkscape:deskcolor="#d1d1d1"
   showgrid="false"
   inkscape:zoom="4.108"
   inkscape:cx="112.09834"
   inkscape:cy="125.73028"
   inkscape:window-width="2510"
   inkscape:window-height="1363"
   inkscape:window-x="0"
   inkscape:window-y="0"
   inkscape:window-maximized="1"
   inkscape:current-layer="Layer_1" />

<g
   id="g1539"
   transform="translate(-11.355451,-13.006448)"><path
     id="path1309"
     style="fill:#f3be82;stroke:#000000;stroke-width:3"
     d="m 240.65182,138.21687 c 0,19.79026 -6.17594,41.7392 -26.10881,54.38102 -7.85618,4.98254 -23.12783,5.06163 -33.01542,8.2237 -13.6085,4.35202 -28.85588,6.7897 -44.95719,6.7897 -25.99147,0 -44.18831,-13.71968 -61.775978,-24.26478 -8.902131,-5.33748 -22.85301,-3.82176 -29.784267,-9.49305 C 35.349994,165.94931 34.069057,150.33908 32.488991,138.21687 29.044351,111.78971 46.339742,102.55883 68.668599,98.642291 91.52909,94.632501 108.8642,71.106495 136.5704,68.822456 c 22.0524,-1.817952 42.54968,2.367395 59.42143,10.389673 9.58995,4.559887 15.09884,14.057423 21.96589,20.698763 12.43673,12.027958 22.6941,23.119028 22.6941,38.305978 z"
     sodipodi:nodetypes="ssssssssssss" /><path
     style="fill:#f3be82;stroke:#a2a288;stroke-width:3"
     d="M 99.773719,83.730637 125,99.896543"
     id="path1372" /><path
     style="fill:#f3be82;stroke:#a2a288;stroke-width:3"
     d="m 115.11606,74.971839 10.61969,8.420876 17.40999,16.723205"
     id="path1428"
     sodipodi:nodetypes="ccc" /><path
     style="fill:#f3be82;stroke:#a2a288;stroke-width:3"
     d="m 136.5704,68.822456 21.86575,31.293464"
     id="path1430"
     sodipodi:nodetypes="cc" /><path
     style="fill:#f3be82;stroke:#a2a288;stroke-width:3"
     d="m 160.95428,69.235467 9.73401,30.423354"
     id="path1432" /><path
     style="fill:#f3be82;stroke:#a2a288;stroke-width:3"
     d="m 180.8143,73.796504 5.01214,33.240266"
     id="path1434" /><path
     style="fill:#f3be82;stroke:#a2a288;stroke-width:3"
     d="m 200.40641,82.467709 -3.57534,36.730921"
     id="path1436" /><path
     style="fill:#f3be82;stroke:#a2a288;stroke-width:3"
     d="M 217.95772,99.910892 203.13166,135.09749"
     id="path1438" /><path
     style="fill:#f3be82;stroke:#a2a288;stroke-width:3"
     d="m 233.5715,119.34395 -30.00909,27.71952"
     id="path1440" /><path
     style="fill:#f3be82;stroke:#a2a288;stroke-width:3"
     d="m 240.30791,146.18182 -37.76329,11.81116"
     id="path1442" /><path
     style="fill:#f3be82;stroke:#a2a288;stroke-width:3"
     d="m 234.15896,170.13984 -35.54022,0.31643"
     id="path1444" /><path
     style="fill:#f3be82;stroke:#a2a288;stroke-width:3"
     d="M 214.54301,192.59789 183.32037,174.77806"
     id="path1446" /><path
     style="fill:#f3be82;stroke:#a2a288;stroke-width:3"
     d="M 181.52759,200.82159 159.52562,177.57272"
     id="path1448" /><path
     style="fill:#f3be82;stroke:#a2a288;stroke-width:3"
     d="M 158.43615,205.04294 134.48892,177.59459"
     id="path1450" /><path
     style="fill:#f3be82;stroke:#a2a288;stroke-width:3"
     d="M 125,206.02906 111.11418,175.15747"
     id="path1452" /><path
     style="fill:#f3be82;stroke:#a2a288;stroke-width:3"
     d="M 94.768402,193.90064 90.434252,168.6399"
     id="path1454" /><path
     style="fill:#f3be82;stroke:#a2a288;stroke-width:3"
     d="M 74.794422,183.34651 70.623441,156.734"
     id="path1456" /><path
     style="fill:#f3be82;stroke:#a2a288;stroke-width:3"
     d="m 53.05007,176.60847 1.142017,-20.10673"
     id="path1458" /><path
     style="fill:#f3be82;stroke:#a2a288;stroke-width:3"
     d="M 37.552346,163.14813 53.621079,144.75021"
     id="path1460" /><path
     style="fill:#f3be82;stroke:#a2a288;stroke-width:3"
     d="M 33.983804,143.76348 54.75084,135.67993"
     id="path1462" /><path
     style="fill:#f3be82;stroke:#a2a288;stroke-width:3"
     d="m 33.439697,125 26.398766,-3.06566"
     id="path1464" /><path
     style="fill:#f3be82;stroke:#a2a288;stroke-width:3"
     d="m 46.63908,107.26042 29.637251,5.57772"
     id="path1466" /><path
     style="fill:#f3be82;stroke:#a2a288;stroke-width:3"
     d="M 68.668599,98.642291 94.84162,110.04928"
     id="path1468" /><path
     style="fill:#f3be82;stroke:#a2a288;stroke-width:3"
     d="m 88.955855,91.81359 20.790335,15.44683"
     id="path1470" /></g></svg>
