<?xml version="1.0" encoding="UTF-8" standalone="no"?>
<!-- Created with Inkscape (http://www.inkscape.org/) -->

<svg
   width="250mm"
   height="250mm"
   viewBox="0 0 250 250"
   version="1.1"
   id="svg5"
   inkscape:version="1.2.2 (b0a8486541, 2022-12-01)"
   sodipodi:docname="bumpy.svg"
   xmlns:inkscape="http://www.inkscape.org/namespaces/inkscape"
   xmlns:sodipodi="http://sodipodi.sourceforge.net/DTD/sodipodi-0.dtd"
   xmlns="http://www.w3.org/2000/svg"
   xmlns:svg="http://www.w3.org/2000/svg">
  <sodipodi:namedview
     id="namedview7"
     pagecolor="#ffffff"
     bordercolor="#000000"
     borderopacity="0.25"
     inkscape:showpageshadow="2"
     inkscape:pageopacity="0.0"
     inkscape:pagecheckerboard="0"
     inkscape:deskcolor="#d1d1d1"
     inkscape:document-units="mm"
     showgrid="false"
     showguides="true"
     inkscape:zoom="1.2054417"
     inkscape:cx="472.02616"
     inkscape:cy="472.44094"
     inkscape:window-width="2510"
     inkscape:window-height="1363"
     inkscape:window-x="0"
     inkscape:window-y="0"
     inkscape:window-maximized="1"
     inkscape:current-layer="layer1">
    <sodipodi:guide
       position="157.91558,71.663659"
       orientation="0,-1"
       id="guide4424"
       inkscape:locked="false" />
  </sodipodi:namedview>
  <defs
     id="defs2" />
  <g
     inkscape:label="Layer 1"
     inkscape:groupmode="layer"
     id="layer1">
    <path
       style="color:#000000;fill:#ff0000;stroke:#000000;stroke-width:0.994659;stroke-linecap:round;stroke-linejoin:round;-inkscape-stroke:none"
       d="m 203.8061,51.622317 c -12.02235,0.179584 -23.76107,10.755231 -23.76107,26.251604 v 72.128289 c 0,10.84647 -3.82001,14.19487 -7.70861,16.48958 -3.78562,2.23393 -7.43396,2.43022 -7.6309,2.44001 -0.19746,-0.008 -3.83661,-0.16471 -7.55707,-2.27683 -3.82214,-2.16984 -7.50851,-5.22974 -7.50851,-15.71832 v -72.7247 c 0,-15.838028 -11.97574,-26.433131 -23.99807,-26.253547 -12.02235,0.179584 -23.75914,10.757173 -23.75914,26.253547 v 72.12634 c 0,10.84648 -3.821943,14.19682 -7.710544,16.49152 -3.788744,2.23578 -7.443567,2.42861 -7.634781,2.43808 -0.206127,-0.008 -3.837395,-0.16542 -7.553189,-2.2749 -3.822143,-2.16983 -7.508506,-5.22972 -7.508506,-15.71832 V 78.549979 C 71.47571,62.71195 59.501919,52.116848 47.479571,52.296431 35.457224,52.476016 23.718499,63.053603 23.718499,78.549979 v 72.126351 c 0,10.84646 -3.820003,14.19681 -7.708604,16.49152 -3.888601,2.29469 -7.7591144,2.4575 -7.7591144,2.4575 a 7.9333966,7.9333966 0 0 0 -7.75134327,8.11268 7.9333966,7.9333966 0 0 0 8.11074137,7.75135 c 0,0 7.7412313,-0.0995 15.4638333,-4.65664 7.722601,-4.55718 15.512399,-14.6494 15.512399,-30.15641 V 78.549979 c 0,-8.454145 4.2074,-10.328981 8.130169,-10.387578 3.922768,-0.05859 7.89316,1.322364 7.89316,10.387578 v 72.724691 c 0,15.22899 7.838507,25.1423 15.54154,29.51533 7.703033,4.37304 15.364755,4.36329 15.364755,4.36329 a 7.9333966,7.9333966 0 0 0 0.128218,-0.0524 7.9333966,7.9333966 0 0 0 0.128217,0.0505 c 0,0 7.74123,-0.0995 15.46384,-4.65663 7.72259,-4.55719 15.51239,-14.6494 15.51239,-30.15642 v -72.1264 c 0,-8.454146 4.20741,-10.32898 8.13017,-10.387578 3.92277,-0.05859 7.89316,1.322364 7.89316,10.387578 v 72.7247 c 0,15.22899 7.84044,25.14229 15.54349,29.51532 7.70303,4.37303 15.36281,4.36329 15.36281,4.36329 a 7.9333966,7.9333966 0 0 0 0.12822,-0.0524 7.9333966,7.9333966 0 0 0 0.13016,0.0505 c 0,0 7.73929,-0.0995 15.46189,-4.65664 7.7226,-4.55718 15.51433,-14.64746 15.51433,-30.15447 V 77.873921 c 0,-8.454145 4.20741,-10.32898 8.13017,-10.387576 3.92277,-0.0586 7.89317,1.322363 7.89317,10.387576 v 72.726639 c 0,15.22899 7.8385,25.14229 15.54154,29.51532 7.70303,4.37304 15.36281,4.36135 15.36281,4.36135 a 7.9333966,7.9333966 0 0 0 8.01166,-7.85431 7.9333966,7.9333966 0 0 0 -7.85431,-8.01166 c 0,0 -3.86508,-0.12448 -7.68723,-2.29431 -3.82214,-2.16985 -7.50851,-5.2278 -7.50851,-15.71639 V 77.873921 c 0,-15.838028 -11.97379,-26.431187 -23.99613,-26.251604 z"
       id="path4523" />
  </g>
</svg>
