<?xml version="1.0" encoding="UTF-8" standalone="no"?>
<!-- Generator: Adobe Illustrator 19.0.0, SVG Export Plug-In . SVG Version: 6.00 Build 0)  -->

<svg
   version="1.1"
   id="Layer_1"
   x="0px"
   y="0px"
   viewBox="0 0 250 250"
   style="enable-background:new 0 0 250 250;"
   xml:space="preserve"
   sodipodi:docname="bush.svg"
   inkscape:version="1.2.2 (b0a8486541, 2022-12-01)"
   xmlns:inkscape="http://www.inkscape.org/namespaces/inkscape"
   xmlns:sodipodi="http://sodipodi.sourceforge.net/DTD/sodipodi-0.dtd"
   xmlns="http://www.w3.org/2000/svg"
   xmlns:svg="http://www.w3.org/2000/svg"><defs
   id="defs13" /><sodipodi:namedview
   id="namedview11"
   pagecolor="#ffffff"
   bordercolor="#000000"
   borderopacity="0.25"
   inkscape:showpageshadow="2"
   inkscape:pageopacity="0.0"
   inkscape:pagecheckerboard="0"
   inkscape:deskcolor="#d1d1d1"
   showgrid="false"
   inkscape:zoom="2.278"
   inkscape:cx="102.06321"
   inkscape:cy="98.551361"
   inkscape:window-width="2510"
   inkscape:window-height="1363"
   inkscape:window-x="0"
   inkscape:window-y="0"
   inkscape:window-maximized="1"
   inkscape:current-layer="Layer_1" />

<path
   style="fill:#000000;stroke-width:0.42974"
   d="m 16.905003,175.95493 c -2.095203,-1.14598 -2.491518,-2.97627 -1.04316,-4.81756 0.728753,-0.92645 1.245685,-1.1323 2.843433,-1.1323 1.819602,0 1.934115,-0.0659 1.679353,-0.96692 -3.795139,-13.42152 -1.806266,-26.72018 5.70391,-38.13942 0.854958,-1.29997 3.064719,-3.94195 4.910587,-5.87108 5.561199,-5.81203 11.764201,-9.57051 19.85534,-12.03058 3.599337,-1.09436 4.419205,-1.17752 11.817846,-1.19885 7.024566,-0.0203 8.375484,0.0932 11.602983,0.97426 6.722715,1.83526 12.822939,5.13671 18.421738,9.96985 l 3.165966,2.73302 7.792401,0.0457 c 8.51424,0.0499 10.27317,0.40026 16.71499,3.32913 1.59842,0.72675 2.97474,1.24325 3.05848,1.14779 0.0837,-0.0955 0.86101,-2.08014 1.72725,-4.41037 0.97595,-2.62537 1.43085,-4.42329 1.19604,-4.72714 -0.20842,-0.26969 -2.6319,-3.22768 -5.38551,-6.5733 -4.23985,-5.15139 -5.00657,-6.30934 -5.00657,-7.56128 0,-1.87487 1.10147,-2.90077 3.11443,-2.90077 1.44842,0 1.80076,0.31352 5.76765,5.13218 2.32374,2.8227 4.32168,5.14315 4.43986,5.15657 0.11817,0.0134 0.88479,-1.82014 1.70359,-4.07455 1.6592,-4.56832 2.4064,-5.50306 4.35467,-5.44766 1.76825,0.0503 2.96472,1.19549 2.97275,2.84543 0.004,0.73152 -2.12925,7.03484 -4.73958,14.00738 l -4.74605,12.67733 2.4134,2.54965 c 4.83108,5.10382 8.11448,11.11223 9.69079,17.7335 0.74654,3.13584 0.87306,4.79222 0.74021,9.69121 l -0.16024,5.90893 h 15.15737 c 9.65056,0 15.15734,-0.15358 15.15734,-0.42272 0,-0.23249 -3.48089,-10.17357 -7.73531,-22.09128 -4.25443,-11.91771 -7.73532,-22.17017 -7.73532,-22.78325 0,-2.41352 3.66519,-3.86002 5.27442,-2.08159 0.37427,0.41363 1.77845,3.84618 3.12038,7.62789 1.34194,3.78171 2.48347,6.92383 2.53675,6.98249 0.0533,0.0587 2.68848,-1.83582 5.85601,-4.20994 5.01578,-3.75942 5.94872,-4.30014 7.22787,-4.18918 2.00934,0.1743 3.39917,1.98895 2.81229,3.6719 -0.35518,1.01851 -4.95785,4.81521 -12.61017,10.402 l -1.0382,0.75798 4.4274,12.4158 c 2.43507,6.82869 4.60117,12.75423 4.81355,13.16785 0.34464,0.6712 1.16451,0.75205 7.62594,0.75205 h 7.23978 l 4.21965,-9.49109 c 5.01829,-11.28742 6.07109,-12.49523 8.93082,-10.24576 0.75882,0.59688 1.13231,1.30229 1.13231,2.13859 0,0.68636 -1.54707,4.73791 -3.43793,9.00346 -1.89085,4.26555 -3.43791,7.94437 -3.43791,8.17517 0,0.25938 3.36784,0.41963 8.81913,0.41963 h 8.81913 l 1.28285,-2.02283 c 3.40653,-5.37155 5.40967,-13.77212 4.99995,-20.96826 -0.96165,-16.8897 -12.11181,-30.50419 -28.56095,-34.87329 -6.87482,-1.82604 -8.54849,-3.08677 -10.32324,-7.77624 -4.13834,-10.934813 -15.13314,-16.488825 -26.10483,-13.186822 -2.89539,0.871383 -6.33972,0.784115 -8.26183,-0.209322 -0.87693,-0.453233 -2.65801,-1.62921 -3.95797,-2.613278 -3.09231,-2.340854 -10.13765,-5.754694 -14.1244,-6.844009 -19.17982,-5.2406 -38.889023,2.378464 -50.13372,19.380371 -1.043181,1.57729 -2.272676,2.98713 -2.732205,3.13298 -2.028309,0.64376 -4.34652,-0.98832 -4.34652,-3.06005 0,-1.541003 4.968916,-8.517763 8.770714,-12.314797 17.754751,-17.732478 45.429201,-20.110094 66.032341,-5.673095 3.74538,2.624446 4.72902,2.823057 8.35164,1.686268 2.9795,-0.934972 9.95612,-0.924349 13.53681,0.02064 4.50719,1.189476 9.08829,3.827169 12.4807,7.186097 2.52536,2.500438 3.39485,3.773377 5.38819,7.888304 2.32165,4.792693 2.41879,4.918013 4.17928,5.392093 0.99132,0.26694 3.09033,0.8519 4.66448,1.29989 14.58874,4.15197 26.23278,16.31137 30.32404,31.66614 0.96811,3.63339 1.11135,5.02949 1.11135,10.83194 0,5.77014 -0.1458,7.20763 -1.09017,10.74844 -0.59959,2.2481 -1.69315,5.41733 -2.43013,7.04271 -0.73699,1.62539 -1.33998,3.0252 -1.33998,3.11068 0,0.0855 1.53303,0.15544 3.40672,0.15544 3.1685,0 3.46902,0.0792 4.29741,1.1323 1.44866,1.84167 1.11443,3.66457 -0.85903,4.68508 -1.05771,0.54697 -15.14615,0.62702 -108.34984,0.61565 -76.721489,-0.009 -107.378024,-0.14653 -107.993517,-0.48318 z m 51.616185,-7.34652 c -0.144731,-0.76816 -0.69805,-2.74202 -1.229608,-4.38637 l -0.966479,-2.9897 -9.239406,-2.91908 c -7.180192,-2.2685 -9.454906,-3.16391 -10.206328,-4.01754 -1.201315,-1.36474 -1.220776,-2.33084 -0.07624,-3.78587 1.243806,-1.58124 2.283413,-1.47659 10.116156,1.01833 3.713525,1.18286 6.830128,2.07239 6.925784,1.97674 0.09565,-0.0957 -0.841328,-3.58058 -2.08217,-7.74429 l -2.256093,-7.57038 0.873403,-1.17475 c 1.104611,-1.48576 3.572304,-1.82945 4.738632,-0.65998 0.465138,0.4664 2.74715,7.3692 5.690832,17.21408 l 4.914307,16.43547 6.473805,-0.004 6.473801,-0.004 6.565001,-11.52503 c 3.610747,-6.33876 6.791895,-11.75193 7.069225,-12.02926 0.80727,-0.80727 3.24353,-0.6012 4.19999,0.35526 1.58812,1.58813 1.11653,2.89573 -4.72714,13.10707 -3.072649,5.36919 -5.586627,9.83792 -5.586627,9.93053 0,0.0925 8.685237,0.16831 19.300527,0.16831 h 19.30053 l 0.31945,-1.8264 c 0.52639,-3.00955 0.32504,-9.37138 -0.39269,-12.40729 -2.45293,-10.37551 -10.47584,-19.11141 -20.68674,-22.52513 -4.28759,-1.43344 -8.44413,-1.84607 -13.72851,-1.36287 -5.533544,0.50599 -7.125352,-0.0474 -11.633016,-4.0444 -4.409226,-3.90969 -8.857973,-6.51494 -13.881492,-8.1292 -8.940465,-2.87294 -18.205489,-2.46929 -26.943812,1.17385 -5.811516,2.42292 -12.740381,8.13809 -16.511569,13.61932 -6.233728,9.06041 -8.090977,21.82501 -4.749572,32.64321 l 0.88303,2.85891 h 20.658077 20.658077 z"
   id="path11781" /></svg>
