<?xml version="1.0" encoding="UTF-8" standalone="no"?>
<!-- Generator: Adobe Illustrator 19.0.0, SVG Export Plug-In . SVG Version: 6.00 Build 0)  -->

<svg
   version="1.1"
   id="Layer_1"
   x="0px"
   y="0px"
   viewBox="0 0 250 250"
   style="enable-background:new 0 0 250 250;"
   xml:space="preserve"
   sodipodi:docname="dunes.svg"
   inkscape:version="1.2.2 (b0a8486541, 2022-12-01)"
   xmlns:inkscape="http://www.inkscape.org/namespaces/inkscape"
   xmlns:sodipodi="http://sodipodi.sourceforge.net/DTD/sodipodi-0.dtd"
   xmlns="http://www.w3.org/2000/svg"
   xmlns:svg="http://www.w3.org/2000/svg"><g
   id="g593"
   transform="matrix(0.29217333,0,0,0.21128815,67.791216,79.389388)"
   style="stroke:none"><path
     style="fill:#cccccc;stroke:none;stroke-width:3"
     d="M 290.76079,169.73075 C 251.28029,134.91396 205.60115,106.81854 150.97352,97.031519 141.18224,119.20547 122.17321,138.07912 70.820274,169.18589 49.83432,181.13879 292.90382,182.98798 290.76079,169.73075 Z"
     id="path589"
     sodipodi:nodetypes="cccc" /><path
     style="fill:#999999;stroke:none;stroke-width:3"
     d="m 150.97352,97.031519 c -52.3926,0 -111.211952,38.384241 -143.8256911,66.746661 19.3715311,4.75053 37.8336301,9.93494 67.9049111,9.58089 55.31392,-15.41442 61.54693,-48.54781 75.92078,-76.327551 z"
     id="path591"
     sodipodi:nodetypes="cccc" /></g><g
   id="g547"
   transform="matrix(0.3807362,0,0,0.2753333,12.398538,77.671558)"
   style="stroke:none"><path
     style="fill:#cccccc;stroke:none;stroke-width:3"
     d="M 290.76079,169.73075 C 251.28029,134.91396 205.60115,106.81854 150.97352,97.031519 141.18224,119.20547 122.17321,138.07912 70.820274,169.18589 49.83432,181.13879 292.90382,182.98798 290.76079,169.73075 Z"
     id="path362"
     sodipodi:nodetypes="cccc" /><path
     style="fill:#999999;stroke:none;stroke-width:3"
     d="m 150.97352,97.031519 c -52.3926,0 -111.211952,38.384241 -143.8256911,66.746661 19.3715311,4.75053 37.8336301,9.93494 67.9049111,9.58089 55.31392,-15.41442 61.54693,-48.54781 75.92078,-76.327551 z"
     id="path543"
     sodipodi:nodetypes="cccc" /></g><defs
   id="defs13" /><sodipodi:namedview
   id="namedview11"
   pagecolor="#ffffff"
   bordercolor="#000000"
   borderopacity="0.25"
   inkscape:showpageshadow="2"
   inkscape:pageopacity="0.0"
   inkscape:pagecheckerboard="0"
   inkscape:deskcolor="#d1d1d1"
   showgrid="false"
   inkscape:zoom="4.108"
   inkscape:cx="119.6446"
   inkscape:cy="125.73028"
   inkscape:window-width="2510"
   inkscape:window-height="1363"
   inkscape:window-x="0"
   inkscape:window-y="0"
   inkscape:window-maximized="1"
   inkscape:current-layer="Layer_1" />

<g
   id="g599"
   transform="matrix(0.3258407,0,0,0.2753333,126.37266,75.733685)"
   style="stroke:none"><path
     style="fill:#cccccc;stroke:none;stroke-width:3"
     d="M 290.76079,169.73075 C 251.28029,134.91396 205.60115,106.81854 150.97352,97.031519 141.18224,119.20547 122.17321,138.07912 70.820274,169.18589 49.83432,181.13879 292.90382,182.98798 290.76079,169.73075 Z"
     id="path595"
     sodipodi:nodetypes="cccc" /><path
     style="fill:#999999;stroke:none;stroke-width:3"
     d="m 150.97352,97.031519 c -52.3926,0 -111.211952,38.384241 -143.8256911,66.746661 19.3715311,4.75053 37.8336301,9.93494 67.9049111,9.58089 55.31392,-15.41442 61.54693,-48.54781 75.92078,-76.327551 z"
     id="path597"
     sodipodi:nodetypes="cccc" /></g><g
   id="g587"
   transform="matrix(0.46513445,0,0,0.33636677,57.005479,78.587291)"
   style="stroke:none"><path
     style="fill:#cccccc;stroke:none;stroke-width:3"
     d="M 290.76079,169.73075 C 251.28029,134.91396 205.60115,106.81854 150.97352,97.031519 141.18224,119.20547 122.17321,138.07912 70.820274,169.18589 49.83432,181.13879 292.90382,182.98798 290.76079,169.73075 Z"
     id="path583"
     sodipodi:nodetypes="cccc" /><path
     style="fill:#999999;stroke:none;stroke-width:3"
     d="m 150.97352,97.031519 c -52.3926,0 -111.211952,38.384241 -143.8256911,66.746661 19.3715311,4.75053 37.8336301,9.93494 67.9049111,9.58089 55.31392,-15.41442 61.54693,-48.54781 75.92078,-76.327551 z"
     id="path585"
     sodipodi:nodetypes="cccc" /></g><g
   id="g611"
   transform="matrix(0.46513445,0,0,0.33636677,109.2083,88.313736)"
   style="stroke:none"><path
     style="fill:#cccccc;stroke:none;stroke-width:3"
     d="M 290.76079,169.73075 C 251.28029,134.91396 205.60115,106.81854 150.97352,97.031519 141.18224,119.20547 122.17321,138.07912 70.820274,169.18589 49.83432,181.13879 292.90382,182.98798 290.76079,169.73075 Z"
     id="path607"
     sodipodi:nodetypes="cccc" /><path
     style="fill:#999999;stroke:none;stroke-width:3"
     d="m 150.97352,97.031519 c -52.3926,0 -111.211952,38.384241 -143.8256911,66.746661 19.3715311,4.75053 37.8336301,9.93494 67.9049111,9.58089 55.31392,-15.41442 61.54693,-48.54781 75.92078,-76.327551 z"
     id="path609"
     sodipodi:nodetypes="cccc" /></g><g
   id="g605"
   transform="matrix(0.46513445,0,0,0.40483522,3.0563494,81.045146)"
   style="stroke:none"><path
     style="fill:#cccccc;stroke:none;stroke-width:3"
     d="M 290.76079,169.73075 C 251.28029,134.91396 205.60115,106.81854 150.97352,97.031519 141.18224,119.20547 122.17321,138.07912 70.820274,169.18589 49.83432,181.13879 292.90382,182.98798 290.76079,169.73075 Z"
     id="path601"
     sodipodi:nodetypes="cccc" /><path
     style="fill:#999999;stroke:none;stroke-width:3"
     d="m 150.97352,97.031519 c -52.3926,0 -111.211952,38.384241 -143.8256911,66.746661 19.3715311,4.75053 37.8336301,9.93494 67.9049111,9.58089 55.31392,-15.41442 61.54693,-48.54781 75.92078,-76.327551 z"
     id="path603"
     sodipodi:nodetypes="cccc" /></g></svg>
