<?xml version="1.0" encoding="UTF-8" standalone="no"?>
<!-- Generator: Adobe Illustrator 19.0.0, SVG Export Plug-In . SVG Version: 6.00 Build 0)  -->

<svg
   version="1.1"
   id="Layer_1"
   x="0px"
   y="0px"
   viewBox="0 0 250 250"
   style="enable-background:new 0 0 250 250;"
   xml:space="preserve"
   sodipodi:docname="fort-castle_1.svg"
   inkscape:version="1.2.2 (b0a8486541, 2022-12-01)"
   xmlns:inkscape="http://www.inkscape.org/namespaces/inkscape"
   xmlns:sodipodi="http://sodipodi.sourceforge.net/DTD/sodipodi-0.dtd"
   xmlns="http://www.w3.org/2000/svg"
   xmlns:svg="http://www.w3.org/2000/svg"><defs
   id="defs13" /><sodipodi:namedview
   id="namedview11"
   pagecolor="#ffffff"
   bordercolor="#000000"
   borderopacity="0.25"
   inkscape:showpageshadow="2"
   inkscape:pageopacity="0.0"
   inkscape:pagecheckerboard="0"
   inkscape:deskcolor="#d1d1d1"
   showgrid="false"
   inkscape:zoom="4.556"
   inkscape:cx="125"
   inkscape:cy="125"
   inkscape:window-width="2510"
   inkscape:window-height="1363"
   inkscape:window-x="0"
   inkscape:window-y="0"
   inkscape:window-maximized="1"
   inkscape:current-layer="g4418"
   showguides="true" />

<g
   id="g2493"
   transform="translate(200.89407,6.491868)"><g
     id="g4418"
     transform="translate(-8.6200474,-5.7290582)"><path
       style="fill:#cccccc;stroke:#000000;stroke-width:7.51561;stroke-dasharray:none"
       d="m -172.79265,197.82359 c -0.50505,-1.31614 -0.68539,-12.6583 -0.40073,-25.20478 l 0.51755,-22.81176 10.54019,-0.54973 10.54018,-0.54974 V 123.13599 97.564407 h -10.99845 -10.99845 V 72.817899 48.071388 h 24.74651 24.74651 v 10.081911 10.081913 h 56.825321 56.825312 V 58.153299 48.071388 H 14.297805 39.044317 V 72.817899 97.564407 H 28.962405 18.880492 v 25.663053 25.66306 h 10.081913 10.081912 v 25.71626 25.71625 l -24.288243,-0.51147 -24.288244,-0.51148 -0.549739,-10.54018 -0.549758,-10.54019 h -56.733841 -56.733832 v 10.99845 10.99845 h -23.88751 c -17.96033,0 -24.11536,-0.59377 -24.8058,-2.39302 z"
       id="path4463"
       sodipodi:nodetypes="sscccccccccccccccccccccccccccccccccccccss" /></g></g></svg>
