<?xml version="1.0" encoding="UTF-8" standalone="no"?>
<!-- Generator: Adobe Illustrator 19.0.0, SVG Export Plug-In . SVG Version: 6.00 Build 0)  -->

<svg
   version="1.1"
   id="Layer_1"
   x="0px"
   y="0px"
   viewBox="0 0 250 250"
   style="enable-background:new 0 0 250 250;"
   xml:space="preserve"
   sodipodi:docname="fort-castle_2.svg"
   inkscape:version="1.2.2 (b0a8486541, 2022-12-01)"
   xmlns:inkscape="http://www.inkscape.org/namespaces/inkscape"
   xmlns:sodipodi="http://sodipodi.sourceforge.net/DTD/sodipodi-0.dtd"
   xmlns="http://www.w3.org/2000/svg"
   xmlns:svg="http://www.w3.org/2000/svg"><defs
   id="defs13" /><sodipodi:namedview
   id="namedview11"
   pagecolor="#ffffff"
   bordercolor="#000000"
   borderopacity="0.25"
   inkscape:showpageshadow="2"
   inkscape:pageopacity="0.0"
   inkscape:pagecheckerboard="0"
   inkscape:deskcolor="#d1d1d1"
   showgrid="false"
   inkscape:zoom="1.139"
   inkscape:cx="50.48288"
   inkscape:cy="129.49956"
   inkscape:window-width="2510"
   inkscape:window-height="1363"
   inkscape:window-x="0"
   inkscape:window-y="0"
   inkscape:window-maximized="1"
   inkscape:current-layer="g2493" />

<g
   id="g2493"
   transform="translate(200.89407,6.491868)"><path
     style="fill:#000000;stroke-width:0.431588"
     d="m -177.31023,210.72343 c -1.51947,-0.7688 -2.09825,-2.6395 -1.2728,-4.11393 0.62445,-1.11539 0.81231,-1.16534 5.16482,-1.37328 l 4.51679,-0.2158 0.10927,-66.3055 0.10926,-66.305506 -5.82781,-7.677246 -5.82781,-7.677245 V 42.269675 27.48443 l 1.13717,-0.894501 c 1.05434,-0.829341 1.70043,-0.894502 8.869,-0.894502 10.67964,0 10.69325,0.0089 10.70418,7.013312 l 0.006,3.776399 h 4.31588 4.31588 v -3.86399 c 0,-2.125193 0.21941,-4.345534 0.48757,-4.934096 0.8112,-1.780367 2.26163,-2.064434 9.77361,-1.914155 8.92874,0.178622 8.72871,0.03543 8.72871,6.247454 v 4.464787 h 4.53168 4.53168 v -4.500354 c 0,-4.378448 0.0317,-4.525257 1.16868,-5.419637 1.11589,-0.877752 1.54663,-0.913294 9.53391,-0.786605 8.19546,0.129986 8.38196,0.153357 9.18944,1.151565 0.7744,0.957302 0.82422,1.889183 0.82422,15.417483 v 14.398596 l -3.54356,4.65138 c -1.94896,2.558258 -4.57086,5.982398 -5.82645,7.609202 l -2.28288,2.957826 v 7.508193 7.508198 h 37.979777 37.979785 v -7.479511 -7.479505 l -5.591307,-7.457818 c -4.427303,-5.905217 -5.646254,-7.829783 -5.855119,-9.244542 -0.145084,-0.982702 -0.20233,-7.581697 -0.127212,-14.664434 l 0.136568,-12.877706 1.210935,-1.041022 c 1.182315,-1.016416 1.39348,-1.041021 8.935149,-1.041021 4.741705,0 8.130295,0.185022 8.775908,0.47918 1.559985,0.710779 2.010041,2.154195 2.010041,6.446541 v 3.86399 h 4.315885 4.315885 v -4.268073 c 0,-6.487288 -0.273205,-6.305844 9.494948,-6.305844 9.76815209,0 9.49494772,-0.181444 9.49494772,6.305844 v 4.268073 H 3.4777989 7.7532446 L 7.901581,32.131218 c 0.141459,-4.151989 0.2045033,-4.402202 1.3592709,-5.394857 1.1844811,-1.018194 1.3835731,-1.040934 9.1130571,-1.040934 7.340843,0 7.982883,0.06354 9.039288,0.894501 l 1.137173,0.894501 -0.01087,14.750579 -0.01079,14.75058 -5.816966,7.73554 -5.816964,7.735537 0.109267,66.281875 0.109259,66.28188 4.516801,0.2158 c 4.352505,0.20794 4.540365,0.25789 5.164809,1.37328 0.825449,1.47443 0.246684,3.34513 -1.272803,4.11393 -1.574299,0.79654 -201.257923,0.79654 -202.832223,0 z m 77.678755,-21.35941 c 0,-17.11932 0.344436,-21.71128 1.919219,-25.58686 2.49776,-6.147 7.611062,-11.10505 13.899191,-13.47716 2.137999,-0.80652 3.382331,-0.9505 8.134747,-0.94124 5.074024,0.01 5.86542,0.11909 8.274345,1.14177 8.406455,3.56884 13.677755,10.47453 14.794622,19.38172 0.248932,1.98526 0.452602,10.75206 0.452602,19.48177 v 15.8722 h 7.121214 7.121207 v -56.1065 -56.106496 h -37.979784 -37.979778 v 56.106496 56.1065 h 7.12121 7.121205 z m -20.291655,-49.72925 -0.0159,-65.169851 h -21.35219 -21.35219 v 65.169851 65.16986 h 21.36807 21.36807 l -0.0159,-65.16986 z m -34.52241,-2.47473 c -0.89914,-1.14308 -0.92366,-1.49047 -0.78442,-11.1134 0.14252,-9.84941 0.15387,-9.95411 1.34167,-12.37681 1.31626,-2.68474 3.58427,-4.97083 6.43895,-6.4903 1.53627,-0.81771 2.51884,-0.98652 5.73799,-0.98579 3.37091,7.4e-4 4.17314,0.15279 6.06963,1.15025 2.61022,1.37283 5.12166,4.03676 6.38648,6.77423 0.84064,1.81942 0.93427,2.86913 1.06401,11.92842 0.13778,9.6218 0.11312,9.97045 -0.78592,11.1134 l -0.92816,1.17997 h -11.80604 -11.80603 z m 20.27751,-11.87558 c -0.008,-5.86918 -0.13872,-7.29786 -0.80175,-8.75753 -3.0115,-6.62976 -12.23884,-5.73501 -13.88112,1.34602 -0.21596,0.93113 -0.39728,4.55762 -0.40294,8.05889 l -0.0104,6.36593 h 7.5528 7.55279 l -0.009,-7.01331 z m 75.447029,61.06976 -0.125367,-18.4504 -1.330071,-2.80656 c -1.703856,-3.59527 -4.784162,-6.67558 -8.379436,-8.37944 -2.580752,-1.22306 -3.171158,-1.33007 -7.338237,-1.33007 -4.16708,0 -4.757478,0.10701 -7.338238,1.33007 -3.595267,1.70386 -6.675573,4.78417 -8.379429,8.37944 l -1.330078,2.80656 -0.125359,18.4504 -0.125367,18.45041 h 17.298471 17.29847 z M 10.855166,139.63477 V 74.46492 h -21.35219 -21.352196 l -0.01585,65.16985 -0.01585,65.16986 h 21.368065 21.368073 v -65.16986 z m -33.697269,-2.19131 c -0.866632,-0.86663 -0.891797,-1.24472 -0.754268,-11.3292 0.141384,-10.36641 0.149661,-10.44664 1.304265,-12.63703 0.639092,-1.2124 2.149572,-3.09231 3.356644,-4.17756 2.881444,-2.59067 5.603358,-3.49888 9.6985503,-3.23606 5.2706227,0.33824 9.03149435,3.00251 11.4166679,8.08775 1.1077933,2.36184 1.1226128,2.52524 1.1226128,12.38079 0,9.21503 -0.063565,10.05773 -0.8221736,10.8976 -0.7981914,0.88372 -1.1663195,0.91026 -12.6239624,0.91026 -11.372768,0 -11.834383,-0.0326 -12.698336,-0.89655 z m 19.8864357,-12.71992 c 0,-8.42318 -0.2026498,-9.24397 -2.7647494,-11.19818 -2.8391818,-2.16555 -6.6122453,-1.9648 -9.3369203,0.49678 -0.980268,0.88561 -1.87619,2.19161 -2.129781,3.10463 -0.240759,0.86678 -0.438824,4.63484 -0.440149,8.37348 l -0.0022,6.79752 h 7.337009 7.3370024 z M -113.54505,61.521281 l 4.85022,-6.469817 V 43.378936 31.706409 l -4.20799,0.123525 -4.20799,0.123526 -0.124,4.515497 c -0.17654,6.428059 0.46104,6.058419 -10.44991,6.058419 -10.91095,0 -10.27338,0.36964 -10.44991,-6.058419 l -0.124,-4.515497 h -3.23692 -3.23692 l -0.21579,4.675824 c -0.18372,3.980966 -0.34029,4.766647 -1.05356,5.28696 -0.6569,0.479189 -2.7157,0.611132 -9.53596,0.611132 -10.77341,0 -10.27314,0.300561 -10.4897,-6.302184 l -0.14718,-4.487527 h -4.0608 -4.06081 v 11.576559 11.576559 l 4.85537,6.533015 4.85537,6.533019 23.09513,0.01713 23.09513,0.01713 4.85022,-6.469814 z m 131.197731,-0.09748 4.855371,-6.533015 V 43.298596 31.706409 l -4.207987,0.123525 -4.207988,0.123526 -0.215794,4.675824 c -0.183729,3.980966 -0.340298,4.766647 -1.053562,5.28696 -0.656896,0.479189 -2.715706,0.611132 -9.535953,0.611132 -10.773415,0 -10.273147,0.300561 -10.4897008,-6.302184 L -7.350123,31.737665 h -3.197626 -3.197627 v 4.450298 c 0,6.60585 0.443797,6.339413 -10.559406,6.339413 h -8.799422 l -0.894507,-1.137175 c -0.767644,-0.975904 -0.894499,-1.740984 -0.894499,-5.394856 v -4.25768 h -4.10009 -4.100091 v 11.576559 11.576559 l 4.855372,6.533015 4.855371,6.533019 h 23.089979 23.089979 z"
     id="path3371" /></g></svg>
