<?xml version="1.0" encoding="UTF-8" standalone="no"?>
<!-- Generator: Adobe Illustrator 19.0.0, SVG Export Plug-In . SVG Version: 6.00 Build 0)  -->

<svg
   version="1.1"
   id="Layer_1"
   x="0px"
   y="0px"
   viewBox="0 0 250 250"
   style="enable-background:new 0 0 250 250;"
   xml:space="preserve"
   sodipodi:docname="fuel-zone.svg"
   inkscape:version="1.2.2 (b0a8486541, 2022-12-01)"
   xmlns:inkscape="http://www.inkscape.org/namespaces/inkscape"
   xmlns:sodipodi="http://sodipodi.sourceforge.net/DTD/sodipodi-0.dtd"
   xmlns="http://www.w3.org/2000/svg"
   xmlns:svg="http://www.w3.org/2000/svg"><defs
   id="defs129511" /><sodipodi:namedview
   id="namedview129509"
   pagecolor="#ffffff"
   bordercolor="#000000"
   borderopacity="0.25"
   inkscape:showpageshadow="2"
   inkscape:pageopacity="0.0"
   inkscape:pagecheckerboard="0"
   inkscape:deskcolor="#d1d1d1"
   showgrid="false"
   inkscape:zoom="2.9047947"
   inkscape:cx="100.69559"
   inkscape:cy="132.36736"
   inkscape:window-width="1870"
   inkscape:window-height="1131"
   inkscape:window-x="1490"
   inkscape:window-y="851"
   inkscape:window-maximized="1"
   inkscape:current-layer="XMLID_13_" />
<style
   type="text/css"
   id="style129501">
	.st0{fill:#FFFFFF;}
	.st1{fill:#010101;}
</style>
<g
   id="XMLID_13_">
	
	<ellipse
   style="fill:#3d93d0;fill-opacity:1;stroke:#000000;stroke-width:17.6412;stroke-dasharray:none"
   id="path17628"
   cx="124.99999"
   cy="124.99999"
   rx="116.17943"
   ry="116.17941" />
	<polygon
   id="XMLID_7_"
   class="st1"
   points="163.1,104.9 163.1,104.2 163.1,103.6 162.9,102.9 162.9,102.5 162.7,101.8 162.7,101.2 162.5,100.7 162.2,99.7 162,98.8 161.8,97.7 161.6,96.6 161.1,95.8 160.9,94.9 160.5,93.8 160,93 159.8,92.5 159.6,91.9 159.4,91.5 158.9,91 158.7,90.4 158.3,89.9 158,89.5 157.6,89.1 156.7,88.4 156,87.8 154.9,87.3 153.8,87.1 153.4,87.1 153,86.9 152.7,86.9 152.7,87.1 152.7,87.8 152.7,90.4 152.7,91 152.5,91.7 152.5,92.3 152.7,93.2 153,93.8 153.2,94.5 153.4,95.1 153.8,95.8 156.3,101.6 156.5,102.3 156.7,102.9 156.9,103.3 157.2,104 157.2,104.4 157.4,104.9 157.4,105.3 157.4,105.7 158,109 159.4,116.7 163.8,142.7 165.1,150.3 165.3,151.3 165.6,152.4 165.6,153.5 165.3,154.6 165.1,155 164.9,155.5 164.7,155.9 164.4,156.3 164,156.8 163.6,157.2 162.9,157.6 162.2,157.8 161.6,158 160.9,158.3 160,158.3 159.4,158.3 158.9,158 158.5,157.8 158.3,157.8 157.8,157.6 157.6,157.6 157.6,157.4 157.4,157.4 157.2,157.4 156.9,157.2 156.9,157 156.5,156.8 156.3,156.5 156.3,156.3 156,156.1 155.6,155.7 155.4,155.2 155.2,154.8 154.9,154.4 154.9,153.1 154.9,152 154.9,150.7 154.9,149.4 154.9,148.5 154.9,147.7 154.9,146.6 155.2,145.7 155.2,144.6 155.2,143.8 155.2,142.7 155.2,141.8 155.2,141 155.2,139.9 155.2,139 155.4,137.9 155.4,137.1 155.4,136 155.4,135.1 155.4,134.3 155.4,133.2 155.4,132.3 155.4,131.5 155.4,130.6 155.2,129.9 155.2,129.3 154.9,128.6 154.9,128 154.7,127.6 154.5,127.1 154.5,126.7 154.3,126.3 154.3,126 154.1,125.6 153.8,125.4 153.6,125.2 153.6,125 153.4,124.8 153.2,124.5 153,124.3 152.5,123.9 152.1,123.5 151.4,123 150.7,122.6 150.1,122.4 149.4,121.9 148.8,121.7 148.1,121.5 147.4,121.5 146.5,121.3 145.9,121.3 145.2,121.3 144.3,121.3 144.1,121.3 144.1,120.9 144.1,119.8 144.1,119.3 144.3,119.3 145.2,119.3 149,119.3 149.9,119.3 150.3,119.3 150.3,118.7 150.3,117.2 150.3,110.9 150.3,85.6 150.3,78.7 150.3,77 150.3,76.7 150.3,76.3 149.6,76.3 147.9,76.3 140.6,76.3 112.1,76.3 92.2,76.3 87.1,76.3 85.8,76.3 85.3,76.3 85.3,76.7 85.3,77.6 85.3,81.3 85.3,96 85.3,113.7 85.3,118 85.3,119.1 85.3,119.6 85.6,119.6 86.7,119.6 90.2,119.6 91.1,119.6 91.3,119.6 91.3,120 91.3,121.3 91.3,126.3 91.3,146.6 91.3,164.8 91.3,169.3 91.3,170.4 91.3,170.6 91.7,170.8 92,170.6 93.9,170.6 101.7,170.6 132.6,170.6 141.2,170.6 143.2,170.6 143.7,170.8 143.9,170.6 143.9,170.2 143.9,168.6 143.9,162.4 143.9,137.3 143.9,129.7 143.9,128.2 143.9,127.8 143.9,127.6 144.3,127.6 144.8,127.6 145.4,127.6 146.1,127.6 147,127.6 147.7,127.8 148.1,128.4 148.5,128.9 148.8,129.5 148.8,130.2 149,130.8 149,131.2 149,131.9 149,132.3 148.8,135.3 148.5,149.2 148.5,150.3 148.5,151.3 148.5,152.4 148.5,153.5 148.5,154.4 148.8,155.2 149,156.1 149.2,156.8 149.4,157.6 149.9,158.5 150.3,159.1 150.7,160 151.2,160.2 151.4,160.6 151.9,161.1 152.3,161.5 152.5,161.7 153,162.2 153.4,162.4 153.8,162.8 154.7,163.2 155.4,163.7 156.3,163.9 157.2,164.3 158,164.3 158.7,164.5 159.4,164.5 160.2,164.5 160.9,164.5 161.6,164.5 162.2,164.5 162.9,164.3 163.3,164.1 164,163.9 164.7,163.7 165.1,163.5 165.8,163.2 166.2,163 166.7,162.6 167.3,162.4 167.8,161.9 168.2,161.5 168.6,161.1 168.9,160.6 169.1,160.4 169.3,160.4 169.5,160.2 169.8,160 170.2,159.1 170.6,158.3 171.1,157.4 171.3,156.5 171.7,155.5 171.7,154.6 172,153.7 172,152.9 165.6,117.2 163.3,105.3 "
   transform="matrix(1.4285711,0,0,1.4285711,-53.571392,-53.571392)" />
	<polygon
   id="XMLID_2_"
   class="st0"
   points="133.7,83.4 134.6,83.4 135.3,83.7 136.2,83.9 136.6,84.1 136.8,84.5 137,85 137.3,85.4 137.3,85.6 137.3,85.8 137.5,86.3 137.5,86.5 137.5,86.9 137.5,87.3 137.5,89.9 137.5,105.3 137.5,105.7 137.5,106.4 137.5,106.8 137.5,107.5 137.3,108.1 137.3,108.5 137,109.2 136.6,109.6 136.4,109.6 136.2,109.8 135.9,110 135.7,110.3 135.3,110.3 135.1,110.3 134.8,110.5 134.4,110.5 134,110.5 131.7,110.5 125.3,110.5 104.1,110.5 97.5,110.5 96.4,110.5 95.7,110.3 94.8,110 94.2,109.6 93.9,109.2 93.7,109 93.5,108.5 93.5,108.1 93.5,107.9 93.5,107.7 93.3,107.2 93.3,106.8 93.3,106.6 93.3,106.2 93.3,103.3 93.3,88.9 93.3,87.1 93.3,86.7 93.3,86.3 93.5,86 93.5,85.6 93.5,85.4 93.7,85 93.9,84.7 94.2,84.5 94.2,84.3 94.4,84.1 94.6,83.9 95.3,83.7 95.7,83.4 96.2,83.4 125.3,83.4 132.8,83.4 "
   style="fill:#3d93d0"
   transform="matrix(1.4285711,0,0,1.4285711,-53.571392,-53.571392)" />
</g>
</svg>
