<?xml version="1.0" encoding="UTF-8" standalone="no"?>
<!-- Generator: Adobe Illustrator 19.0.0, SVG Export Plug-In . SVG Version: 6.00 Build 0)  -->

<svg
   version="1.1"
   id="Layer_1"
   x="0px"
   y="0px"
   viewBox="0 0 250 250"
   style="enable-background:new 0 0 250 250;"
   xml:space="preserve"
   inkscape:version="1.2.2 (b0a8486541, 2022-12-01)"
   sodipodi:docname="hole.svg"
   xmlns:inkscape="http://www.inkscape.org/namespaces/inkscape"
   xmlns:sodipodi="http://sodipodi.sourceforge.net/DTD/sodipodi-0.dtd"
   xmlns="http://www.w3.org/2000/svg"
   xmlns:svg="http://www.w3.org/2000/svg"
   xmlns:rdf="http://www.w3.org/1999/02/22-rdf-syntax-ns#"
   xmlns:cc="http://creativecommons.org/ns#"
   xmlns:dc="http://purl.org/dc/elements/1.1/"><metadata
     id="metadata4205"><rdf:RDF><cc:Work
         rdf:about=""><dc:format>image/svg+xml</dc:format><dc:type
           rdf:resource="http://purl.org/dc/dcmitype/StillImage" /></cc:Work></rdf:RDF></metadata><defs
     id="defs4203" /><sodipodi:namedview
     pagecolor="#ffffff"
     bordercolor="#666666"
     borderopacity="1"
     objecttolerance="10"
     gridtolerance="10"
     guidetolerance="10"
     inkscape:pageopacity="0"
     inkscape:pageshadow="2"
     inkscape:window-width="1870"
     inkscape:window-height="1131"
     id="namedview4201"
     showgrid="false"
     inkscape:zoom="2.4228572"
     inkscape:cx="13.413915"
     inkscape:cy="164.88797"
     inkscape:current-layer="Layer_1"
     inkscape:window-x="1490"
     inkscape:window-y="851"
     inkscape:window-maximized="1"
     inkscape:showpageshadow="2"
     inkscape:pagecheckerboard="0"
     inkscape:deskcolor="#d1d1d1" /><style
     type="text/css"
     id="style4196">
	.st0{fill-rule:evenodd;clip-rule:evenodd;}
</style><path
     style="clip-rule:evenodd;fill-rule:evenodd;stroke-width:1.42858"
     inkscape:connector-curvature="0"
     d="m 249.85763,118.70749 -0.42711,-6.2925 -0.71185,-6.29253 -0.99657,-6.12244 -1.42371,-6.122457 -1.70842,-5.952386 -1.99317,-5.782317 -2.2779,-5.61224 -2.56265,-5.442176 -2.84738,-5.442176 -2.98975,-5.27211 -3.27448,-5.102042 -3.41686,-4.93197 -3.70159,-4.761905 -3.98634,-4.591836 -4.1287,-4.421769 -4.41343,-4.081631 -4.55581,-3.911568 -4.69818,-3.741494 -4.98292,-3.401363 -4.98291,-3.231292 -5.26765,-3.061226 -5.41003,-2.721087 -5.55238,-2.5510196 -5.69478,-2.2108857 -5.83712,-1.8707471 -5.9795,-1.7006799 -5.9795,-1.3605456 L 143.93508,1.5306213 137.81321,0.68028283 131.4066,0.17007714 125,8.5714266e-6 118.5934,0.17007714 l -6.40662,0.51020569 -6.12187,0.85033847 -6.121856,1.1904758 -5.9795,1.3605456 -5.979499,1.7006799 -5.837131,1.8707471 -5.69476,2.2108857 -5.552391,2.5510196 -5.410022,2.721087 -5.267654,3.061226 -4.982915,3.231292 -4.982917,3.401363 -4.698176,3.741494 -4.555809,3.911568 -4.41344,4.081631 -4.128701,4.421769 -3.986333,4.591836 -3.701594,4.761905 -3.416857,4.93197 -3.274487,5.102042 -2.98975,5.27211 -2.84738,5.442176 -2.5626426,5.442176 -2.2779042,5.61224 -1.9931656,5.782317 -1.7084286,5.952386 -1.4236899,6.122457 -0.9965829,6.12244 -0.71184564,6.29253 -0.42710714,6.2925 L 0,125.00002 l 0.14237142,6.29251 0.42710714,6.29252 0.71184564,6.29251 0.9965829,6.12246 1.4236899,6.12244 1.7084286,5.95239 1.9931656,5.78231 2.2779042,5.61223 2.5626426,5.44219 2.84738,5.44215 2.98975,5.27212 3.274487,5.10206 3.416857,4.93195 3.701594,4.76192 3.986333,4.59183 4.128701,4.42178 4.41344,4.08165 4.555809,3.91155 4.698176,3.74149 4.982917,3.40137 4.982915,3.23128 5.267654,3.06122 5.410022,2.7211 5.552391,2.55101 5.69476,2.21088 5.837131,1.87074 5.979499,1.70071 5.9795,1.36053 6.121856,1.19047 6.12187,0.85034 6.40662,0.51021 L 125,250 l 6.4066,-0.17006 6.40661,-0.51021 6.12187,-0.85034 6.12186,-1.19047 5.9795,-1.36053 5.9795,-1.70071 5.83712,-1.87074 5.69478,-2.21088 5.55238,-2.55101 5.41003,-2.7211 5.26765,-3.06122 4.98291,-3.23128 4.98292,-3.40137 4.69818,-3.74149 4.55581,-3.91155 4.41343,-4.08165 4.1287,-4.42178 3.98634,-4.59183 3.70159,-4.76192 3.41686,-4.93195 3.27448,-5.10206 2.98975,-5.27212 2.84738,-5.44215 2.56265,-5.44219 2.2779,-5.61223 1.99317,-5.78231 1.70842,-5.95239 1.42371,-6.12244 0.99657,-6.12246 0.71185,-6.29251 0.42711,-6.29252 0.14242,-6.29251 z m -23.63326,11.56464 -0.42711,5.10203 -0.71186,5.10204 -0.8542,5.10206 -1.13895,4.93194 -1.42368,4.76192 -1.70844,4.7619 -1.8508,4.59184 -1.99316,4.42175 -2.27791,4.42178 -2.42027,4.25173 -2.56264,4.08161 -2.84738,3.91156 -2.98975,3.74151 -3.13212,3.74148 -3.41686,3.40138 -3.41686,3.40137 -3.70159,3.23129 -3.84397,3.06121 -3.98632,2.72108 -3.98633,2.7211 -4.27107,2.38096 -4.41345,2.21087 -4.41344,2.0408 -4.69817,1.87077 -4.69819,1.53062 -4.84054,1.5306 -4.98291,1.0204 -4.98292,1.02041 -5.12528,0.5102 -5.12529,0.34014 -5.12529,0.17006 -5.26765,-0.17006 -5.12529,-0.34014 -5.12527,-0.5102 -4.98293,-1.02041 -4.982912,-1.0204 -4.840543,-1.5306 -4.698172,-1.53062 -4.698178,-1.87077 -4.41344,-2.0408 -4.41344,-2.21087 -4.27107,-2.38096 -3.986333,-2.7211 -3.986333,-2.72108 -3.843962,-3.06121 -3.701594,-3.23129 -3.416858,-3.40137 -3.416855,-3.40138 -3.132119,-3.74148 -2.98975,-3.74151 -2.84738,-3.91156 -2.562642,-4.08161 -2.420273,-4.25173 -2.277905,-4.42178 -1.993167,-4.42175 -1.850796,-4.59184 -1.708427,-4.7619 -1.423692,-4.76192 -1.138952,-4.93194 -0.854214,-5.10206 -0.711846,-5.10204 -0.427105,-5.10203 -0.142371,-5.27211 0.142371,-5.27211 0.427105,-5.10205 0.711846,-5.10204 0.854214,-5.10203 1.138952,-4.931999 1.423692,-4.761886 1.708427,-4.7619 1.850796,-4.591844 1.993167,-4.421775 2.277905,-4.421766 2.420273,-4.251699 2.562642,-4.081634 2.84738,-3.911565 2.98975,-3.741496 3.132119,-3.741497 3.416855,-3.40136 3.416858,-3.401361 3.701594,-3.231293 3.843962,-3.061223 3.986333,-2.721087 3.986333,-2.721089 4.27107,-2.380953 4.41344,-2.210884 4.41344,-2.040817 4.698178,-1.870747 4.698172,-1.530613 4.840543,-1.530612 4.982912,-1.020408 4.98293,-1.020408 5.41001,-0.340137 5.12529,-0.340136 5.26766,-0.170067 5.12528,0.170067 5.12529,0.340136 5.12528,0.510206 4.98292,1.020407 4.98291,1.020407 4.84054,1.530612 4.69819,1.530613 4.69817,1.870748 4.41344,2.040816 4.41345,2.210884 4.27106,2.380953 3.98634,2.721089 3.98633,2.721088 3.84395,3.061225 3.7016,3.231291 3.41686,3.40136 3.41686,3.401364 3.13211,3.741494 2.98976,3.741497 2.84737,3.911564 2.56264,4.081636 2.42027,4.251704 2.27792,4.421768 1.99315,4.421765 1.8508,4.591835 1.70844,4.761885 1.42369,4.761943 1.13894,4.931939 0.85422,5.10208 0.71184,5.10201 0.42712,5.10204 0.14242,5.27211 -0.42711,5.10206 z"
     class="st0"
     id="XMLID_13_" /><path
     style="fill:none;fill-rule:evenodd;stroke:#000000;stroke-width:14.4211;stroke-linecap:butt;stroke-linejoin:miter;stroke-miterlimit:4;stroke-dasharray:none;stroke-opacity:1"
     d="M 45.788936,207.5148 200.4397,52.458695"
     id="path5243"
     inkscape:connector-curvature="0" /><path
     style="fill:none;fill-rule:evenodd;stroke:#000000;stroke-width:14.0842;stroke-linecap:butt;stroke-linejoin:miter;stroke-miterlimit:4;stroke-dasharray:none;stroke-opacity:1"
     d="M 45.080137,49.436826 202.71158,202.89384"
     id="path5245"
     inkscape:connector-curvature="0" /></svg>
