<?xml version="1.0" encoding="UTF-8" standalone="no"?>
<!-- Generator: Adobe Illustrator 19.0.0, SVG Export Plug-In . SVG Version: 6.00 Build 0)  -->

<svg
   version="1.1"
   id="Layer_1"
   x="0px"
   y="0px"
   viewBox="0 0 250 250"
   style="enable-background:new 0 0 250 250;"
   xml:space="preserve"
   sodipodi:docname="lake.svg"
   inkscape:version="1.2.2 (b0a8486541, 2022-12-01)"
   xmlns:inkscape="http://www.inkscape.org/namespaces/inkscape"
   xmlns:sodipodi="http://sodipodi.sourceforge.net/DTD/sodipodi-0.dtd"
   xmlns="http://www.w3.org/2000/svg"
   xmlns:svg="http://www.w3.org/2000/svg"><defs
   id="defs13" /><sodipodi:namedview
   id="namedview11"
   pagecolor="#ffffff"
   bordercolor="#000000"
   borderopacity="0.25"
   inkscape:showpageshadow="2"
   inkscape:pageopacity="0.0"
   inkscape:pagecheckerboard="0"
   inkscape:deskcolor="#d1d1d1"
   showgrid="false"
   inkscape:zoom="4.108"
   inkscape:cx="167.35638"
   inkscape:cy="138.63194"
   inkscape:window-width="2510"
   inkscape:window-height="1363"
   inkscape:window-x="0"
   inkscape:window-y="0"
   inkscape:window-maximized="1"
   inkscape:current-layer="g1755" />

<g
   id="g1755"
   transform="translate(5.1964457,-7.5081918)"><path
     style="fill:#80b3ff;stroke:#000000;stroke-width:3"
     d="m 29.528896,96.236581 c 2.70913,-0.43614 5.4234,-0.68967 8.14816,-0.97657 0.72,-0.0758 1.43388,-0.20554 2.15471,-0.2729 0.25405,-0.0237 0.54434,0.1273 0.76547,0 2.3428,-1.34873 1.37065,-1.38681 2.70242,-1.95883 0.73502,-0.3157 2.75759,-0.64663 3.16456,-1.46057 0.35746,-0.71492 0.0695,-1.71148 0.48686,-2.42952 0.21324,-0.36688 0.4355,-0.75279 0.77022,-1.01364 0.60617,-0.47242 1.36205,-0.71828 2.00066,-1.14582 0.016,-0.0107 2.07245,-1.84589 2.89261,-2.12809 0.43865,-0.15094 0.91419,0.15842 1.37023,0.24342 0.50104,0.0934 1.03556,0.061 1.50811,0.25199 1.38289,0.55886 2.58876,1.49267 3.94999,2.10241 1.40046,0.62733 6.19335,0.81749 7.4949,0.49447 0.3522,-0.0874 0.63679,-0.35209 0.97371,-0.48686 1.13517,-0.45407 2.63483,-0.61468 3.82352,-1.08116 0.51304,-0.20133 0.96004,-0.55253 1.47768,-0.74169 0.38891,-0.14212 0.83037,-0.0981 1.21809,-0.24343 0.27395,-0.10268 0.47957,-0.33607 0.73029,-0.48685 0.73486,-0.44198 2.45016,-0.88657 3.17121,-0.96896 0.85814,-0.0981 1.72922,0.0553 2.59117,0 2.56732,-0.16458 5.17646,-0.64336 7.768758,-0.36514 0.384931,0.0413 0.740543,0.25535 1.126803,0.28146 2.648833,0.17909 5.309761,0 7.964642,0 1.752805,0 3.512081,0.15045 5.258411,0 0.66251,-0.0571 1.39144,-0.46989 2.06248,-0.54391 1.35819,-0.1498 2.73464,0.0698 4.09928,0 0.98746,-0.0505 1.96581,-0.2216 2.95251,-0.28526 0.89356,-0.0576 1.79775,0.11101 2.68626,0 0.25491,-0.0319 0.47947,-0.19231 0.73123,-0.24343 3.02162,-0.61356 6.15028,-1.08348 9.1989,-1.52237 4.33861,-0.62461 8.93123,-0.88968 13.13938,-2.20416 2.43316,-0.76004 1.22251,-0.62137 2.92588,-1.32174 3.91503,-1.60971 8.46708,-0.0922 12.69912,0 7.27908,0.15856 2.43075,0.16412 6.45843,0.72268 0.53522,0.0742 5.62771,0.54534 5.97919,0.59906 0.79633,0.12172 1.75305,1.16972 2.44473,1.46532 1.4638,0.62556 7.25833,1.93811 8.19856,2.74141 0.49771,0.42522 0.78203,1.0793 0.97466,1.70494 0.5726,1.85969 -1.21684,5.4042 0.24153,6.86256 0.71492,0.71493 2.32845,0.67033 2.92113,1.46057 0.15395,0.20527 0.16228,0.48685 0.24343,0.73028 0.0811,0.24343 0.20124,0.47718 0.24342,0.73028 0.04,0.24012 -0.12524,0.52155 0,0.73029 0.0634,0.10564 1.59537,0.92715 1.70399,0.97371 2.36601,1.014 5.04614,0.6036 7.25243,2.12713 1.47649,1.01957 0.54231,1.735429 1.21714,2.916379 0.62551,1.09463 1.48894,2.03567 2.27072,3.02477 0.86815,1.09838 1.70429,2.23318 2.70052,3.21686 1.39254,1.37499 3.3926,2.53075 4.06886,4.52147 0.10439,0.30732 -0.0323,0.65075 0,0.97371 0.10527,1.0527 0.2574,3.28087 0.74359,4.15729 1.00472,1.8111 3.51894,2.66186 5.19756,3.68659 0.94268,0.57547 1.9281,1.09576 2.79276,1.78292 0.18371,0.146 0.29948,0.37262 0.49826,0.49731 0.46567,0.29211 0.98259,0.4932 1.47388,0.73979 0.5493,0.3661 1.09304,0.74066 1.64789,1.09828 0.97391,0.62773 3.67291,1.91391 4.52718,2.76614 1.86998,1.8655 2.17574,7.20961 2.80988,9.75896 0.0879,0.35356 0.7617,2.31217 0.98607,2.71669 0.58936,1.0626 1.01767,0.88144 1.21999,2.19751 0.45289,2.94598 -1.82583,4.5974 -2.97438,7.0185 -0.73549,1.55038 -1.42258,3.13075 -1.95788,4.7611 -0.51915,1.58114 -0.42092,2.16512 -1.34931,3.56583 -1.49303,2.25262 -1.37454,1.01186 -2.41716,3.45458 -1.26734,2.96922 -0.74342,2.51342 -1.19622,5.79472 -0.32987,2.39052 -1.11986,7.0488 -2.00257,9.20175 -1.6633,4.05681 -11.28932,-5.53374 -11.29085,-5.53323 -4.00081,1.34723 -8.13099,2.67641 -12.07248,4.21149 -2.25595,0.87862 -4.48783,1.81785 -6.72849,2.73476 -0.44631,0.18263 -0.83762,0.49129 -1.29416,0.6466 -0.57574,0.19586 -4.25427,1.07005 -5.48472,1.75154 -3.05369,1.69129 -2.60939,1.97112 -5.25366,2.92873 -1.9515,0.70673 -4.06057,0.99779 -6.02863,1.64789 -1.54382,0.50997 -3.0765,1.23084 -4.71926,1.48814 -1.20135,0.18817 -2.4751,-0.15227 -3.68184,0 -3.3181,0.4187 -6.54438,1.36715 -9.87308,1.66976 -1.49417,0.13584 -0.50812,-0.007 -1.95122,-0.48875 -1.05845,-0.35312 -2.36583,-0.30969 -3.4232,-0.24533 -0.86343,0.0525 -6.80037,0.92421 -7.22866,0.5325 -0.6606,-0.6042 -0.99767,-1.49671 -1.6108,-2.14901 -1.2319,-1.3106 -3.9292,-3.13925 -5.71294,-3.61148 -2.51406,-0.66557 -5.53977,-0.26149 -8.11393,-0.26149 -3.86909,0 -7.62593,0.3856 -11.49244,0.58099 -2.1966,0.11101 -4.39881,0 -6.598215,0 -1.024741,0 -2.052001,-0.0718 -3.074223,0 -1.627963,0.11437 -3.37866,0.9306 -5.035905,0.59811 -0.863197,-0.17318 -1.744521,-0.35891 -2.531261,-0.75405 -0.51761,-0.25997 -0.87289,-0.76903 -1.36263,-1.07831 -0.80377,-0.50761 -1.7479,-0.78963 -2.68055,-0.97371 -1.80101,-0.35548 -3.43843,0.77988 -5.05968,0.50967 -0.53691,-0.0895 -0.95972,-0.5171 -1.46056,-0.73028 -0.88379,-0.37617 -1.76064,-0.77824 -2.67676,-1.0669 -0.48044,-0.15138 -1.00007,-0.13337 -1.49099,-0.24628 -2.02367,-0.46542 -3.64427,-1.17965 -5.41816,-2.21557 -0.97523,-0.56951 -1.87069,-1.27085 -2.85647,-1.8219 -0.19921,-0.11135 -1.03484,-0.27466 -1.26468,-0.50397 -0.6559,-0.65438 -1.61088,-1.88509 -1.22094,-2.92493 1.35538,-3.61436 6.77207,-2.49243 9.68194,-2.96297 0.18248,-0.0295 0.31337,-0.2212 0.49637,-0.24723 0.40983,-0.0583 0.831,0.0505 1.24186,0 1.89833,-0.23342 6.59872,-1.34294 8.34309,-2.34014 1.6969,-0.97006 2.41902,-3.17385 3.73509,-4.4939 0.54912,-0.55077 1.1967,-0.99423 1.77626,-1.51286 0.25905,-0.23181 0.43625,-0.56416 0.73789,-0.73694 0.29031,-0.16628 0.666204,-0.11164 0.973712,-0.24343 1.65052,-0.70736 3.223354,-1.75197 4.90088,-2.44663 1.11096,-0.46005 1.947936,-0.71723 3.004807,-1.24567 0.229626,-0.11481 3.133063,-1.13622 1.508109,-1.63267 -3.548695,-1.08419 -7.122402,-2.09465 -10.727928,-2.97153 -1.51983,-0.36963 -3.07816,-0.56675 -4.62987,-0.76356 -0.45972,-0.0583 -0.9268,0 -1.3902,0 -0.16229,0 -0.35183,-0.09 -0.48686,0 -0.53918,0.35945 0.12945,1.54665 -0.47164,1.70399 -1.80019,0.47122 -2.8924,-2.78395 -4.10974,0.97371 -0.0815,0.25158 -0.22503,3.74974 -0.49921,3.77883 -2.27611,0.24152 -4.6081,-0.0856 -6.86447,-0.29382 -1.36662,-0.12613 -2.66364,0.10941 -4.00799,0.24342 -1.63324,0.16282 -3.40744,0 -5.04161,0 -1.06215,0 -2.12625,0.0646 -3.18643,0 -0.50765,-0.0309 -0.9549,-0.34248 -1.47293,-0.25483 -1.21561,0.20568 -2.67618,0.31674 -3.67898,0.98131 -0.28591,0.18948 -0.65871,1.16101 -0.96516,1.20858 -2.61183,0.40548 -8.91023,-1.61934 -9.88638,-1.88086 -0.40228,-0.10777 -0.74345,-0.37561 -1.1173,-0.55912 -0.89116,-0.43743 -1.8107,-0.82012 -2.6777,-1.30367 -1.39593,-0.77854 -2.468,-2.03856 -3.86536,-2.85456 -1.54196,-0.90045 -2.81388,-1.64354 -4.55381,-2.24886 -1.20412,-0.41891 -2.48163,-0.60079 -3.68849,-1.01174 -1.11799,-0.38069 -1.75726,-2.1243 -2.24505,-2.95917 -0.27264,-0.46663 -0.67499,-1.34208 -1.21714,-1.70399 -0.0672,-0.0449 -0.17851,0.0494 -0.24247,0 -0.17308,-0.1337 0.054,-0.44417 0,-0.65611 -0.13437,-0.52748 -0.41388,-1.01765 -0.73029,-1.46057 -0.48438,-0.67805 -1.49477,-1.09058 -1.71065,-1.95407 -0.11808,-0.47232 0.0604,-0.97747 0,-1.46057 -0.083,-0.66395 -0.27526,-1.31263 -0.48685,-1.94742 -0.14552,-0.43655 -1.23524,-1.18788 -0.97371,-1.68117 0.23983,-0.45235 1.0082,-0.19796 1.51952,-0.22441 3.04592,-0.15757 6.0091,-0.26529 9.07433,-0.26529 0.72953,0 3.56711,0.10684 4.39501,-0.2672 0.39289,-0.17752 0.21337,-6.50045 0.25103,-7.2144 0.0865,-1.63987 0.40922,-3.85015 0.25389,-5.5665 -0.0168,-0.18578 -0.1995,-0.32088 -0.25104,-0.50016 -0.29106,-1.01256 -0.24343,-1.06722 -0.24343,-1.95028 0,-1.1226 0.63018,-2.02466 0.48686,-3.16455 -0.15957,-1.26915 -0.55797,-1.35893 -1.22189,-2.68626 -0.50261,-1.00483 -0.0454,-0.51589 -0.24343,-1.704 -0.14694,-0.88162 -0.20861,-0.17379 -0.48685,-0.73028 -0.36215,-0.7243 -1.01671,-1.87598 -1.21714,-2.6777 -0.14939,-0.59754 0.0644,-0.84722 -0.24343,-1.46056 -0.25478,-0.50758 0.0931,-2.9037 0.24343,-3.35474 0.16873,-0.50621 -0.10509,-1.17856 0,-1.70399 0.33582,-1.679109 0.4894,-3.015449 -0.0238,-4.478679 z"
     id="path1123" /></g></svg>
