<?xml version="1.0" encoding="UTF-8" standalone="no"?>
<!-- Generator: Adobe Illustrator 19.0.0, SVG Export Plug-In . SVG Version: 6.00 Build 0)  -->

<svg
   version="1.1"
   id="Layer_1"
   x="0px"
   y="0px"
   viewBox="0 0 250 250"
   style="enable-background:new 0 0 250 250;"
   xml:space="preserve"
   sodipodi:docname="monument.svg"
   inkscape:version="1.2.2 (b0a8486541, 2022-12-01)"
   xmlns:inkscape="http://www.inkscape.org/namespaces/inkscape"
   xmlns:sodipodi="http://sodipodi.sourceforge.net/DTD/sodipodi-0.dtd"
   xmlns="http://www.w3.org/2000/svg"
   xmlns:svg="http://www.w3.org/2000/svg"><defs
   id="defs13" /><sodipodi:namedview
   id="namedview11"
   pagecolor="#ffffff"
   bordercolor="#000000"
   borderopacity="0.25"
   inkscape:showpageshadow="2"
   inkscape:pageopacity="0.0"
   inkscape:pagecheckerboard="0"
   inkscape:deskcolor="#d1d1d1"
   showgrid="false"
   inkscape:zoom="1.4523973"
   inkscape:cx="-229.62036"
   inkscape:cy="224.80074"
   inkscape:window-width="2510"
   inkscape:window-height="1363"
   inkscape:window-x="0"
   inkscape:window-y="0"
   inkscape:window-maximized="1"
   inkscape:current-layer="g1755" />

<g
   id="g1755"
   transform="translate(5.1964457,-7.5081918)"><path
     style="fill:#000000;stroke-width:0.434205"
     d="m 30.383385,233.39816 v -10.20381 h -2.171024 -2.171023 v -7.38148 -7.38148 h 2.341865 2.341862 l 2.709689,-7.81569 2.709684,-7.81568 h 3.577621 3.57762 l 5.591032,-5.76293 c 6.681985,-6.88742 9.170012,-10.12841 15.342253,-19.98533 4.768577,-7.61531 14.347136,-24.05703 14.347136,-24.62705 0,-0.17312 -0.953292,-0.44122 -2.118428,-0.59578 -2.681635,-0.35573 -6.94275,-1.80269 -12.731417,-4.32326 -9.163012,-3.98985 -13.310583,-4.92461 -15.891695,-3.58161 -0.812788,0.4229 -2.484142,2.88781 -5.447875,8.03449 -4.038303,7.01275 -4.248975,7.50016 -3.799291,8.79012 1.021879,2.93137 0.372986,6.47868 -1.595915,8.7244 -0.883741,1.00799 -5.282234,3.00071 -5.849527,2.65011 -0.700168,-0.43273 -0.07243,-8.1628 0.964347,-11.87522 0.500204,-1.79109 2.083088,-5.66226 3.517518,-8.60258 2.599996,-5.32953 9.189816,-15.58562 10.969404,-17.07227 1.463617,-1.22269 3.11574,-1.33291 9.184475,-0.61274 6.552483,0.77756 10.356908,0.85194 11.527676,0.22536 1.370076,-0.73324 1.859702,-2.1683 2.218798,-6.50312 0.187942,-2.26872 0.45717,-4.71112 0.598291,-5.42756 0.202669,-1.02893 0.159236,-1.15006 -0.206729,-0.57651 -0.254817,0.39936 -1.143443,1.14646 -1.974724,1.66022 -1.391895,0.86024 -1.709312,0.89354 -4.013707,0.42113 -1.376256,-0.28215 -3.137307,-0.77503 -3.913448,-1.09531 l -1.411165,-0.58232 v -4.30493 c 0,-2.36772 -0.196426,-5.35742 -0.436497,-6.64378 -0.638837,-3.423021 -2.779926,-7.452588 -5.583395,-10.508043 -3.510801,-3.826368 -3.449582,-3.714842 -3.990024,-7.26899 -0.417752,-2.747265 -0.743645,-3.534552 -2.170593,-5.243677 l -1.679044,-2.011066 2.708995,0.217449 2.708994,0.217454 1.654446,-2.49177 c 6.839201,-10.300589 15.891858,-13.829518 27.890873,-10.872498 9.81029,2.417634 16.183785,6.725301 20.344907,13.750545 3.09045,5.217634 4.3975,6.770897 6.91052,8.212244 2.44167,1.400418 5.19129,1.693524 6.55215,0.698439 0.68061,-0.497676 0.75882,-0.951242 0.51774,-3.00249 -0.41864,-3.561933 -0.48719,-3.647306 -3.14939,-3.922067 -4.57139,-0.471811 -6.59044,-2.890665 -4.57242,-5.477826 0.81678,-1.047136 1.1103,-1.126005 7.60632,-2.043905 l 2.12351,-0.300057 -0.2759,-4.165786 c -0.15174,-2.291181 -0.2769,-4.775804 -0.27814,-5.521381 -0.002,-1.340416 -0.0732,-1.383858 -6.33957,-3.878729 -3.48553,-1.387722 -7.833,-3.395032 -9.661053,-4.460686 -7.044445,-4.106528 -8.551448,-4.831159 -10.0539,-4.834335 -0.835844,-0.0018 -1.767053,0.153784 -2.069354,0.34567 -0.730767,0.463854 -6.709856,-1.0743 -7.135998,-1.835775 -0.183712,-0.328272 -1.247231,-0.733803 -2.36338,-0.90118 -6.747371,-1.01183 -5.04192,-2.416434 4.015915,-3.307497 7.519565,-0.739736 10.490876,-0.218843 17.531869,3.073464 4.985861,2.331344 6.532361,2.838262 11.003011,3.606592 4.65604,0.800194 5.5925,0.837487 8.92623,0.35548 3.36259,-0.48618 4.3673,-0.920386 4.38722,-1.896021 0.003,-0.17911 -0.87261,-0.325654 -1.94727,-0.325654 -2.40921,0 -3.44935,-0.921346 -3.84691,-3.407578 -0.23073,-1.442855 -0.46831,-1.802877 -1.18974,-1.802877 -0.82645,0 -0.87206,-0.153518 -0.54827,-1.84537 0.35055,-1.831688 0.36112,-2.589093 0.10282,-7.368609 -0.10664,-1.973226 0.0504,-2.731916 0.76391,-3.69074 0.84165,-1.131025 1.20559,-1.23747 5.78662,-1.692482 3.25096,-0.322901 5.01439,-0.686521 5.26438,-1.085512 0.20675,-0.329978 0.60845,-1.631276 0.89267,-2.891777 0.28591,-1.267956 0.72715,-2.222533 0.98769,-2.136734 0.84536,0.278382 1.5435,2.21546 1.55004,4.300715 0.005,1.455814 0.31846,2.503042 1.09191,3.642781 1.22424,1.804021 1.18447,1.52425 1.25244,8.81096 0.0501,5.368096 0.0526,5.380429 1.27376,6.295968 0.67297,0.504533 2.50916,1.407212 4.0804,2.005951 4.34949,1.657414 4.68991,2.319309 4.65037,9.042076 -0.0384,6.525468 -0.69982,8.858432 -4.09763,14.452721 -1.20967,1.991645 -2.50443,4.670444 -2.87725,5.95289 l -0.67785,2.331713 1.36609,2.670997 c 0.75135,1.469049 2.64364,4.405311 4.20508,6.525024 l 2.83898,3.854022 3.3282,-0.223129 c 4.62279,-0.309922 16.28864,0.3922 20.3069,1.222195 3.87823,0.801069 9.70794,3.217995 14.55494,6.034294 2.75354,1.59991 3.79719,1.975467 5.48967,1.975467 2.66855,0 6.23534,-0.930037 9.11634,-2.37708 6.10417,-3.06595 12.35712,-1.117491 14.88345,4.63777 1.48767,3.3891 1.62742,10.60528 0.43032,22.22116 -1.35924,13.18932 -3.40987,20.47892 -8.80873,31.31346 -2.81278,5.64473 -6.97085,12.62185 -7.16858,12.02865 -0.0852,-0.2555 0.24629,-4.53192 0.73658,-9.50314 1.44295,-14.63049 1.89256,-23.66628 1.61645,-32.48564 -0.28412,-9.07514 -0.95666,-13.33212 -2.62705,-16.62847 -1.5167,-2.99306 -2.90513,-3.99625 -5.53091,-3.99625 h -2.11247 l -0.006,5.31901 c -0.009,7.19733 -0.65481,9.58209 -5.05831,18.66958 -4.42775,9.13753 -4.46231,9.53716 -1.23345,14.26277 2.12883,3.11564 3.94989,4.91664 7.31028,7.2297 2.32745,1.60207 3.08142,3.03915 2.45665,4.68243 -0.22968,0.60409 -3.72451,4.52519 -7.76629,8.71354 -4.04178,4.18834 -7.89209,8.39929 -8.55624,9.35766 -2.11469,3.05151 -1.89163,7.95475 0.45031,9.89839 0.37397,0.31036 0.67994,1.01075 0.67994,1.55641 0,1.79909 -7.26739,7.43922 -8.28034,6.42627 -1.03321,-1.03321 -2.68556,-6.71249 -2.89525,-9.95123 -0.37803,-5.83866 0.12775,-6.69853 9.98099,-16.9685 6.03579,-6.29107 7.06587,-7.61145 6.69399,-8.58056 -0.11667,-0.30405 -3.50223,-2.77165 -7.52346,-5.48354 -4.37306,-2.94917 -8.5802,-6.18738 -10.46868,-8.05768 l -3.15734,-3.12696 -0.73537,1.37151 c -3.32218,6.19603 -4.02215,9.15806 -4.02215,17.02034 0,3.66089 -0.18342,7.1386 -0.40761,7.72824 -0.5833,1.5342 -1.36851,2.2055 -11.75012,10.04553 -5.13447,3.87748 -10.2985,7.85128 -11.47563,8.83068 -1.17712,0.9794 -3.17204,2.19952 -4.43315,2.71136 -1.80131,0.7311 -2.57595,1.3717 -3.61299,2.98777 -0.72603,1.13143 -1.32006,2.18658 -1.32006,2.34478 0,0.1582 15.31795,0.28764 34.03989,0.28764 h 34.03989 l 1.80155,5.07656 c 0.99085,2.7921 2.22872,6.30051 2.75081,7.79647 l 0.94926,2.71992 2.17917,0.12776 2.17917,0.12776 0.11894,7.24871 0.11894,7.24871 -2.07286,0.13277 -2.07286,0.13277 -0.11656,10.09526 -0.11655,10.09526 H 113.95978 30.383385 Z m 87.066175,-44.9745 c 2.38364,-2.40699 8.63253,-8.04749 13.8864,-12.53443 11.01516,-9.40722 13.29793,-11.58966 14.27407,-13.64672 1.0567,-2.22682 0.86319,-5.79844 -0.65859,-12.15572 -1.1171,-4.66674 -1.37303,-6.66492 -1.41116,-11.0178 -0.0256,-2.92446 -0.0684,-5.31801 -0.0951,-5.319 -0.0267,-8.7e-4 -1.29672,0.5639 -2.82233,1.25533 -7.91201,3.58581 -13.39552,4.47344 -26.5502,4.29779 l -9.53829,-0.12737 -1.82683,2.07039 c -1.99084,2.25627 -3.017735,2.68901 -7.49547,3.15868 l -2.954533,0.3099 -4.707616,4.612 c -5.598931,5.4852 -9.20972,10.16662 -14.574818,18.89634 -3.133638,5.09883 -4.92676,7.46137 -8.467614,11.15654 -3.727973,3.89044 -4.833523,5.3758 -6.49908,8.73184 -1.103826,2.22417 -2.006959,4.18899 -2.006959,4.36627 0,0.17727 12.850693,0.32232 28.5571,0.32232 h 28.5571 z m 53.9865,-43.86021 c -7.03775,-7.85616 -9.97526,-12.31905 -11.11746,-16.89053 -0.32867,-1.31545 -0.71899,-5.71339 -0.86738,-9.77321 -0.26525,-7.25697 -0.27933,-7.34119 -0.83519,-4.99335 -0.89076,3.76237 -1.19715,10.71777 -0.62241,14.12922 1.00057,5.93903 5.17345,11.98866 12.17306,17.6479 2.01308,1.62759 3.74288,2.95925 3.84401,2.95925 0.10112,0 -1.05746,-1.38567 -2.57463,-3.07928 z M 61.074473,100.85528 C 60.84787,96.570459 58.786375,92.40651 54.753447,88.087629 53.116413,86.334519 51.342526,84.11859 50.811481,83.16334 l -0.965541,-1.736819 0.189726,2.259123 c 0.171402,2.040914 0.433379,2.5223 2.712233,4.983732 2.919566,3.153481 5.200938,6.567241 6.127522,9.169 0.35742,1.003608 0.77437,3.876364 0.92655,6.383894 l 0.276692,4.55915 0.581201,-2.38813 c 0.325545,-1.33767 0.507919,-3.77366 0.414609,-5.53801 z M 126.39775,71.835213 c 0.14974,-0.08995 0.50192,-1.075637 0.78263,-2.190427 0.65054,-2.583518 1.43973,-4.097464 3.15329,-6.049101 0.92115,-1.049134 1.89973,-3.148058 2.9887,-6.410381 0.8905,-2.667772 1.55941,-4.913075 1.48647,-4.989561 -0.0729,-0.07649 -0.74106,0.745244 -1.48468,1.826067 -1.03429,1.503283 -2.2053,5.000814 -2.2053,6.586694 0,0.06732 -0.8912,1.164147 -1.98044,2.437413 -1.08925,1.273266 -2.55205,3.509789 -3.25067,4.97005 l -1.27023,2.655013 -2.93674,0.219474 c -1.61521,0.120713 -3.62062,0.536199 -4.45647,0.923305 -1.4705,0.681037 -1.35098,0.695427 3.69074,0.444409 2.86575,-0.14268 5.33297,-0.333009 5.4827,-0.422955 z"
     id="path5168" /></g></svg>
