<?xml version="1.0" encoding="UTF-8" standalone="no"?>
<!-- Generator: Adobe Illustrator 19.0.0, SVG Export Plug-In . SVG Version: 6.00 Build 0)  -->

<svg
   version="1.1"
   id="Layer_1"
   x="0px"
   y="0px"
   viewBox="0 0 250 250"
   style="enable-background:new 0 0 250 250;"
   xml:space="preserve"
   inkscape:version="1.2.2 (b0a8486541, 2022-12-01)"
   sodipodi:docname="photo.svg"
   xmlns:inkscape="http://www.inkscape.org/namespaces/inkscape"
   xmlns:sodipodi="http://sodipodi.sourceforge.net/DTD/sodipodi-0.dtd"
   xmlns="http://www.w3.org/2000/svg"
   xmlns:svg="http://www.w3.org/2000/svg"
   xmlns:rdf="http://www.w3.org/1999/02/22-rdf-syntax-ns#"
   xmlns:cc="http://creativecommons.org/ns#"
   xmlns:dc="http://purl.org/dc/elements/1.1/"><metadata
     id="metadata4205"><rdf:RDF><cc:Work
         rdf:about=""><dc:format>image/svg+xml</dc:format><dc:type
           rdf:resource="http://purl.org/dc/dcmitype/StillImage" /></cc:Work></rdf:RDF></metadata><defs
     id="defs4203" /><sodipodi:namedview
     pagecolor="#ffffff"
     bordercolor="#666666"
     borderopacity="1"
     objecttolerance="10"
     gridtolerance="10"
     guidetolerance="10"
     inkscape:pageopacity="0"
     inkscape:pageshadow="2"
     inkscape:window-width="1870"
     inkscape:window-height="1131"
     id="namedview4201"
     showgrid="false"
     inkscape:zoom="3.4264374"
     inkscape:cx="111.34013"
     inkscape:cy="127.09994"
     inkscape:current-layer="Layer_1"
     inkscape:window-x="1490"
     inkscape:window-y="851"
     inkscape:window-maximized="1"
     inkscape:showpageshadow="2"
     inkscape:pagecheckerboard="0"
     inkscape:deskcolor="#d1d1d1" /><style
     type="text/css"
     id="style4196">
	.st0{fill-rule:evenodd;clip-rule:evenodd;}
</style><path
     style="clip-rule:evenodd;fill-rule:evenodd;stroke-width:1.42857"
     inkscape:connector-curvature="0"
     d="m 249.85757,118.70746 -0.4271,-6.2925 -0.71184,-6.29253 -0.99659,-6.122439 -1.4237,-6.122455 -1.70842,-5.952385 -1.99316,-5.782315 -2.27791,-5.612239 -2.56265,-5.442176 -2.84737,-5.442175 -2.98975,-5.272108 -3.27449,-5.102041 -3.41686,-4.93197 -3.70158,-4.761903 -3.98634,-4.591836 -4.1287,-4.421768 -4.41343,-4.08163 -4.55581,-3.911567 -4.69817,-3.741493 -4.98293,-3.401363 -4.98291,-3.231291 -5.26765,-3.061225 -5.41002,-2.721087 -5.55239,-2.5510191 -5.69477,-2.2108852 -5.83712,-1.8707467 -5.9795,-1.7006796 -5.9795,-1.3605455 -6.12186,-1.1904754 -6.12187,-0.85033837 -6.40661,-0.5102056 L 124.99997,0 l -6.4066,0.17006853 -6.40661,0.5102056 -6.12187,0.85033837 -6.121856,1.1904754 -5.979498,1.3605455 -5.979499,1.7006796 -5.837129,1.8707467 -5.694758,2.2108852 -5.55239,2.5510191 -5.410022,2.721087 -5.267653,3.061225 -4.982915,3.231291 -4.982914,3.401363 -4.698176,3.741493 -4.555808,3.911567 -4.413439,4.08163 -4.1287,4.421768 -3.986332,4.591836 -3.701594,4.761903 -3.416856,4.93197 -3.274487,5.102041 -2.989749,5.272108 -2.847379,5.442175 -2.5626425,5.442176 -2.2779038,5.612239 -1.9931652,5.782315 -1.7084282,5.952385 -1.4236897,6.122455 -0.9965826,6.122439 -0.71184556,6.29253 -0.42710704,6.2925 L 0,124.99999 l 0.1423714,6.29251 0.42710704,6.29251 0.71184556,6.29251 0.9965826,6.12246 1.4236897,6.12244 1.7084282,5.95239 1.9931652,5.78231 2.2779038,5.61223 2.5626425,5.44218 2.847379,5.44216 2.989749,5.27211 3.274487,5.10206 3.416856,4.93195 3.701594,4.76191 3.986332,4.59185 4.1287,4.42177 4.413439,4.08164 4.555808,3.91156 4.698176,3.74149 4.982914,3.40136 4.982915,3.23129 5.267653,3.06122 5.410022,2.72109 5.55239,2.55101 5.694758,2.21089 5.837129,1.87074 5.979499,1.7007 5.979498,1.36053 6.121856,1.19047 6.12187,0.85034 6.40661,0.51022 6.4066,0.17005 6.4066,-0.17005 6.40661,-0.51022 6.12187,-0.85034 6.12186,-1.19047 5.9795,-1.36053 5.9795,-1.7007 5.83712,-1.87074 5.69477,-2.21089 5.55239,-2.55101 5.41002,-2.72109 5.26765,-3.06122 4.98291,-3.23129 4.98293,-3.40136 4.69817,-3.74149 4.55581,-3.91156 4.41343,-4.08164 4.1287,-4.42177 3.98634,-4.59185 3.70158,-4.76191 3.41686,-4.93195 3.27449,-5.10206 2.98975,-5.27211 2.84737,-5.44216 2.56265,-5.44218 2.27791,-5.61223 1.99316,-5.78231 1.70842,-5.95239 1.4237,-6.12244 0.99659,-6.12246 0.71184,-6.29251 0.4271,-6.29251 L 250,124.99999 Z m -23.63325,11.56464 -0.4271,5.10203 -0.71186,5.10204 -0.8542,5.10205 -1.13895,4.93195 -1.42369,4.76191 -1.70843,4.7619 -1.8508,4.59184 -1.99317,4.42176 -2.2779,4.42177 -2.42027,4.25172 -2.56264,4.08162 -2.84739,3.91155 -2.98974,3.74152 -3.13213,3.74148 -3.41685,3.40137 -3.41686,3.40137 -3.70158,3.23129 -3.84397,3.06121 -3.98633,2.72109 -3.98633,2.72108 -4.27107,2.38097 -4.41344,2.21087 -4.41344,2.0408 -4.69817,1.87076 -4.69819,1.53063 -4.84054,1.5306 -4.98291,1.0204 -4.98292,1.02041 -5.12528,0.5102 -5.12529,0.34014 -5.12528,0.17006 -5.26766,-0.17006 -5.12528,-0.34014 -5.12527,-0.5102 -4.98293,-1.02041 -4.982911,-1.0204 -4.840542,-1.5306 -4.69817,-1.53063 -4.698179,-1.87076 -4.413439,-2.0408 -4.413439,-2.21087 -4.271069,-2.38097 -3.986332,-2.72108 -3.986332,-2.72109 -3.843962,-3.06121 -3.701594,-3.23129 -3.416856,-3.40137 -3.416855,-3.40137 -3.132118,-3.74148 -2.989749,-3.74152 -2.847379,-3.91155 -2.562643,-4.08162 -2.420272,-4.25172 -2.277904,-4.42177 -1.993166,-4.42176 -1.850797,-4.59184 -1.708427,-4.7619 -1.423691,-4.76191 -1.138951,-4.93195 -0.854214,-5.10205 -0.711846,-5.10204 -0.427105,-5.10203 -0.142372,-5.27211 0.142372,-5.27212 0.427105,-5.10204 0.711846,-5.10204 0.854214,-5.10203 1.138951,-4.931997 1.423691,-4.761885 1.708427,-4.761899 1.850797,-4.591843 1.993166,-4.421775 2.277904,-4.421764 2.420272,-4.251698 2.562643,-4.081633 2.847379,-3.911565 2.989749,-3.741495 3.132118,-3.741496 3.416855,-3.401359 3.416856,-3.401361 3.701594,-3.231292 3.843962,-3.061224 3.986332,-2.721086 3.986332,-2.721088 4.271069,-2.380952 4.413439,-2.210884 4.413439,-2.040817 4.698179,-1.870747 4.69817,-1.530612 4.840542,-1.530611 4.982911,-1.020409 4.98293,-1.020408 5.41001,-0.340136 5.12529,-0.340137 5.26765,-0.170067 5.12529,0.170067 5.12528,0.340137 5.12529,0.510206 4.98291,1.020407 4.98291,1.020407 4.84054,1.530611 4.69819,1.530612 4.69817,1.870749 4.41344,2.040815 4.41344,2.210884 4.27106,2.380952 3.98634,2.721088 3.98633,2.721088 3.84396,3.061223 3.70159,3.231293 3.41686,3.401359 3.41686,3.401362 3.13211,3.741493 2.98976,3.741497 2.84737,3.911563 2.56264,4.081635 2.42027,4.251704 2.27791,4.421767 1.99316,4.421764 1.8508,4.591834 1.70843,4.761884 1.4237,4.761942 1.13894,4.931937 0.85422,5.10207 0.71184,5.10202 0.42711,5.10204 0.14243,5.27211 -0.42711,5.10206 z"
     class="st0"
     id="XMLID_13_" /><g
     transform="matrix(1.1214216,0,0,1.8198467,-53.571416,-53.571416)"
     style="font-style:normal;font-variant:normal;font-weight:900;font-stretch:normal;font-size:94.9246px;line-height:125%;font-family:Arial;-inkscape-font-specification:'Arial, Heavy';text-align:start;letter-spacing:0px;word-spacing:0px;writing-mode:lr-tb;text-anchor:start;fill:#000000;fill-opacity:1;stroke:none;stroke-width:1px;stroke-linecap:butt;stroke-linejoin:miter;stroke-opacity:1"
     id="text5478"><path
       d="m 91.720298,63.93025 h 34.901482 q 11.40207,0 17.05676,5.422939 5.70104,5.422939 5.70104,15.434519 0,10.289679 -6.21089,16.083412 -6.16453,5.79374 -18.86441,5.79374 H 112.8095 v 25.21435 H 91.720298 Z M 112.8095,92.898941 h 5.14484 q 6.07184,0 8.52839,-2.085746 2.45654,-2.132095 2.45654,-5.422939 0,-3.198143 -2.13209,-5.422939 -2.1321,-2.224795 -8.01854,-2.224795 h -5.97914 z"
       id="path4829" /><path
       d="m 160.50356,63.93025 h 20.99651 v 23.777502 h 22.9432 V 63.93025 h 21.08921 v 67.94896 h -21.08921 v -27.48549 h -22.9432 v 27.48549 h -20.99651 z"
       id="path4831" /></g></svg>
