<?xml version="1.0" encoding="UTF-8" standalone="no"?>
<!-- Generator: Adobe Illustrator 19.0.0, SVG Export Plug-In . SVG Version: 6.00 Build 0)  -->

<svg
   version="1.1"
   id="Layer_1"
   x="0px"
   y="0px"
   viewBox="0 0 250 250"
   style="enable-background:new 0 0 250 250;"
   xml:space="preserve"
   sodipodi:docname="plain-chott.svg"
   inkscape:version="1.2.2 (b0a8486541, 2022-12-01)"
   xmlns:inkscape="http://www.inkscape.org/namespaces/inkscape"
   xmlns:sodipodi="http://sodipodi.sourceforge.net/DTD/sodipodi-0.dtd"
   xmlns:xlink="http://www.w3.org/1999/xlink"
   xmlns="http://www.w3.org/2000/svg"
   xmlns:svg="http://www.w3.org/2000/svg"><defs
   id="defs13" /><sodipodi:namedview
   id="namedview11"
   pagecolor="#ffffff"
   bordercolor="#000000"
   borderopacity="0.25"
   inkscape:showpageshadow="2"
   inkscape:pageopacity="0.0"
   inkscape:pagecheckerboard="0"
   inkscape:deskcolor="#d1d1d1"
   showgrid="false"
   inkscape:zoom="4.108"
   inkscape:cx="114.28919"
   inkscape:cy="126.46056"
   inkscape:window-width="2510"
   inkscape:window-height="1363"
   inkscape:window-x="0"
   inkscape:window-y="0"
   inkscape:window-maximized="1"
   inkscape:current-layer="g1755" />

<g
   id="g1755"
   transform="translate(5.1964457,-7.5081918)"><path
     style="fill:#cccccc;stroke:none;stroke-width:3"
     d="m 29.528892,96.236573 c 2.709133,-0.436138 5.423404,-0.689665 8.148163,-0.976562 0.719996,-0.07581 1.433879,-0.20554 2.154714,-0.272905 0.254048,-0.02374 0.544335,0.127302 0.765465,0 2.342801,-1.348726 1.37065,-1.386808 2.702425,-1.95883 0.735015,-0.315703 2.757591,-0.646632 3.164557,-1.460565 0.357461,-0.714922 0.0695,-1.711486 0.486855,-2.42952 0.213249,-0.366885 0.435505,-0.752791 0.77022,-1.013647 0.606172,-0.472415 1.362055,-0.718278 2.000669,-1.145821 0.01599,-0.0107 2.072445,-1.845884 2.892603,-2.128089 0.438654,-0.150934 0.914191,0.15842 1.37023,0.243428 0.501042,0.0934 1.035566,0.06102 1.50811,0.251985 1.382897,0.558861 2.588763,1.492668 3.94999,2.102415 1.400464,0.627322 6.193355,0.817483 7.494904,0.494462 0.352195,-0.08741 0.636784,-0.352085 0.97371,-0.486855 1.135172,-0.454069 2.634831,-0.614685 3.823522,-1.08116 0.513036,-0.20133 0.960036,-0.552529 1.477681,-0.741693 0.388904,-0.142118 0.83037,-0.09811 1.218088,-0.243428 0.273952,-0.102682 0.47957,-0.336068 0.730283,-0.486855 0.734867,-0.441973 2.450161,-0.886563 3.171213,-0.968955 0.858139,-0.09806 1.729217,0.05526 2.591171,0 2.567318,-0.164583 5.176459,-0.643358 7.768759,-0.365141 0.384931,0.04131 0.740543,0.255347 1.126803,0.281463 2.648833,0.179089 5.309761,0 7.964642,0 1.752805,0 3.512081,0.150447 5.258411,0 0.66251,-0.05708 1.39144,-0.469894 2.06248,-0.543909 1.35819,-0.149804 2.73464,0.06983 4.09928,0 0.98746,-0.05053 1.96581,-0.221608 2.95251,-0.285266 0.89356,-0.05765 1.79775,0.11101 2.68626,0 0.25491,-0.03185 0.47947,-0.192307 0.73123,-0.243428 3.02162,-0.613555 6.15028,-1.083481 9.1989,-1.522372 4.33861,-0.624605 8.93123,-0.889681 13.13938,-2.20416 2.43316,-0.760037 1.22251,-0.621371 2.92588,-1.321735 3.91503,-1.609716 8.46708,-0.09218 12.69912,0 7.27908,0.158556 2.43075,0.164117 6.45843,0.722676 0.53522,0.07422 5.62771,0.545337 5.97919,0.599059 0.79633,0.121718 1.75305,1.169727 2.44473,1.46532 1.4638,0.625559 7.25833,1.938114 8.19856,2.741411 0.49771,0.425226 0.78203,1.079304 0.97466,1.704943 0.5726,1.859687 -1.21684,5.404195 0.24153,6.862563 0.71492,0.714921 2.32845,0.670322 2.92113,1.460564 0.15395,0.205276 0.16228,0.486855 0.24343,0.730283 0.0811,0.243427 0.20124,0.477178 0.24342,0.730282 0.04,0.240116 -0.12524,0.521545 0,0.730283 0.0634,0.10564 1.59537,0.927157 1.70399,0.973709 2.36601,1.014001 5.04614,0.603606 7.25243,2.127138 1.47649,1.019569 0.54231,1.735429 1.21714,2.916379 0.62551,1.09463 1.48894,2.03567 2.27072,3.02477 0.86815,1.09838 1.70429,2.23318 2.70052,3.21686 1.39254,1.37499 3.3926,2.53075 4.06886,4.52147 0.10439,0.30732 -0.0323,0.65075 0,0.97371 0.10527,1.0527 0.2574,3.28087 0.74359,4.15729 1.00472,1.8111 3.51894,2.66186 5.19756,3.68659 0.94268,0.57547 1.9281,1.09576 2.79276,1.78292 0.18371,0.146 0.29948,0.37262 0.49826,0.49731 0.46567,0.29211 0.98259,0.4932 1.47388,0.73979 0.5493,0.3661 1.09304,0.74066 1.64789,1.09828 0.97391,0.62773 3.67291,1.91391 4.52718,2.76614 1.86998,1.8655 2.17574,7.20961 2.80988,9.75896 0.0879,0.35356 0.7617,2.31217 0.98607,2.71669 0.58936,1.0626 1.01767,0.88144 1.21999,2.19751 0.45289,2.94598 -1.82583,4.5974 -2.97438,7.0185 -0.73549,1.55038 -1.42258,3.13075 -1.95788,4.7611 -0.51915,1.58114 -0.42092,2.16512 -1.34931,3.56583 -1.49303,2.25262 -1.37454,1.01186 -2.41716,3.45458 -1.26734,2.96922 -0.74342,2.51342 -1.19622,5.79472 -0.32987,2.39052 -1.11986,7.0488 -2.00257,9.20175 -1.6633,4.05681 -11.28932,-5.53374 -11.29085,-5.53323 -4.00081,1.34723 -8.13099,2.67641 -12.07248,4.21149 -2.25595,0.87862 -4.48783,1.81785 -6.72849,2.73476 -0.44631,0.18263 -0.83762,0.49129 -1.29416,0.6466 -0.57574,0.19586 -4.25427,1.07005 -5.48472,1.75154 -3.05369,1.69129 -2.60939,1.97112 -5.25366,2.92873 -1.9515,0.70673 -4.06057,0.99779 -6.02863,1.64789 -1.54382,0.50997 -3.0765,1.23084 -4.71926,1.48814 -1.20135,0.18817 -2.4751,-0.15227 -3.68184,0 -3.3181,0.4187 -6.54438,1.36715 -9.87308,1.66976 -1.49417,0.13584 -0.50812,-0.007 -1.95122,-0.48875 -1.05845,-0.35312 -2.36583,-0.30969 -3.4232,-0.24533 -0.86343,0.0525 -6.80037,0.92421 -7.22866,0.5325 -0.6606,-0.6042 -0.99767,-1.49671 -1.6108,-2.14901 -1.2319,-1.3106 -3.9292,-3.13925 -5.71294,-3.61148 -2.51406,-0.66557 -5.53977,-0.26149 -8.11393,-0.26149 -3.86909,0 -7.62593,0.3856 -11.49244,0.58099 -2.1966,0.11101 -4.39881,0 -6.598215,0 -1.024741,0 -2.052001,-0.0718 -3.074223,0 -1.627963,0.11437 -3.37866,0.9306 -5.035905,0.59811 -0.863197,-0.17318 -1.744525,-0.35891 -2.531266,-0.75405 -0.517604,-0.25997 -0.872886,-0.76903 -1.362623,-1.07831 -0.803774,-0.50761 -1.747906,-0.78963 -2.680554,-0.97371 -1.801008,-0.35548 -3.438433,0.77988 -5.059678,0.50967 -0.536915,-0.0895 -0.959724,-0.5171 -1.460565,-0.73028 -0.883789,-0.37617 -1.760636,-0.77824 -2.676751,-1.0669 -0.480448,-0.15138 -1.000078,-0.13337 -1.490993,-0.24628 -2.023668,-0.46542 -3.644275,-1.17965 -5.418163,-2.21557 -0.975229,-0.56951 -1.87069,-1.27085 -2.856469,-1.8219 -0.199207,-0.11135 -1.034843,-0.27466 -1.264682,-0.50397 -0.655902,-0.65438 -1.61088,-1.88509 -1.220941,-2.92493 1.355383,-3.61436 6.772078,-2.49243 9.681947,-2.96297 0.182472,-0.0295 0.313363,-0.2212 0.496364,-0.24723 0.409829,-0.0583 0.831001,0.0505 1.24186,0 1.898336,-0.23342 6.598727,-1.34294 8.343096,-2.34014 1.696896,-0.97006 2.419021,-3.17385 3.73509,-4.4939 0.549112,-0.55077 1.196694,-0.99423 1.77626,-1.51286 0.259046,-0.23181 0.436246,-0.56416 0.737889,-0.73694 0.29031,-0.16628 0.666202,-0.11164 0.97371,-0.24343 1.65052,-0.70736 3.223354,-1.75197 4.90088,-2.44663 1.11096,-0.46005 1.947936,-0.71723 3.004807,-1.24567 0.229626,-0.11481 3.133063,-1.13622 1.508109,-1.63267 -3.548695,-1.08419 -7.122402,-2.09465 -10.727924,-2.97153 -1.519837,-0.36963 -3.078168,-0.56675 -4.629876,-0.76356 -0.459716,-0.0583 -0.926799,0 -1.390199,0 -0.162285,0 -0.351826,-0.09 -0.486855,0 -0.539182,0.35945 0.129448,1.54665 -0.47164,1.70399 -1.800193,0.47122 -2.892403,-2.78395 -4.109741,0.97371 -0.0815,0.25158 -0.225033,3.74974 -0.499216,3.77883 -2.276107,0.24152 -4.608093,-0.0856 -6.864464,-0.29382 -1.366621,-0.12613 -2.66364,0.10941 -4.007995,0.24342 -1.633238,0.16282 -3.407439,0 -5.041611,0 -1.062143,0 -2.12625,0.0646 -3.186428,0 -0.507646,-0.0309 -0.9549,-0.34248 -1.472926,-0.25483 -1.215612,0.20568 -2.676186,0.31674 -3.678988,0.98131 -0.285905,0.18948 -0.658709,1.16101 -0.965151,1.20858 -2.611838,0.40548 -8.910233,-1.61934 -9.886388,-1.88086 -0.402275,-0.10777 -0.743442,-0.37561 -1.117294,-0.55912 -0.891162,-0.43743 -1.810698,-0.82012 -2.677702,-1.30367 -1.395933,-0.77854 -2.468003,-2.03856 -3.865362,-2.85456 -1.541956,-0.90045 -2.813881,-1.64354 -4.553805,-2.24886 -1.204125,-0.41891 -2.481632,-0.60079 -3.688497,-1.01174 -1.117987,-0.38069 -1.757255,-2.1243 -2.245047,-2.95917 -0.272643,-0.46663 -0.674989,-1.34208 -1.217138,-1.70399 -0.06722,-0.0449 -0.178515,0.0494 -0.242476,0 -0.173073,-0.1337 0.05399,-0.44417 0,-0.65611 -0.134362,-0.52748 -0.41388,-1.01765 -0.730283,-1.46057 -0.484379,-0.67805 -1.494776,-1.09058 -1.710648,-1.95407 -0.11808,-0.47232 0.06039,-0.97747 0,-1.46057 -0.08299,-0.66395 -0.275261,-1.31263 -0.486855,-1.94742 -0.145517,-0.43655 -1.235235,-1.18788 -0.97371,-1.68117 0.239828,-0.45235 1.008203,-0.19796 1.51952,-0.22441 3.045918,-0.15757 6.009096,-0.26529 9.074329,-0.26529 0.729531,0 3.56711,0.10684 4.395007,-0.2672 0.392898,-0.17752 0.213376,-6.50045 0.251034,-7.2144 0.0865,-1.63987 0.409224,-3.85015 0.253888,-5.5665 -0.01682,-0.18578 -0.1995,-0.32088 -0.251035,-0.50016 -0.29106,-1.01256 -0.243428,-1.06722 -0.243428,-1.95028 0,-1.1226 0.630175,-2.02466 0.486855,-3.16455 -0.159571,-1.26915 -0.557966,-1.35893 -1.221891,-2.68626 -0.502612,-1.00483 -0.04541,-0.51589 -0.243428,-1.704 -0.146937,-0.88162 -0.208612,-0.17379 -0.486855,-0.73028 -0.36215,-0.7243 -1.016708,-1.87598 -1.217137,-2.6777 -0.149385,-0.59754 0.06445,-0.84722 -0.243427,-1.46056 -0.254781,-0.50758 0.09308,-2.9037 0.243427,-3.35474 0.168736,-0.50621 -0.105087,-1.17856 0,-1.70399 0.335823,-1.679117 0.489399,-3.015456 -0.02377,-4.478687 z"
     id="path1123" /><ellipse
     style="fill:#a2a288;stroke:none;stroke-width:3"
     id="path1177"
     cx="59.423874"
     cy="102.90849"
     rx="12.214163"
     ry="1.8936945"
     inkscape:tile-cx="59.423874"
     inkscape:tile-cy="102.90849"
     inkscape:tile-w="24.428326"
     inkscape:tile-h="3.787389"
     inkscape:tile-x0="47.209711"
     inkscape:tile-y0="101.0148" /><use
     x="0"
     y="0"
     inkscape:tiled-clone-of="#path1177"
     xlink:href="#path1177"
     id="use1231" /><use
     x="0"
     y="0"
     inkscape:tiled-clone-of="#path1177"
     xlink:href="#path1177"
     transform="translate(-9.091445,14.446848)"
     id="use1235" /><use
     x="0"
     y="0"
     inkscape:tiled-clone-of="#path1177"
     xlink:href="#path1177"
     transform="translate(-12.214163,33.274442)"
     id="use1237" /><use
     x="0"
     y="0"
     inkscape:tiled-clone-of="#path1177"
     xlink:href="#path1177"
     transform="translate(68.176804,35.437713)"
     id="use1241" /><use
     x="0"
     y="0"
     inkscape:tiled-clone-of="#path1177"
     xlink:href="#path1177"
     transform="translate(107.64438,47.312409)"
     id="use1243" /><use
     x="0"
     y="0"
     inkscape:tiled-clone-of="#path1177"
     xlink:href="#path1177"
     transform="translate(36.642489,65.672164)"
     id="use1245" /><use
     x="0"
     y="0"
     inkscape:tiled-clone-of="#path1177"
     xlink:href="#path1177"
     transform="translate(36.642489,-8.765765)"
     id="use1247" /><use
     x="0"
     y="0"
     inkscape:tiled-clone-of="#path1177"
     xlink:href="#path1177"
     transform="translate(48.856651,3.787389)"
     id="use1249" /><use
     x="0"
     y="0"
     inkscape:tiled-clone-of="#path1177"
     xlink:href="#path1177"
     transform="translate(55.962641,16.340543)"
     id="use1251" /><use
     x="0"
     y="0"
     inkscape:tiled-clone-of="#path1177"
     xlink:href="#path1177"
     transform="translate(24.428326,23.985201)"
     id="use1253" /><use
     x="0"
     y="0"
     inkscape:tiled-clone-of="#path1177"
     xlink:href="#path1177"
     transform="translate(73.284977,-10.65946)"
     id="use1257" /><use
     x="0"
     y="0"
     inkscape:tiled-clone-of="#path1177"
     xlink:href="#path1177"
     transform="translate(57.728441,47.312409)"
     id="use1259" /><use
     x="0"
     y="0"
     inkscape:tiled-clone-of="#path1177"
     xlink:href="#path1177"
     transform="translate(85.49914,23.563017)"
     id="use1261" /><use
     x="0"
     y="0"
     inkscape:tiled-clone-of="#path1177"
     xlink:href="#path1177"
     transform="translate(97.713303,-3.787389)"
     id="use1263" /><use
     x="0"
     y="0"
     inkscape:tiled-clone-of="#path1177"
     xlink:href="#path1177"
     transform="translate(93.246029,65.672164)"
     id="use1265" /><use
     x="0"
     y="0"
     inkscape:tiled-clone-of="#path1177"
     xlink:href="#path1177"
     transform="translate(132.07271,18.234238)"
     id="use1267" /><use
     x="0"
     y="0"
     inkscape:tiled-clone-of="#path1177"
     xlink:href="#path1177"
     transform="translate(132.07271,43.52502)"
     id="use1269" /></g></svg>
