<?xml version="1.0" encoding="UTF-8" standalone="no"?>
<!-- Generator: Adobe Illustrator 19.0.0, SVG Export Plug-In . SVG Version: 6.00 Build 0)  -->

<svg
   version="1.1"
   id="Layer_1"
   x="0px"
   y="0px"
   viewBox="0 0 250 250"
   style="enable-background:new 0 0 250 250;"
   xml:space="preserve"
   sodipodi:docname="protected-area.svg"
   inkscape:version="1.2.2 (b0a8486541, 2022-12-01)"
   xmlns:inkscape="http://www.inkscape.org/namespaces/inkscape"
   xmlns:sodipodi="http://sodipodi.sourceforge.net/DTD/sodipodi-0.dtd"
   xmlns="http://www.w3.org/2000/svg"
   xmlns:svg="http://www.w3.org/2000/svg"><defs
   id="defs13" /><sodipodi:namedview
   id="namedview11"
   pagecolor="#ffffff"
   bordercolor="#000000"
   borderopacity="0.25"
   inkscape:showpageshadow="2"
   inkscape:pageopacity="0.0"
   inkscape:pagecheckerboard="0"
   inkscape:deskcolor="#d1d1d1"
   showgrid="false"
   inkscape:zoom="4.556"
   inkscape:cx="119.07375"
   inkscape:cy="125"
   inkscape:window-width="2510"
   inkscape:window-height="1363"
   inkscape:window-x="0"
   inkscape:window-y="0"
   inkscape:window-maximized="1"
   inkscape:current-layer="Layer_1" />

<path
   style="fill:#000000;stroke-width:0.438637"
   d="m 151.57898,230.28084 c -20.94962,-32.62659 -24.77291,-38.89627 -24.28906,-39.83072 0.27105,-0.52344 5.94333,-10.52497 12.60506,-22.22561 l 12.11224,-21.2739 0.31783,4.16705 c 0.17481,2.29189 0.44129,5.80701 0.59217,7.8114 l 0.27432,3.64435 17.81924,-0.0813 17.81924,-0.0813 2.14709,3.45517 c 7.22693,11.62992 10.04455,20.19926 9.10508,27.69169 -1.07415,8.5665 -5.10812,15.58311 -10.38504,18.06355 -2.5575,1.20217 -5.31642,1.56171 -20.90558,2.72445 l -13.4863,1.0059 -0.21247,1.32915 c -0.11686,0.73103 -0.52459,4.48732 -0.90607,8.34733 -0.38149,3.86001 -0.74562,7.21072 -0.80919,7.44602 -0.0636,0.23531 -0.87293,-0.75163 -1.79856,-2.19318 z M 62.457217,213.19327 c -6.51506,-1.18215 -12.023689,-3.77098 -15.113435,-7.10271 -0.842041,-0.90798 -22.136528,-39.69843 -30.65654,-55.84451 -0.365863,-0.69336 0.486495,-0.11767 2.338787,1.57962 4.422066,4.05202 10.215206,6.92203 16.651165,8.24925 2.560555,0.52802 9.733482,0.71219 37.489727,0.96253 l 34.323349,0.30958 v 26.24787 26.24786 l -20.944915,-0.0396 c -15.129749,-0.0286 -21.817611,-0.19792 -24.088138,-0.6099 z M 205.50417,196.29728 c 0.17446,-0.60312 0.42191,-3.27476 0.5499,-5.93697 0.36914,-7.67858 -1.54186,-14.78041 -5.84079,-21.70595 -8.51076,-13.71076 -32.70372,-53.18734 -32.88495,-53.65963 -0.1526,-0.39765 6.98645,-5.09631 22.00763,-14.48465 12.22841,-7.642843 22.28566,-13.841331 22.34943,-13.77441 0.7832,0.821781 20.03176,32.13422 21.24164,34.55468 3.5667,7.13538 4.92218,13.3473 4.03781,18.50454 -0.48979,2.85624 -1.66529,5.09295 -15.71623,29.90442 -8.35276,14.74952 -15.38366,27.01467 -15.62423,27.25593 -0.29091,0.29172 -0.33117,0.0714 -0.12021,-0.65796 z M 42.133351,154.12758 c -10.28834,-0.84243 -16.047969,-3.23528 -21.974002,-9.12914 -5.934515,-5.90231 -8.418261,-12.14055 -6.99434,-17.56718 0.284856,-1.08562 3.662393,-8.02235 7.505625,-15.41497 3.843231,-7.3926 6.987695,-13.641777 6.987695,-13.887051 0,-0.245267 -2.993697,-2.783096 -6.652651,-5.639604 L 14.35302,87.295977 24.624428,86.972284 c 5.649278,-0.178021 16.747834,-0.276721 24.663462,-0.219316 l 14.392038,0.104376 11.973805,22.151166 c 6.585595,12.18315 11.919378,22.21707 11.852844,22.29761 -0.0665,0.0805 -3.11214,-1.47746 -6.768043,-3.46223 -5.598068,-3.03918 -6.735083,-3.51223 -7.204735,-2.99758 -0.306704,0.3361 -4.55688,7.1742 -9.444835,15.19577 l -8.88718,14.58468 -4.231373,-0.061 c -2.327254,-0.0335 -6.303934,-0.23074 -8.83706,-0.43815 z M 72.83794,79.334215 C 60.413549,72.452081 50.089934,66.670751 49.896569,66.486804 49.51552,66.12431 65.924897,36.17731 69.259041,31.150438 c 2.861107,-4.313685 7.379027,-8.921231 10.659148,-10.87062 5.193702,-3.086632 3.608677,-2.979936 38.537991,-2.594109 17.24941,0.190535 30.96779,0.497675 30.48529,0.682533 -0.4825,0.184858 -1.9629,0.742721 -3.28978,1.239712 -4.46493,1.672343 -8.42775,4.332046 -12.28184,8.243118 -4.3278,4.391792 -3.12241,2.413386 -22.58868,37.074414 C 102.65172,79.400513 95.871527,91.37949 95.714056,91.545448 95.556591,91.711399 85.262339,86.216341 72.83794,79.334215 Z m 68.97026,9.947404 -10.64236,-0.231096 6.5626,-4.164886 6.56261,-4.164895 -1.58982,-2.853296 c -0.8744,-1.569315 -4.81751,-8.550762 -8.76247,-15.514324 l -7.17266,-12.661012 1.83042,-3.335117 c 5.26632,-9.595484 11.66836,-17.356388 16.61654,-20.143421 1.32687,-0.747361 3.99159,-1.904614 5.92159,-2.571686 3.03182,-1.047893 4.19518,-1.213941 8.55343,-1.220874 8.99107,-0.01429 9.9647,0.808827 21.31453,18.019649 l 8.44063,12.799322 5.19007,-2.199146 c 2.85452,-1.209528 6.53448,-2.771095 8.17767,-3.470152 l 2.98763,-1.271006 -2.54899,4.734233 c -1.40194,2.60383 -6.69411,12.36963 -11.76036,21.701783 l -9.21138,16.96755 -14.91366,-0.09527 C 159.16171,89.555565 147.6615,89.40872 141.8082,89.281617 Z"
   id="path1838" /></svg>
