<?xml version="1.0" encoding="UTF-8" standalone="no"?>
<!-- Generator: Adobe Illustrator 19.0.0, SVG Export Plug-In . SVG Version: 6.00 Build 0)  -->

<svg
   version="1.1"
   id="Layer_1"
   x="0px"
   y="0px"
   viewBox="0 0 250 250"
   style="enable-background:new 0 0 250 250;"
   xml:space="preserve"
   sodipodi:docname="restricted-area.svg"
   inkscape:version="1.2.2 (b0a8486541, 2022-12-01)"
   xmlns:inkscape="http://www.inkscape.org/namespaces/inkscape"
   xmlns:sodipodi="http://sodipodi.sourceforge.net/DTD/sodipodi-0.dtd"
   xmlns="http://www.w3.org/2000/svg"
   xmlns:svg="http://www.w3.org/2000/svg"><defs
   id="defs13" /><sodipodi:namedview
   id="namedview11"
   pagecolor="#ffffff"
   bordercolor="#000000"
   borderopacity="0.25"
   inkscape:showpageshadow="2"
   inkscape:pageopacity="0.0"
   inkscape:pagecheckerboard="0"
   inkscape:deskcolor="#d1d1d1"
   showgrid="false"
   inkscape:zoom="4.556"
   inkscape:cx="125"
   inkscape:cy="125"
   inkscape:window-width="2510"
   inkscape:window-height="1363"
   inkscape:window-x="0"
   inkscape:window-y="0"
   inkscape:window-maximized="1"
   inkscape:current-layer="Layer_1" />

<path
   style="fill:#ff0000;fill-opacity:1;stroke-width:0.449031"
   d="m 140.639,232.2651 c -6.68692,-1.38458 -11.04425,-8.23251 -9.30746,-14.62752 0.37167,-1.36853 8.2084,-15.39459 20.07082,-35.92248 10.70358,-18.52253 19.95088,-34.41868 20.54954,-35.32477 1.14989,-1.74039 3.54193,-3.59901 5.64914,-4.38937 0.69523,-0.26078 2.61484,-0.4697 4.2658,-0.46427 3.53643,0.0116 5.98143,0.97181 8.21099,3.22459 2.37256,2.39728 41.57737,70.6212 42.16979,73.38356 0.34295,1.59911 0.34385,2.86971 0.003,4.39012 -0.96158,4.29077 -2.90907,6.84924 -6.74487,8.86092 l -2.02067,1.05972 -40.6373,0.0675 c -22.35052,0.0371 -41.34453,-0.0789 -42.20892,-0.25796 z m 43.70328,-12.62634 c 2.39735,-1.88577 1.81615,-5.97978 -1.01543,-7.15266 -2.67866,-1.10953 -5.3299,0.48777 -5.72728,3.45053 -0.22365,1.66732 -0.0963,2.03832 1.11632,3.25088 1.65616,1.65616 3.86897,1.83363 5.62639,0.45125 z m -0.30906,-15.00519 c 0.51486,-0.36062 1.16081,-1.2194 1.43546,-1.90838 0.53212,-1.33488 3.21665,-29.44238 3.21665,-33.67893 0,-4.5645 -2.86716,-7.76208 -6.95998,-7.76208 -4.07046,0 -6.95998,3.20033 -6.95998,7.70862 0,2.83322 2.59251,31.91822 2.98414,33.47859 0.59667,2.37735 4.20425,3.61868 6.28371,2.16218 z m -78.19411,4.86885 C 95.790395,208.45433 86.456087,206.29219 78.680976,203.2117 45.983835,190.25708 23.517468,161.89978 18.248623,126.93332 17.243005,120.25957 17.243076,106.66441 18.248767,99.99146 21.314755,79.648016 30.215008,61.489392 44.278838,46.883971 59.258469,31.327472 78.210343,21.59016 100.0017,18.25403 c 6.81751,-1.043722 19.80482,-1.045699 26.94186,-0.0041 42.45191,6.195538 75.18039,38.649701 81.79673,81.111163 1.11168,7.134337 1.10884,21.653487 -0.006,28.470277 -1.36081,8.32408 -3.71425,16.66762 -6.60095,23.40201 l -0.92566,2.15949 -2.94809,-5.06367 c -1.63578,-2.80964 -3.92861,-6.02884 -5.15082,-7.23193 l -2.20274,-2.16826 1.08528,-3.7527 c 2.04863,-7.08376 2.69062,-12.11213 2.71496,-21.2649 0.0133,-5.00668 -0.21977,-10.01575 -0.56414,-12.12383 -1.4105,-8.634363 -4.27239,-17.617519 -7.95315,-24.96411 -1.81141,-3.615467 -7.10636,-11.845518 -9.19888,-14.298006 l -0.93384,-1.094491 C 137.85109,99.636113 99.645931,137.84127 61.440772,176.04642 l 1.094486,0.92202 c 4.956273,4.17527 14.574495,9.72712 21.431135,12.3705 17.117047,6.59901 37.240817,7.34231 53.578237,1.97901 1.50778,-0.49498 2.82629,-0.81508 2.93002,-0.71135 0.10373,0.10374 -2.08661,4.13214 -4.86743,8.952 l -5.05603,8.7634 -3.60016,0.53714 c -3.67815,0.54877 -17.87195,0.98121 -21.11237,0.64324 z m 59.66446,-158.624497 -1.09425,-0.925209 c -0.60184,-0.508865 -3.18456,-2.333794 -5.7394,-4.055405 C 131.96625,27.902679 96.461176,27.673855 69.243077,45.320958 60.120285,51.23581 51.28994,60.067964 45.336081,69.23284 c -18.514104,28.499098 -17.304612,65.59902 3.0336,93.05249 1.231238,1.66198 2.339941,3.02592 2.463788,3.03096 C 91.362039,125.14194 122.0513,94.331188 165.50357,50.877923 Z"
   id="path1872"
   sodipodi:nodetypes="cssssssscscsccssscssssssssccsssssscscsscsssssccssssscscccssssscc" /><path
   d="m 118.69872,118.78848 m -10.46741,-10.63699 m -36.343847,11.14943 c 0,-17.3008 0.051,-18.49308 0.82117,-19.19005 1.05106,-0.95121 2.10095,-0.92582 4.37205,0.10571 2.7189,1.23492 5.14649,3.57958 6.32384,6.10784 0.9774,2.09887 1.04733,2.80137 1.05143,10.56153 l 0.004,8.31308 -6.28644,6.27441 -6.28643,6.2744 z M 89.399675,88.67514 c 0,-34.114036 -0.0961,-32.717558 2.41236,-35.060828 1.50339,-1.404389 4.94639,-1.792209 6.90754,-0.778055 0.76232,0.394216 1.856615,1.376509 2.431765,2.182883 l 1.04572,1.466124 0.12352,25.370251 0.12352,25.370245 -6.522215,6.50513 -6.52221,6.50516 z M 106.91188,77.164392 c 0,-25.068215 0.0182,-25.596981 0.9454,-27.512361 2.32285,-4.798373 8.8636,-4.853314 11.29001,-0.09483 0.71138,1.395121 0.78517,3.353227 0.7858,20.853831 l 8.3e-4,19.314138 -6.51096,6.49934 -6.51095,6.49932 z m 17.96124,-4.527038 c 0,-10.885229 0.0839,-12.281235 0.8205,-13.654732 2.15784,-4.023528 8.4293,-4.175962 10.84723,-0.263655 0.78957,1.277535 0.90514,2.232585 0.90514,7.479478 v 6.014934 l -6.28643,6.274402 -6.28644,6.274403 z M 107.58543,180.83326 c -0.49394,-0.11714 -2.27325,-0.52722 -3.95403,-0.91129 -7.335105,-1.67611 -14.393875,-5.80153 -20.261527,-11.8416 l -3.560149,-3.66476 28.705886,-28.71315 28.70587,-28.71316 0.22451,2.40668 c 0.25534,2.73707 0.99486,3.89169 2.49258,3.89169 2.06712,0 2.44677,-0.99869 2.44677,-6.43657 v -5.02532 l 6.53141,-6.50514 6.53141,-6.50515 -0.15244,28.28895 -0.15246,28.28896 -1.18444,4.3591 c -3.34371,12.30594 -11.71319,22.33911 -22.97556,27.54264 -5.66289,2.61641 -9.21779,3.40272 -16.21333,3.58622 -3.45754,0.0907 -6.69057,0.069 -7.1845,-0.0481 z"
   style="fill:#000000;fill-opacity:1;stroke-width:0.449031"
   id="path2456" /></svg>
