<?xml version="1.0" encoding="UTF-8" standalone="no"?>
<!-- Created with Inkscape (http://www.inkscape.org/) -->

<svg
   width="250"
   height="250"
   viewBox="0 0 66.145832 66.145833"
   version="1.1"
   id="svg240"
   xml:space="preserve"
   inkscape:version="1.2.2 (b0a8486541, 2022-12-01)"
   sodipodi:docname="roadsign_traffic_light.svg"
   xmlns:inkscape="http://www.inkscape.org/namespaces/inkscape"
   xmlns:sodipodi="http://sodipodi.sourceforge.net/DTD/sodipodi-0.dtd"
   xmlns="http://www.w3.org/2000/svg"
   xmlns:svg="http://www.w3.org/2000/svg"><sodipodi:namedview
     id="namedview242"
     pagecolor="#ffffff"
     bordercolor="#666666"
     borderopacity="1.0"
     inkscape:showpageshadow="2"
     inkscape:pageopacity="0.0"
     inkscape:pagecheckerboard="0"
     inkscape:deskcolor="#d1d1d1"
     inkscape:document-units="mm"
     showgrid="false"
     inkscape:zoom="0.84720118"
     inkscape:cx="342.89376"
     inkscape:cy="561.25984"
     inkscape:window-width="1870"
     inkscape:window-height="1131"
     inkscape:window-x="1490"
     inkscape:window-y="851"
     inkscape:window-maximized="1"
     inkscape:current-layer="layer1" /><defs
     id="defs237" /><g
     inkscape:label="Layer 1"
     inkscape:groupmode="layer"
     id="layer1"><path
       style="fill:#030303;stroke:none;stroke-width:0.105007"
       d="m 22.99224,12.069038 c -0.90873,0 -3.38259,-0.43091 -3.98932,0.35642 -0.46592,0.60462 0.0159,1.89971 0.13,2.58378 l 0.99819,5.9854 c 0.11877,0.71268 0.096,1.89349 0.55181,2.4788 0.45805,0.58794 1.65397,0.3564 2.30932,0.3564 v 2.52017 c -0.90873,0 -3.38259,-0.43095 -3.98932,0.35639 -0.46592,0.60463 0.0159,1.89979 0.13,2.5838 l 0.99819,5.98541 c 0.11877,0.71258 0.096,1.89349 0.55181,2.47879 0.45805,0.58794 1.65397,0.3564 2.30932,0.3564 v 1.68011 c -0.90873,0 -3.38259,-0.43095 -3.98932,0.3564 -0.46592,0.60463 0.0159,1.89979 0.13,2.5838 l 0.99819,5.98541 c 0.11877,0.71268 0.096,1.89348 0.55181,2.4788 0.45805,0.58793 1.65397,0.35639 2.30932,0.35639 l 0.27859,1.40153 1.61154,0.27858 h 3.99027 v 3.88526 c 0,0.50446 -0.11919,1.21137 0.21096,1.63875 0.38863,0.50288 1.22879,0.35639 1.78417,0.35639 h 4.51531 c 0.53427,0 1.30608,0.12643 1.67917,-0.35639 0.33014,-0.42728 0.21096,-1.13429 0.21096,-1.63875 v -3.88526 h 3.99026 l 1.61155,-0.27858 0.27858,-1.40153 c 0.65535,0 1.85128,0.23154 2.30932,-0.35639 0.45584,-0.58532 0.43305,-1.76612 0.55181,-2.4788 l 0.9982,-5.98541 c 0.11404,-0.68401 0.59591,-1.97917 0.13,-2.5838 -0.60673,-0.78735 -3.08059,-0.3564 -3.98933,-0.3564 v -1.68011 c 0.65535,0 1.85128,0.23154 2.30932,-0.3564 0.45584,-0.5853 0.43305,-1.76611 0.55181,-2.47879 l 0.9982,-5.98541 c 0.11404,-0.68401 0.59591,-1.97917 0.13,-2.5838 -0.60673,-0.78734 -3.08059,-0.35639 -3.98933,-0.35639 v -2.52017 c 0.65535,0 1.85128,0.23154 2.30932,-0.3564 0.45584,-0.58531 0.43305,-1.76612 0.55181,-2.4788 l 0.9982,-5.9854 c 0.11404,-0.68407 0.59591,-1.97916 0.13,-2.58378 -0.60673,-0.78733 -3.08059,-0.35642 -3.98933,-0.35642 v -1.05007 c -4e-4,-0.24199 0.0148,-0.49605 -0.0414,-0.73344 -0.33791,-1.4267303 -2.32055,-0.2916103 -3.18214,-0.8445903 -0.77274,-0.49604 -0.81789,-1.62913 -1.81683,-2.11602 -0.84478,-0.41178 -1.81809,-0.29622 -2.73018,-0.29622 h -4.62031 c -0.91829,0 -1.87554,-0.10645 -2.73019,0.29363 -1.01857,0.47685 -1.03547,1.61706 -1.81683,2.11861 -0.86158,0.55299 -2.84422,-0.58215 -3.18213,0.8445903 -0.0562,0.23737 -0.041,0.49145 -0.0414,0.73344 v 1.05007 M 38.00821,9.5488677 h -9.87067 c 0.37845,-0.93203 1.23982,-0.84006 2.10014,-0.84006 h 5.67038 c 0.86033,0 1.7217,-0.092 2.10015,0.84006 m 3.46523,1.6801103 v 40.32273 H 24.6723 v -40.32273 h 16.80114 m -9.03061,0.88503 c -1.33758,0.19161 -2.56753,0.70074 -3.54021,1.66553 -3.74056,3.71038 -0.68496,10.68097 4.69529,10.02026 1.12064,-0.13766 2.13626,-0.49689 3.0451,-1.17524 4.57348,-3.41399 1.58708,-11.33961 -4.20018,-10.51055 m -9.45064,1.63514 v 8.40057 c -1.31405,-0.001 -1.15655,-1.00439 -1.33915,-2.10014 -0.34779,-2.08649 -0.57009,-4.2468 -1.07601,-6.30043 h 2.41516 m 9.45064,0.0315 c 5.37447,-0.77445 6.66837,7.55787 1.26009,8.33755 -5.37437,0.77474 -6.67163,-7.55776 -1.26009,-8.33755 m 13.12589,-0.0315 c -0.50593,2.05362 -0.72823,4.21394 -1.07601,6.30043 -0.18261,1.09585 -0.0251,2.09909 -1.33916,2.10014 v -8.40057 h 2.41517 m -13.12589,11.80574 c -1.33758,0.19164 -2.56753,0.70082 -3.54021,1.66552 -3.74056,3.71042 -0.68496,10.68101 4.69529,10.0203 1.12064,-0.13766 2.13626,-0.49689 3.0451,-1.17524 4.57348,-3.41399 1.58708,-11.33961 -4.20018,-10.51058 m 0,1.66667 c 5.37447,-0.77442 6.66837,7.55789 1.26009,8.33757 -5.37437,0.77474 -6.67163,-7.55778 -1.26009,-8.33757 m -9.45064,0.80856 v 8.40057 c -1.31405,-0.001 -1.15655,-1.0044 -1.33915,-2.10015 -0.34779,-2.08649 -0.57009,-4.2468 -1.07601,-6.30042 h 2.41516 m 22.57653,0 c -0.50593,2.05362 -0.72823,4.21393 -1.07601,6.30042 -0.18261,1.09575 -0.0251,2.0991 -1.33916,2.10015 v -8.40057 h 2.41517 m -13.12589,10.96568 c -1.33758,0.19164 -2.56753,0.70082 -3.54021,1.66552 -3.74056,3.71043 -0.68496,10.68101 4.69529,10.0203 1.12064,-0.13766 2.13626,-0.49689 3.0451,-1.17524 4.57348,-3.41399 1.58708,-11.33961 -4.20018,-10.51058 m 0,1.66667 c 5.37458,-0.77443 6.66837,7.55789 1.26009,8.33757 -5.37437,0.77474 -6.67163,-7.55778 -1.26009,-8.33757 m -9.45064,0.80856 v 8.40056 c -1.31405,-0.001 -1.15655,-1.00439 -1.33915,-2.10013 -0.34779,-2.0865 -0.57009,-4.24681 -1.07601,-6.30043 h 2.41516 m 22.57653,0 c -0.50593,2.05362 -0.72823,4.21393 -1.07601,6.30043 -0.18261,1.09574 -0.0251,2.09909 -1.33916,2.10013 v -8.40056 h 2.41517 m -9.97568,11.76079 v 4.20029 H 30.5527 v -4.20029 z"
       id="path425" /></g></svg>
