<?xml version="1.0" encoding="UTF-8" standalone="no"?>
<!-- Generator: Adobe Illustrator 19.0.0, SVG Export Plug-In . SVG Version: 6.00 Build 0)  -->

<svg
   version="1.1"
   id="Layer_1"
   x="0px"
   y="0px"
   viewBox="0 0 231.51111 231.51111"
   xml:space="preserve"
   sodipodi:docname="roadworks.svg"
   inkscape:version="1.2.2 (b0a8486541, 2022-12-01)"
   width="231.51111"
   height="231.51111"
   xmlns:inkscape="http://www.inkscape.org/namespaces/inkscape"
   xmlns:sodipodi="http://sodipodi.sourceforge.net/DTD/sodipodi-0.dtd"
   xmlns="http://www.w3.org/2000/svg"
   xmlns:svg="http://www.w3.org/2000/svg"><defs
   id="defs13" /><sodipodi:namedview
   id="namedview11"
   pagecolor="#ffffff"
   bordercolor="#000000"
   borderopacity="0.25"
   inkscape:showpageshadow="2"
   inkscape:pageopacity="0.0"
   inkscape:pagecheckerboard="0"
   inkscape:deskcolor="#d1d1d1"
   showgrid="false"
   inkscape:zoom="3.804"
   inkscape:cx="102.91798"
   inkscape:cy="115.79916"
   inkscape:window-width="1870"
   inkscape:window-height="1131"
   inkscape:window-x="1490"
   inkscape:window-y="851"
   inkscape:window-maximized="1"
   inkscape:current-layer="g2493" />

<g
   id="g2493"
   transform="translate(191.64962,-2.7525804)"><rect
     style="fill:#ffcc00;fill-opacity:1;stroke:#000000;stroke-width:10;stroke-dasharray:none"
     id="rect2557"
     width="168.11163"
     height="168.11163"
     x="-53.923122"
     y="53.407299"
     transform="rotate(45)"
     ry="19.540094" /><path
     style="fill:#000000;fill-opacity:1;stroke-width:0.491552"
     d="m -94.330586,159.44612 c -1.28095,-0.46826 -3.01124,-2.29058 -3.99329,-4.20568 -0.67501,-1.31635 -1.2829,-4.74756 -2.109374,-11.9063 l -1.16108,-10.05701 -2.83275,-2.59451 c -3.23339,-2.96145 -4.62434,-4.01298 -4.91879,-3.71853 -0.11283,0.11282 -2.52474,6.37747 -5.35981,13.92142 -2.83507,7.54396 -5.56907,14.27608 -6.07557,14.96025 -1.32126,1.78479 -3.96042,3.45596 -5.45772,3.45596 -1.9696,0 -4.53623,-1.60977 -5.53452,-3.47118 -1.10418,-2.05887 -1.19897,-6.90064 -0.19394,-9.90646 0.38734,-1.15845 2.8064,-9.3077 5.37569,-18.10943 5.59189,-19.15641 8.45014,-26.01175 14.43718,-34.626777 1.35577,-1.95086 0.68326,-1.41339 -3.26075,2.60599 -6.8342,6.964817 -9.86644,8.077357 -13.12734,4.816457 -1.32523,-1.325227 -1.67021,-2.063127 -1.66611,-3.563757 0.006,-2.30676 1.78081,-4.78317 9.58011,-13.369442 5.56938,-6.131335 6.81318,-7.005556 12.04305,-8.464603 1.21659,-0.339412 4.09217,-0.61475 6.39018,-0.611865 5.176214,0.0065 7.962374,1.002881 14.087173,5.037851 4.827623,3.180395 7.71989,6.050209 8.879959,8.811018 0.413455,0.98397 1.899866,7.421571 3.303136,14.305768 l 2.551399,12.51673 16.889479,7.80988 16.889483,7.80987 1.994285,-0.65817 c 6.814726,-2.24907 15.005162,1.63693 17.499083,8.30252 0.841969,2.25036 0.9784,3.83257 0.9784,11.34622 0,6.13553 -0.175353,8.90656 -0.58986,9.32106 -0.445943,0.44595 -7.937467,0.58986 -30.70475,0.58986 -29.681657,0 -30.122511,-0.0143 -30.644717,-0.98999 -0.650796,-1.21602 -0.190979,-4.01132 1.07359,-6.52647 2.007079,-3.99196 7.041523,-7.4932 12.629027,-8.78296 2.153409,-0.49705 2.54293,-0.7902 3.309817,-2.49085 0.478044,-1.06012 1.935498,-2.8862 3.238776,-4.05796 3.961168,-3.56143 8.88941,-4.56797 14.110204,-2.88184 1.385833,0.44757 2.664694,0.66877 2.841915,0.49155 0.177213,-0.17722 0.230044,-0.40318 0.117401,-0.50215 -0.171247,-0.15045 -27.132641,-12.7153 -28.753841,-13.40019 -0.291791,-0.12327 -0.797982,0.66855 -1.124869,1.75961 -0.660745,2.20537 -2.450022,3.46412 -4.924159,3.46412 -3.75739,0 -5.402828,-1.8939 -6.696187,-7.70729 l -0.805507,-3.62062 -2.790433,-1.39945 c -4.55297,-2.28341 -4.75257,-2.29374 -5.97882,-0.30962 l -1.07767,1.7437 1.52924,2.57444 c 2.80445,4.72119 5.902856,11.38978 6.646747,14.30553 0.943654,3.69876 1.135393,24.01903 0.245079,25.97306 -0.901685,1.97898 -4.255216,2.9619 -6.858546,2.01024 z m 6.717371,-51.47676 c -0.148247,-0.38633 -0.417731,-1.49232 -0.598848,-2.45776 -0.395321,-2.10727 -0.81904,-2.20652 -1.722763,-0.40357 -0.37266,0.74347 -0.75366,1.50343 -0.84665,1.6888 -0.17045,0.33976 2.234252,1.81872 3.016554,1.85527 0.231688,0.0108 0.29996,-0.2964 0.151707,-0.68274 z m 1.635844,-29.226283 c -5.308935,-1.717191 -8.353215,-5.678766 -8.353215,-10.870172 0,-11.733997 15.995144,-15.345116 20.939083,-4.727277 2.547349,5.470805 0.441965,11.906817 -4.769423,14.579777 -2.07881,1.066237 -6.062703,1.584928 -7.816445,1.017672 z"
     id="path2495"
     sodipodi:nodetypes="ssscsssssssssssssssssscccssssssssssssssssscsscsssssssssssssss" /></g></svg>
