<?xml version="1.0" encoding="UTF-8" standalone="no"?>
<!-- Created with Inkscape (http://www.inkscape.org/) -->

<svg
   width="200mm"
   height="200mm"
   viewBox="0 0 200 200"
   version="1.1"
   id="svg5"
   xml:space="preserve"
   inkscape:version="1.2.2 (b0a8486541, 2022-12-01)"
   sodipodi:docname="roundabout-left.svg"
   xmlns:inkscape="http://www.inkscape.org/namespaces/inkscape"
   xmlns:sodipodi="http://sodipodi.sourceforge.net/DTD/sodipodi-0.dtd"
   xmlns="http://www.w3.org/2000/svg"
   xmlns:svg="http://www.w3.org/2000/svg"><sodipodi:namedview
     id="namedview7"
     pagecolor="#ffffff"
     bordercolor="#666666"
     borderopacity="1.0"
     inkscape:showpageshadow="2"
     inkscape:pageopacity="0.0"
     inkscape:pagecheckerboard="0"
     inkscape:deskcolor="#d1d1d1"
     inkscape:document-units="mm"
     showgrid="false"
     inkscape:zoom="1.2580937"
     inkscape:cx="377.95276"
     inkscape:cy="377.95276"
     inkscape:window-width="1870"
     inkscape:window-height="1131"
     inkscape:window-x="1490"
     inkscape:window-y="851"
     inkscape:window-maximized="1"
     inkscape:current-layer="layer1" /><defs
     id="defs2" /><g
     inkscape:label="Layer 1"
     inkscape:groupmode="layer"
     id="layer1"
     transform="translate(-55.203966,-75.629671)"><path
       style="fill:#376fde;fill-opacity:1;stroke-width:0.447934"
       d="m 148.66775,275.42753 c -38.80763,-2.53299 -72.430154,-27.14526 -86.861691,-63.58429 -4.507802,-11.38199 -6.602093,-22.88827 -6.602093,-36.27267 0,-20.44623 5.427532,-38.67081 16.408904,-55.09785 16.123628,-24.119334 40.37258,-39.556307 68.9898,-43.919165 8.08002,-1.231845 21.0439,-1.231845 29.12392,0 36.0388,5.49432 65.47405,28.972505 78.82021,62.868695 7.46099,18.94919 8.71366,41.44997 3.43905,61.77311 -6.98001,26.89403 -26.13791,50.67416 -51.11909,63.45262 -15.81249,8.08843 -34.45288,11.93785 -52.19901,10.77955 z m 19.50529,-32.93866 c 15.38115,-2.91613 30.17853,-11.81258 40.17239,-24.15237 2.56606,-3.1684 5.95792,-8.47326 7.516,-11.75503 0.73085,-1.53935 1.53734,-2.79571 1.79222,-2.79191 0.25488,0.003 3.07125,1.5196 6.2586,3.36845 3.18734,1.84884 5.92246,3.30672 6.07804,3.23971 0.28436,-0.12254 -6.83332,-36.91429 -7.19773,-37.2056 -0.21317,-0.17042 -35.6048,11.86546 -35.96868,12.23209 -0.12311,0.12407 2.38119,1.72143 5.56527,3.54951 3.18409,1.82807 5.78925,3.49478 5.78925,3.70381 0,0.71412 -3.25502,6.84644 -5.06265,9.53778 -2.31184,3.44209 -7.82087,8.91154 -11.47196,11.38959 -5.563,3.77565 -12.97038,6.70243 -19.87028,7.85106 -0.93027,0.15486 -1.68021,0.53796 -1.68021,0.85832 0,0.7161 1.67831,16.36291 2.03504,18.97253 0.30661,2.24305 0.42732,2.26705 6.0447,1.20206 z m -40.89593,-25.80514 c 2.01887,-10.14513 3.58647,-18.52982 3.48358,-18.63266 -0.10297,-0.1029 -2.69277,1.24546 -5.75526,2.99621 -3.0625,1.75075 -5.74742,3.18319 -5.96649,3.18319 -0.56641,0 -3.90539,-5.07385 -5.57597,-8.47311 -3.12599,-6.36073 -4.47374,-12.43633 -4.47806,-20.18679 -0.003,-5.76412 0.73384,-10.31153 2.50046,-15.42702 0.65564,-1.89849 1.12399,-3.50012 1.0408,-3.55915 -0.0831,-0.0591 -2.26835,-1.03907 -4.8559,-2.17786 -2.58755,-1.13879 -6.96874,-3.07788 -9.735968,-4.3091 l -5.031342,-2.23861 -0.932281,2.10085 c -1.560062,3.51549 -3.446233,10.41617 -4.256738,15.57353 -1.094819,6.9664 -0.712436,18.25533 0.840547,24.81512 1.941987,8.20293 5.177741,15.99497 9.020564,21.72244 1.11658,1.66416 2.030132,3.16405 2.030132,3.33306 0,0.16909 -2.721976,1.87329 -6.048821,3.78727 -3.326844,1.91398 -6.046889,3.61303 -6.044535,3.77564 0.0051,0.32938 34.321352,12.09003 35.407502,12.13453 0.55035,0.0225 1.41771,-3.64322 4.35778,-18.41754 z m 74.26835,-74.77218 c 6.94561,-5.07311 8.60715,-6.48478 8.30129,-7.05303 -0.95821,-1.7803 -6.95506,-8.18425 -10.36666,-11.0704 -8.96652,-7.58552 -18.76913,-12.41333 -30.47915,-15.0111 -3.90619,-0.86655 -5.9589,-1.03324 -12.81699,-1.04079 l -8.16591,-0.008 -0.12328,-7.28749 -0.12312,-7.287488 -14.11388,12.335208 c -7.76264,6.78437 -14.1139,12.52787 -14.1139,12.76333 0,0.23546 6.35126,5.97901 14.1139,12.76343 l 14.11388,12.33532 0.12363,-6.72222 c 0.14072,-7.64838 -0.32594,-6.91701 4.68567,-7.34398 6.54634,-0.55772 15.3727,1.18723 22.08881,4.3669 6.69233,3.16843 11.99122,7.19829 15.88683,12.08211 1.10632,1.38698 2.07758,2.52176 2.15833,2.52176 0.0808,0 4.05452,-2.85416 8.83054,-6.34258 z"
       id="path856" /></g></svg>
