<?xml version="1.0" encoding="UTF-8" standalone="no"?>
<!-- Generator: Adobe Illustrator 19.0.0, SVG Export Plug-In . SVG Version: 6.00 Build 0)  -->

<svg
   version="1.1"
   id="Layer_1"
   x="0px"
   y="0px"
   viewBox="0 0 250 250"
   style="enable-background:new 0 0 250 250;"
   xml:space="preserve"
   sodipodi:docname="small-wadi.svg"
   inkscape:version="1.2.2 (b0a8486541, 2022-12-01)"
   xmlns:inkscape="http://www.inkscape.org/namespaces/inkscape"
   xmlns:sodipodi="http://sodipodi.sourceforge.net/DTD/sodipodi-0.dtd"
   xmlns="http://www.w3.org/2000/svg"
   xmlns:svg="http://www.w3.org/2000/svg"><defs
   id="defs13" /><sodipodi:namedview
   id="namedview11"
   pagecolor="#ffffff"
   bordercolor="#000000"
   borderopacity="0.25"
   inkscape:showpageshadow="2"
   inkscape:pageopacity="0.0"
   inkscape:pagecheckerboard="0"
   inkscape:deskcolor="#d1d1d1"
   showgrid="false"
   inkscape:zoom="4.556"
   inkscape:cx="125"
   inkscape:cy="125"
   inkscape:window-width="2510"
   inkscape:window-height="1363"
   inkscape:window-x="0"
   inkscape:window-y="0"
   inkscape:window-maximized="1"
   inkscape:current-layer="g6737" />

<g
   id="g6737"
   transform="translate(9.753321,80.817129)"><path
     id="path6735"
     style="fill:#cccccc;stroke:none;stroke-width:2;stroke-dasharray:none"
     d="m 217.68322,2.682825 c 0.46671,0 -0.86779,-0.372124 -1.32981,-0.438124 -0.39965,-0.05709 -3.1941,-0.12336 -3.45269,0 -0.16306,0.07779 -0.21501,0.317401 -0.38325,0.383251 -0.67491,0.264174 -1.99773,0 -2.75564,0 -1.76121,0 -3.68432,0.251164 -5.42554,0 -0.45577,-0.06574 -0.90354,-0.189992 -1.36238,-0.228922 -0.0989,-0.0084 -1.88825,0.108113 -2.16747,-0.219491 -0.0439,-0.05155 0.061,-0.17382 0,-0.2032 -1.19001,-0.572924 -2.66317,-0.493523 -3.77593,-1.328091 -1.05994,-0.794952 -2.44925,-2.093802 -3.73906,-2.4204 -0.20973,-0.05311 -0.49606,-0.152981 -0.64904,0 -0.29698,0.296983 -0.34965,0.785774 -0.6499,1.079449 -0.36666,0.358628 -3.68967,0.949315 -4.32465,0.988565 -3.57561,0.221008 -7.0358,-0.47582 -10.60072,-0.21949 -1.77575,0.127682 -1.38439,0.33283 -2.81909,0.650756 -1.30157,0.288424 -2.60702,0.559015 -3.91054,0.838523 -0.97599,0.195198 -1.95549,0.373606 -2.92797,0.585594 -0.8804,0.191918 -1.72801,0.521196 -2.6116,0.697913 -2.11744,0.423489 -4.49073,0.21949 -6.63959,0.21949 -0.25322,0 -0.58255,-0.180983 -0.75965,0 -0.3213,0.328359 -0.25889,0.935374 -0.43898,1.280077 -0.36154,0.692024 -1.47157,0.528304 -2.22663,0.727064 -4.15277,1.093174 -8.17773,2.085896 -12.42438,2.792505 -0.55478,0.09231 -1.11896,0.125884 -1.67104,0.233209 -0.2307,0.04485 -1.0566,0.421982 -1.31437,0.438982 -1.8548,0.122347 -6.80847,-0.171281 -8.56958,-0.482708 -0.20377,-0.03603 -0.26153,-0.332513 -0.43898,-0.438982 -0.2221,-0.13326 -1.46162,-0.427381 -1.59645,-0.438981 -0.91059,-0.07833 -2.47601,0.296539 -3.36438,0 -0.0913,-0.03046 -0.10886,-0.190278 -0.20406,-0.204058 -1.56197,-0.226124 -5.85831,0.30794 -7.35894,0.545297 -1.35144,0.213758 -2.64152,1.024941 -4.00399,1.165188 -0.76879,0.07913 -5.90963,0.140787 -6.26835,-0.218634 -0.62767,-0.628898 0.19562,-1.783157 -0.21949,-2.405825 -0.31984,-0.479748 -0.77489,-0.858051 -1.10517,-1.330662 -0.97975,-1.40193 -1.61037,-3.072015 -3.3198,-3.771641 -1.04963,-0.429582 -2.43977,0.563272 -3.487016,0.658472 -0.683238,0.06211 -2.391166,-0.343992 -2.993146,0 C 95.455642,2.15413 94.887161,2.1302 93.748052,2.05779 84.866298,1.493201 75.751997,1.591835 66.8913,2.05779 60.360406,2.401229 65.65225,1.905504 63.742122,2.542213 c -0.936837,0.312279 -4.026673,-0.0881 -5.15289,0 -1.268318,0.09922 -2.439077,0.502512 -3.663609,0.674763 -2.77281,0.390043 -9.99017,0.557925 -12.210032,0.276936 C 39.132687,3.040389 35.904839,1.461657 32.334363,1.064938 29.812835,0.784768 27.091854,1.33895 24.755071,2.230125 c -0.46264,0.176436 -0.854779,0.521034 -1.328948,0.663617 -0.978568,0.294254 -3.143105,-0.0641 -4.136886,0 -1.675163,0.108047 -3.20576,0.455405 -4.838229,0.658472 C 12.96458,3.737115 11.010523,3.07467 9.6625079,2.748843 7.504339,2.227195 5.510179,1.831528 3.473043,1.180685 L 3.168709,66.954182 m 0,0 c 4.200247,0.11596 8.265101,1.58517 12.412333,2.008 2.611656,0.26627 5.251135,0.12494 7.869087,0.3198 2.437988,0.18147 4.84786,0.68549 7.289495,0.80852 2.915129,0.14688 5.838729,-0.0792 8.756482,0 4.434013,0.12036 8.896355,0.70183 13.346068,0.42955 2.515804,-0.15395 1.004765,-0.38171 3.797362,-0.78194 2.929407,-0.41984 3.847493,-0.34724 6.506701,-0.34724 0.195682,0 2.861564,0.18284 3.411539,0 2.849644,-0.94738 5.653219,-1.83233 8.430675,-2.96998 0.404851,-0.16583 0.748329,-0.45346 1.123175,-0.67905 0.373081,-0.22454 0.83275,-0.34462 1.120604,-0.67134 0.356338,-0.40445 0.246628,-1.28716 0.880535,-1.54072 0.203792,-0.0815 0.438982,0 0.658472,0 3.634432,0 1.996529,-0.2499 6.476693,1.33667 1.605484,0.56855 5.717481,2.28981 7.872521,2.74363 3.005326,0.63288 6.431227,0.26836 9.484439,0.26836 2.74894,0 5.55582,-0.16011 8.30121,0 4.91429,0.28661 -0.67258,0.19336 5.21376,0.50929 2.62893,0.1411 5.29563,0 7.92911,0 h 10.27577 c 0.13421,0 1.87539,0.27765 2.39982,-0.21949 0.19053,-0.18061 -0.20752,-0.52801 -0.43727,-0.65504 -0.057,-0.0315 -0.0469,0.15022 0,0.19548 0.97688,0.94312 2.1179,1.71749 3.02657,2.72649 0.20188,0.22416 0.1241,0.59178 0.2195,0.87796 0.43426,1.30281 1.7683,1.59823 2.84394,2.40497 0.44261,0.33195 1.28481,1.50429 1.75593,1.97541 1.09051,1.09051 1.81239,2.27063 3.35409,2.89197 0.7053,0.28424 1.49133,0.29814 2.23692,0.44755 0.77889,0.15608 1.62722,0.57287 2.4144,0.65847 1.61776,0.17594 3.29061,-0.36748 4.88967,-0.50757 0.41824,-0.0366 0.86019,0.12964 1.2595,0 0.14406,-0.0468 2.74666,-0.17953 2.89625,-0.2032 0.81976,-0.12969 -0.8281,0.0553 0,0 2.61583,-0.17469 4.45298,-1.22195 6.93025,-1.77222 0.21678,-0.0481 0.44774,0.0399 0.66619,0 2.5911,-0.47274 6.82422,-2.00537 9.0197,-2.85766 0.78513,-0.30479 0.30469,-0.98052 0.44413,-1.54158 0.21837,-0.87867 1.7502,-1.76036 2.46755,-1.99857 0.95532,-0.31722 3.09592,-0.56678 4.18748,-0.66019 4.43901,-0.37985 8.90151,-0.64679 13.33492,-1.10088 0.7525,-0.10346 1.505,-0.20691 2.2575,-0.31037 0.22377,-0.0732 0.43904,-0.18115 0.67133,-0.21949 0.96121,-0.15866 2.18628,0.30469 3.10631,0 0.0353,-0.0117 0.37831,-0.40008 0.42183,-0.42184 1.13859,-0.56929 6.0178,-0.0281 7.22005,0.21692 0.45524,0.0928 1.36969,0.52018 1.7122,0.63104 0.27245,0.0882 0.58161,-0.0708 0.8591,0 0.50794,0.12951 0.67577,0.86939 1.28093,0.86939 0.0434,0 2.11137,0.19977 1.35724,0.19977 l 0.56245,-67.332227"
     sodipodi:nodetypes="csssssssssssssssssssssscsssssssssssscssssccssssscsccssssssscssssssscsssssssssssssssssssssssssssssssssscc" /></g><g
   id="g6731"
   transform="translate(5.1964457,-7.5081918)"><path
     style="fill:none;stroke:#000000;stroke-width:2;stroke-dasharray:none"
     d="m 7.7989523,89.365393 c 2.037136,0.650843 4.0312957,1.04651 6.1894677,1.568158 1.348016,0.325827 3.302073,0.988272 4.7885,0.803371 1.632469,-0.203067 3.163066,-0.550425 4.838229,-0.658472 0.993781,-0.0641 3.158318,0.294254 4.136886,0 0.474169,-0.142583 0.866308,-0.487181 1.328948,-0.663617 2.336783,-0.891175 5.057764,-1.445357 7.579292,-1.165187 3.570476,0.396719 6.798324,1.975451 10.381228,2.428974 2.219862,0.280989 9.437222,0.113107 12.210032,-0.276936 1.224532,-0.172251 2.395291,-0.57554 3.663609,-0.674763 1.126217,-0.0881 4.216053,0.312279 5.15289,0 1.910128,-0.636709 -3.381716,-0.140984 3.149178,-0.484423 8.860697,-0.465955 17.974998,-0.564589 26.856752,0 1.13911,0.07241 1.70759,0.09634 2.645896,-0.439839 0.60198,-0.343992 2.30991,0.06211 2.99313,0 1.04722,-0.0952 2.43736,-1.088054 3.48699,-0.658472 1.70943,0.699626 2.34005,2.369711 3.3198,3.771641 0.33028,0.472611 0.78533,0.850914 1.10517,1.330662 0.41511,0.622668 -0.40818,1.776927 0.21949,2.405825 0.35872,0.359421 5.49956,0.297768 6.26835,0.218634 1.36247,-0.140247 2.65255,-0.95143 4.00399,-1.165188 1.50063,-0.237357 5.79697,-0.771421 7.35894,-0.545297 0.0952,0.01378 0.11281,0.1736 0.20406,0.204058 0.88837,0.296539 2.45379,-0.07833 3.36438,0 0.13483,0.0116 1.37435,0.305721 1.59645,0.438981 0.17745,0.106469 0.23521,0.402947 0.43898,0.438982 1.76111,0.311427 6.71478,0.605055 8.56958,0.482708 0.25777,-0.017 1.08367,-0.394133 1.31437,-0.438982 0.55208,-0.107325 1.11626,-0.140897 1.67104,-0.233209 4.24665,-0.706609 8.27161,-1.699331 12.42438,-2.792505 0.75506,-0.19876 1.86509,-0.03504 2.22663,-0.727064 0.18009,-0.344703 0.11768,-0.951718 0.43898,-1.280077 0.1771,-0.180983 0.50643,0 0.75965,0 2.14886,0 4.52215,0.203999 6.63959,-0.21949 0.88359,-0.176717 1.7312,-0.505995 2.6116,-0.697913 0.97248,-0.211988 1.95198,-0.390396 2.92797,-0.585594 1.30352,-0.279508 2.60897,-0.550099 3.91054,-0.838523 1.4347,-0.317926 1.04334,-0.523074 2.81909,-0.650756 3.56492,-0.25633 7.02511,0.440498 10.60072,0.21949 0.63498,-0.03925 3.95799,-0.629937 4.32465,-0.988565 0.30025,-0.293675 0.35292,-0.782466 0.6499,-1.079449 0.15298,-0.152981 0.43931,-0.05311 0.64904,0 1.28981,0.326598 2.67912,1.625448 3.73906,2.4204 1.11276,0.834568 2.58592,0.755167 3.77593,1.328091 0.061,0.02938 -0.0439,0.15165 0,0.2032 0.27922,0.327604 2.06853,0.211097 2.16747,0.219491 0.45884,0.03893 0.90661,0.163178 1.36238,0.228922 1.74122,0.251164 3.66433,0 5.42554,0 0.75791,0 2.08073,0.264174 2.75564,0 0.16824,-0.06585 0.22019,-0.305462 0.38325,-0.383251 0.25859,-0.12336 3.05304,-0.05709 3.45269,0 0.46202,0.066 1.79652,0.438124 1.32981,0.438124"
     id="path6725" /><path
     style="fill:none;stroke:#000000;stroke-width:2;stroke-dasharray:none"
     d="m 7.4946183,155.13889 c 4.2002467,0.11596 8.2651047,1.58517 12.4123367,2.008 2.611656,0.26627 5.251135,0.12494 7.869087,0.3198 2.437988,0.18147 4.84786,0.68549 7.289495,0.80852 2.915129,0.14688 5.838729,-0.0792 8.756482,0 4.434013,0.12036 8.896355,0.70183 13.346068,0.42955 2.515804,-0.15395 1.004765,-0.38171 3.797362,-0.78194 2.929407,-0.41984 3.847493,-0.34724 6.506701,-0.34724 0.195682,0 2.861564,0.18284 3.411539,0 2.849644,-0.94738 5.653219,-1.83233 8.430675,-2.96998 0.404851,-0.16583 0.748329,-0.45346 1.123175,-0.67905 0.373081,-0.22454 0.83275,-0.34462 1.120604,-0.67134 0.356338,-0.40445 0.246628,-1.28716 0.880535,-1.54072 0.203792,-0.0815 0.438982,0 0.658472,0 3.634432,0 1.996529,-0.2499 6.476693,1.33667 1.605484,0.56855 5.717481,2.28981 7.872521,2.74363 3.005326,0.63288 6.431196,0.26836 9.484396,0.26836 2.74894,0 5.55582,-0.16011 8.30121,0 4.91429,0.28661 -0.67258,0.19336 5.21376,0.50929 2.62893,0.1411 5.29563,0 7.92911,0 h 10.27577 c 0.13421,0 1.87539,0.27765 2.39982,-0.21949 0.19053,-0.18061 -0.20752,-0.52801 -0.43727,-0.65504 -0.057,-0.0315 -0.0469,0.15022 0,0.19548 0.97688,0.94312 2.1179,1.71749 3.02657,2.72649 0.20188,0.22416 0.1241,0.59178 0.2195,0.87796 0.43426,1.30281 1.7683,1.59823 2.84394,2.40497 0.44261,0.33195 1.28481,1.50429 1.75593,1.97541 1.09051,1.09051 1.81239,2.27063 3.35409,2.89197 0.7053,0.28424 1.49133,0.29814 2.23692,0.44755 0.77889,0.15608 1.62722,0.57287 2.4144,0.65847 1.61776,0.17594 3.29061,-0.36748 4.88967,-0.50757 0.41824,-0.0366 0.86019,0.12964 1.2595,0 0.14406,-0.0468 2.74666,-0.17953 2.89625,-0.2032 0.81976,-0.12969 -0.8281,0.0553 0,0 2.61583,-0.17469 4.45298,-1.22195 6.93025,-1.77222 0.21678,-0.0481 0.44774,0.0399 0.66619,0 2.5911,-0.47274 6.82422,-2.00537 9.0197,-2.85766 0.78513,-0.30479 0.30469,-0.98052 0.44413,-1.54158 0.21837,-0.87867 1.7502,-1.76036 2.46755,-1.99857 0.95532,-0.31722 3.09592,-0.56678 4.18748,-0.66019 4.43901,-0.37985 8.90151,-0.64679 13.33492,-1.10088 0.7525,-0.10346 1.505,-0.20691 2.2575,-0.31037 0.22377,-0.0732 0.43904,-0.18115 0.67133,-0.21949 0.96121,-0.15866 2.18628,0.30469 3.10631,0 0.0353,-0.0117 0.37831,-0.40008 0.42183,-0.42184 1.13859,-0.56929 6.0178,-0.0281 7.22005,0.21692 0.45524,0.0928 1.36969,0.52018 1.7122,0.63104 0.27245,0.0882 0.58161,-0.0708 0.8591,0 0.50794,0.12951 0.67577,0.86939 1.28093,0.86939 0.0434,0 2.11137,0.19977 1.35724,0.19977"
     id="path6727"
     sodipodi:nodetypes="csssssssssssssssssssssscsssssssssssccssssccssssscsc" /></g></svg>
