<?xml version="1.0" encoding="UTF-8" standalone="no"?>
<!-- Created with Inkscape (http://www.inkscape.org/) -->

<svg
   width="199.99998"
   height="200"
   viewBox="0 0 52.916661 52.916665"
   version="1.1"
   id="svg5"
   xml:space="preserve"
   inkscape:version="1.2.2 (b0a8486541, 2022-12-01)"
   sodipodi:docname="spectators.svg"
   xmlns:inkscape="http://www.inkscape.org/namespaces/inkscape"
   xmlns:sodipodi="http://sodipodi.sourceforge.net/DTD/sodipodi-0.dtd"
   xmlns="http://www.w3.org/2000/svg"
   xmlns:svg="http://www.w3.org/2000/svg"><sodipodi:namedview
     id="namedview7"
     pagecolor="#ffffff"
     bordercolor="#666666"
     borderopacity="1.0"
     inkscape:showpageshadow="2"
     inkscape:pageopacity="0.0"
     inkscape:pagecheckerboard="0"
     inkscape:deskcolor="#d1d1d1"
     inkscape:document-units="mm"
     showgrid="false"
     inkscape:zoom="0.90332492"
     inkscape:cx="219.74375"
     inkscape:cy="104.61352"
     inkscape:window-width="1452"
     inkscape:window-height="1237"
     inkscape:window-x="0"
     inkscape:window-y="2"
     inkscape:window-maximized="0"
     inkscape:current-layer="layer1" /><defs
     id="defs2" /><g
     inkscape:label="Layer 1"
     inkscape:groupmode="layer"
     id="layer1"
     transform="translate(-53.946517,-125.87538)"><rect
       style="fill:#ffffff;stroke:#000000;stroke-width:0.697184;stroke-linecap:round;stroke-linejoin:round;stroke-dasharray:none"
       id="rect332"
       width="52.219479"
       height="52.219482"
       x="54.295109"
       y="126.22397" /><path
       style="fill:#000000;stroke-width:0.103086"
       d="m 59.963445,173.75721 c -0.520075,-0.15543 -0.684677,-0.38747 -0.685524,-0.96638 -4.28e-4,-0.28888 0.144954,-2.35759 0.323059,-4.59714 0.290663,-3.6549 0.312068,-4.19995 0.209016,-5.32218 -0.149479,-1.62783 -0.61743,-3.42718 -1.648931,-6.34042 -0.91749,-2.59123 -1.047188,-3.13547 -1.047188,-4.39419 0,-0.81885 0.01615,-0.88138 0.301329,-1.16655 0.217135,-0.21714 0.401166,-0.30133 0.658641,-0.30133 0.575622,0 0.726467,0.23064 1.044998,1.59783 1.123292,4.82138 2.543846,6.72745 4.742322,6.36315 1.402081,-0.23233 2.299636,-0.94652 3.713446,-2.95481 0.880493,-1.25072 0.924388,-1.29499 1.281811,-1.2928 0.478256,0.003 1.196489,0.33051 1.348857,0.6152 0.252709,0.47219 0.02532,0.96193 -1.65877,3.57295 -0.991231,1.53679 -1.702773,2.75039 -1.795346,3.06211 -0.210913,0.71022 -0.200051,1.03758 0.207457,6.25178 0.423708,5.42149 0.420241,5.30105 0.160067,5.56123 -0.492261,0.49226 -1.640529,0.47461 -2.035865,-0.0313 -0.108226,-0.13849 -0.503215,-1.51608 -0.945127,-3.29628 -0.417558,-1.68209 -0.793132,-3.05835 -0.834607,-3.05835 -0.04147,0 -0.39127,1.2641 -0.777321,2.80911 -0.815526,3.2638 -0.91099,3.54277 -1.275445,3.72706 -0.383953,0.19415 -0.942619,0.26418 -1.286879,0.1613 z m 10.75783,-0.12062 C 70.376938,173.46064 70.19921,173.28 70.031652,172.93566 l -0.225737,-0.46389 0.506994,-9.48394 c 0.411456,-7.69673 0.507414,-10.15547 0.509222,-13.04748 0.0023,-3.77268 -0.03129,-4.09734 -0.525185,-5.06702 -0.107473,-0.21102 -1.8678,-2.96028 -3.911833,-6.10947 -2.044036,-3.14919 -3.7871,-5.89494 -3.873477,-6.10167 -0.533938,-1.27789 1.120373,-2.43402 2.154065,-1.50539 0.112357,0.10094 1.764367,2.17707 3.671133,4.61362 1.906766,2.43654 3.645534,4.60995 3.863938,4.8298 0.2184,0.21984 0.659092,0.52255 0.979319,0.67268 0.508112,0.23823 0.713453,0.27297 1.613091,0.27297 0.91257,0 1.095925,-0.0321 1.597839,-0.27928 0.311833,-0.1536 0.745314,-0.45308 0.963286,-0.6655 0.217968,-0.21242 1.882976,-2.29022 3.700016,-4.61732 1.817037,-2.32711 3.469864,-4.40607 3.672945,-4.61992 0.437864,-0.46109 0.946697,-0.62938 1.467858,-0.48548 0.730957,0.20183 1.136058,1.00757 0.876284,1.74292 -0.07158,0.20263 -1.64576,2.70019 -3.49817,5.55013 -1.852414,2.84994 -3.368026,5.21598 -3.368026,5.25786 0,0.0419 0.820546,0.32961 1.823437,0.63941 1.546747,0.4778 1.957081,0.6498 2.704141,1.13349 l 0.8807,0.57023 0.878113,-0.002 c 1.525781,-0.003 1.573257,-0.0439 5.360064,-4.58266 3.122828,-3.74293 3.302594,-3.92083 3.960736,-3.91966 0.677786,0.001 1.308788,0.86895 1.124148,1.54591 -0.05412,0.19844 -1.492165,2.35552 -3.195648,4.79352 -1.703482,2.43799 -3.218277,4.67283 -3.366207,4.96631 -0.398633,0.79085 -0.505883,1.73808 -0.445536,3.93491 0.02906,1.05756 0.08531,2.0759 0.125029,2.26296 0.07093,0.3341 0.06697,0.33873 -0.22373,0.26132 -0.497347,-0.13243 -1.50382,-0.0797 -2.066731,0.10821 -0.784079,0.26179 -1.304351,0.68368 -1.617128,1.31134 -0.442726,0.88844 -0.309095,1.74085 0.361359,2.305 0.182205,0.15332 1.40161,0.81991 2.709786,1.48132 l 2.378508,1.20256 -0.644291,0.0307 -0.644288,0.0307 7.8e-4,0.48474 c 3.89e-4,0.26661 0.116191,2.43307 0.257221,4.81437 0.30562,5.16044 0.313836,5.72585 0.09007,6.1974 -0.343978,0.72488 -1.133866,0.98335 -1.805613,0.59083 -0.657145,-0.38398 -0.679563,-0.49375 -1.329083,-6.50819 -0.3289,-3.0456 -0.601886,-5.54905 -0.606624,-5.56322 -0.0047,-0.0142 -0.281689,-0.0257 -0.615436,-0.0257 h -0.60681 l -0.06139,0.43811 c -0.03378,0.24097 -0.298214,2.73437 -0.587661,5.5409 -0.335706,3.25509 -0.581107,5.21955 -0.677724,5.42528 -0.331167,0.7052 -1.056667,1.06147 -1.651909,0.81118 -0.422828,-0.17778 -0.827614,-0.69463 -0.905273,-1.15589 -0.05588,-0.33187 0.322234,-7.80437 0.519186,-10.26066 l 0.06406,-0.79892 h -0.560524 c -0.308285,0 -0.584644,-0.0241 -0.614127,-0.0536 -0.05811,-0.0581 0.90964,-5.00514 1.262263,-6.45258 0.196041,-0.80469 0.213153,-1.12856 0.182486,-3.45339 -0.04326,-3.27879 0.05731,-3.05821 -2.096353,-4.59863 -0.850029,-0.608 -1.574503,-1.10668 -1.609939,-1.10818 -0.154737,-0.007 -0.193087,0.8641 -0.190005,4.31401 0.0027,3.01228 0.09327,5.34805 0.503884,12.99373 0.36543,6.8043 0.4721,9.40695 0.395037,9.63857 -0.05806,0.17451 -0.224185,0.44515 -0.369166,0.60143 -0.668436,0.72052 -1.930922,0.48643 -2.397816,-0.44462 -0.128614,-0.25646 -0.424941,-2.37159 -1.067912,-7.62254 -0.89963,-7.34696 -1.009542,-8.1176 -1.117423,-7.83456 -0.03242,0.0851 -0.39012,2.91476 -0.794897,6.28827 -1.102323,9.18694 -1.079409,9.03211 -1.398455,9.4504 -0.461799,0.60545 -1.133509,0.76437 -1.797265,0.4252 z m 23.137197,0.11672 c -0.173216,-0.0503 -0.423599,-0.20719 -0.556413,-0.34856 l -0.241473,-0.25704 0.423101,-5.45255 c 0.441211,-5.68597 0.44153,-5.73105 0.04678,-6.64987 -0.163355,-0.38022 -0.289748,-0.45602 -3.126238,-1.87492 -1.625801,-0.81328 -2.984935,-1.55408 -3.020301,-1.64624 -0.196998,-0.51337 0.625255,-1.08228 1.564214,-1.08228 0.594595,0 5.797343,1.40968 6.616936,1.79284 1.470923,0.68769 2.401673,0.56854 3.39357,-0.43439 0.957929,-0.96858 1.577272,-2.37033 2.227112,-5.04061 0.20394,-0.83803 0.39208,-1.59784 0.41809,-1.68846 0.10288,-0.35852 0.99968,-0.52567 1.52824,-0.28485 0.45832,0.20883 0.60485,0.70601 0.55419,1.88045 -0.0444,1.02807 -0.0601,1.08293 -1.08275,3.77502 -2.21411,5.82852 -2.24759,6.08392 -1.68855,12.88579 0.29877,3.63508 0.30298,3.77139 0.1243,4.02037 -0.25865,0.3604 -0.84143,0.53826 -1.372592,0.41891 -0.784421,-0.17625 -0.83529,-0.28515 -1.69089,-3.61999 -0.428357,-1.6696 -0.798094,-3.05497 -0.82163,-3.0786 -0.02353,-0.0236 -0.05908,-0.0236 -0.07899,0 -0.01991,0.0236 -0.373777,1.40113 -0.78637,3.06114 -0.46737,1.88038 -0.824676,3.1129 -0.947811,3.26944 -0.108703,0.13819 -0.369486,0.29898 -0.579526,0.35732 -0.437166,0.12141 -0.475629,0.12129 -0.902997,-0.003 z M 62.825758,157.51909 c -1.508238,-0.55694 -1.992642,-2.6279 -0.887126,-3.7927 1.131225,-1.19189 3.106372,-0.88459 3.793039,0.59013 0.711182,1.52736 -0.26761,3.18742 -1.956108,3.31761 -0.315348,0.0243 -0.697935,-0.022 -0.949805,-0.11504 z m 33.357169,0.0692 c -1.116181,-0.36435 -1.751799,-1.19176 -1.751799,-2.28041 0,-1.32344 0.985913,-2.30666 2.319441,-2.31312 2.379212,-0.0115 3.197682,3.19836 1.109985,4.35315 -0.466415,0.25799 -1.270651,0.37323 -1.677627,0.24038 z M 85.139359,144.40273 c -0.926355,-0.48124 -1.51601,-1.58822 -1.394473,-2.61786 0.218778,-1.85346 2.335017,-2.93403 3.923263,-2.00326 0.875506,0.51308 1.317258,1.27589 1.320204,2.27969 0.0023,0.8292 -0.247096,1.40106 -0.846507,1.93998 -0.849666,0.76393 -2.00692,0.91866 -3.002487,0.40145 z m -11.304371,-3.92254 c -1.977308,-0.70406 -2.611789,-3.11926 -1.218245,-4.63734 1.171401,-1.27608 3.078388,-1.27608 4.249789,0 1.271424,1.38504 0.858064,3.64551 -0.815275,4.45833 -0.744571,0.36168 -1.526015,0.42479 -2.216269,0.17901 z"
       id="path179" /></g></svg>
