<?xml version="1.0" encoding="UTF-8" standalone="no"?>
<!-- Generator: Adobe Illustrator 19.0.0, SVG Export Plug-In . SVG Version: 6.00 Build 0)  -->

<svg
   version="1.1"
   id="Layer_1"
   x="0px"
   y="0px"
   viewBox="0 0 250 250"
   style="enable-background:new 0 0 250 250;"
   xml:space="preserve"
   inkscape:version="1.2.2 (b0a8486541, 2022-12-01)"
   sodipodi:docname="step-down.svg"
   xmlns:inkscape="http://www.inkscape.org/namespaces/inkscape"
   xmlns:sodipodi="http://sodipodi.sourceforge.net/DTD/sodipodi-0.dtd"
   xmlns="http://www.w3.org/2000/svg"
   xmlns:svg="http://www.w3.org/2000/svg"
   xmlns:rdf="http://www.w3.org/1999/02/22-rdf-syntax-ns#"
   xmlns:cc="http://creativecommons.org/ns#"
   xmlns:dc="http://purl.org/dc/elements/1.1/"><metadata
     id="metadata4470"><rdf:RDF><cc:Work
         rdf:about=""><dc:format>image/svg+xml</dc:format><dc:type
           rdf:resource="http://purl.org/dc/dcmitype/StillImage" /></cc:Work></rdf:RDF></metadata><defs
     id="defs4468" /><sodipodi:namedview
     pagecolor="#ffffff"
     bordercolor="#666666"
     borderopacity="1"
     objecttolerance="10"
     gridtolerance="10"
     guidetolerance="10"
     inkscape:pageopacity="0"
     inkscape:pageshadow="2"
     inkscape:window-width="2510"
     inkscape:window-height="1363"
     id="namedview4466"
     showgrid="false"
     inkscape:zoom="0.944"
     inkscape:cx="-33.898305"
     inkscape:cy="126.58898"
     inkscape:window-x="0"
     inkscape:window-y="0"
     inkscape:window-maximized="1"
     inkscape:current-layer="Layer_1"
     inkscape:showpageshadow="2"
     inkscape:pagecheckerboard="0"
     inkscape:deskcolor="#d1d1d1" /><g
     id="XMLID_19_"
     transform="matrix(2.448088,0,0,2.4523234,-4.2307656,-194.66345)"><g
       id="XMLID_21_"><g
         id="XMLID_23_"><path
           id="XMLID_11_"
           d="m 75.8,125.7 c -0.4,0 -0.7,-0.1 -1,-0.4 l -9.2,-9.2 c -0.5,-0.5 -0.5,-1.4 0,-2 0.5,-0.5 1.4,-0.5 2,0 l 9.2,9.2 c 0.5,0.5 0.5,1.4 0,2 -0.3,0.3 -0.7,0.4 -1,0.4 z"
           inkscape:connector-curvature="0" /><g
           id="XMLID_24_"><polygon
             id="XMLID_10_"
             points="62.4,134.6 86,110.9 86,134.6 " /></g></g><rect
         id="XMLID_7_"
         x="46"
         y="108.2"
         transform="matrix(0.7072,0.707,-0.707,0.7072,97.9159,-12.1125)"
         width="35.200001"
         height="7.9000001" /></g><path
       id="XMLID_2_"
       d="m 40.3,112.1 c -0.4,0 -0.7,-0.1 -1,-0.4 -0.5,-0.5 -0.5,-1.4 0,-2 L 62.1,87 c 0.5,-0.5 1.4,-0.5 2,0 0.5,0.5 0.5,1.4 0,2 l -22.7,22.7 c -0.4,0.3 -0.7,0.4 -1.1,0.4 z"
       inkscape:connector-curvature="0" /></g><path
     id="XMLID_1_"
     d="m 209.73212,210.95085 -96.94428,0 0,-73.56971 -74.911492,0 c -7.344264,0 -13.464484,-6.1308 -13.464484,-13.48777 0,-7.35698 6.12022,-13.48778 13.464484,-13.48778 l 101.840452,0 0,73.5697 70.01532,0 c 7.34427,0 13.46449,6.13081 13.46449,13.48778 0,7.35697 -6.12022,13.48778 -13.46449,13.48778 z"
     inkscape:connector-curvature="0"
     style="stroke-width:3;stroke-dasharray:none;fill:#ff0000;stroke:#000000" /></svg>
