<svg width="655" height="655" viewBox="0 0 655 655" fill="none" xmlns="http://www.w3.org/2000/svg">
<g clip-path="url(#clip0_1_21)">
<path d="M617.51 327.489C617.51 487.652 487.673 617.489 327.51 617.489C167.347 617.489 37.5096 487.652 37.5096 327.489C37.5096 167.326 167.347 37.4894 327.51 37.4894C487.673 37.4894 617.51 167.326 617.51 327.489Z" fill="#0C479D" stroke="#0C479D" stroke-width="75"/>
<path fill-rule="evenodd" clip-rule="evenodd" d="M260.962 175.355C259.608 175.285 258.255 175.239 256.86 175.239C215.338 175.239 180.665 209.917 180.665 251.445L179.62 259.998L160 536H269.902L257.286 327.617C256.438 308.033 255.584 287.789 256.322 274.281C257.019 260.463 256.438 252.996 274.315 246.415L332.557 242.932L386.076 239.718V302.381L543 210.691L386.076 119V181.664" fill="white"/>
</g>
<defs>
<clipPath id="clip0_1_21">
<rect width="655" height="655" fill="white"/>
</clipPath>
</defs>
</svg>
