<svg width="655" height="655" viewBox="0 0 655 655" fill="none" xmlns="http://www.w3.org/2000/svg">
<g clip-path="url(#clip0_1_21)">
<path d="M617.51 327.489C617.51 487.652 487.673 617.489 327.51 617.489C167.347 617.489 37.5096 487.652 37.5096 327.489C37.5096 167.326 167.347 37.4894 327.51 37.4894C487.673 37.4894 617.51 167.326 617.51 327.489Z" fill="#0C479D" stroke="#0C479D" stroke-width="75"/>
<path fill-rule="evenodd" clip-rule="evenodd" d="M286.188 204.045C287.413 203.989 288.641 203.961 289.93 203.961C303.687 203.961 316.6 208.162 327.478 215.319C338.35 208.147 351.31 203.952 365.08 203.952C366.347 203.952 367.577 203.98 368.809 204.05L455.662 209.766V153.006L598 236.059L455.662 319.103V265.539L433.741 265.262L377.719 268.416C361.472 274.377 362.032 281.144 361.402 293.657C360.783 304.965 361.379 321.475 362.092 337.92L383.207 602L271.788 601.995L292.87 338.259C293.574 321.69 294.222 305.055 293.588 293.642C292.954 281.13 293.588 274.381 277.296 268.416L221.26 265.227L199.328 265.544V319.088L57 236.034L199.328 153V209.721" fill="white"/>
</g>
<defs>
<clipPath id="clip0_1_21">
<rect width="655" height="655" fill="white"/>
</clipPath>
</defs>
</svg>
