<svg width="655" height="655" viewBox="0 0 655 655" fill="none" xmlns="http://www.w3.org/2000/svg">
<g clip-path="url(#clip0_1_21)">
<path d="M617.51 327.489C617.51 487.652 487.673 617.489 327.51 617.489C167.347 617.489 37.5096 487.652 37.5096 327.489C37.5096 167.326 167.347 37.4894 327.51 37.4894C487.673 37.4894 617.51 167.326 617.51 327.489Z" fill="#0C479D" stroke="#0C479D" stroke-width="75"/>
<path fill-rule="evenodd" clip-rule="evenodd" d="M394.038 175.355C395.392 175.285 396.745 175.239 398.14 175.239C439.662 175.239 474.335 209.917 474.335 251.445L475.38 259.998L495 536H385.098L397.714 327.617C398.562 308.033 399.416 287.789 398.678 274.281C397.981 260.463 398.562 252.996 380.685 246.415L322.443 242.932L268.924 239.718V302.381L112 210.691L268.924 119V181.664" fill="white"/>
</g>
<defs>
<clipPath id="clip0_1_21">
<rect width="655" height="655" fill="white"/>
</clipPath>
</defs>
</svg>
