<?xml version="1.0" encoding="UTF-8" standalone="no"?>
<!-- Generator: Adobe Illustrator 19.0.0, SVG Export Plug-In . SVG Version: 6.00 Build 0)  -->

<svg
   version="1.1"
   id="Layer_1"
   x="0px"
   y="0px"
   viewBox="0 0 250 250"
   style="enable-background:new 0 0 250 250;"
   xml:space="preserve"
   sodipodi:docname="vegetation-1.svg"
   inkscape:version="1.2.2 (b0a8486541, 2022-12-01)"
   xmlns:inkscape="http://www.inkscape.org/namespaces/inkscape"
   xmlns:sodipodi="http://sodipodi.sourceforge.net/DTD/sodipodi-0.dtd"
   xmlns="http://www.w3.org/2000/svg"
   xmlns:svg="http://www.w3.org/2000/svg"><defs
   id="defs13" /><sodipodi:namedview
   id="namedview11"
   pagecolor="#ffffff"
   bordercolor="#000000"
   borderopacity="0.25"
   inkscape:showpageshadow="2"
   inkscape:pageopacity="0.0"
   inkscape:pagecheckerboard="0"
   inkscape:deskcolor="#d1d1d1"
   showgrid="false"
   inkscape:zoom="2.278"
   inkscape:cx="102.06321"
   inkscape:cy="98.551361"
   inkscape:window-width="2510"
   inkscape:window-height="1363"
   inkscape:window-x="0"
   inkscape:window-y="0"
   inkscape:window-maximized="1"
   inkscape:current-layer="Layer_1" />

<path
   style="fill:#000000;stroke-width:0.45919"
   d="m 24.975885,233.20907 c -0.35535,-0.42818 -0.0627,-1.83452 1.07495,-5.16589 1.96359,-5.74989 2.97019,-11.90557 2.97256,-18.17829 0.004,-10.24414 -2.53534,-19.25118 -9.04431,-32.08175 -4.95297,-9.76336 -4.95316,-9.81313 -0.0339,-9.0702 6.01718,0.90876 12.65176,4.31393 18.19994,9.34106 5.25533,4.76177 11.56755,13.84443 14.97287,21.54447 0.81178,1.83557 1.35975,2.51484 2.02873,2.51484 0.5041,0 1.03623,-0.19365 1.18251,-0.43033 0.14628,-0.23668 0.86823,-3.28455 1.60435,-6.77305 4.56434,-21.63077 4.47474,-40.49335 -0.2365,-49.79055 -2.4865,-4.90688 -1.19257,-5.45524 4.82828,-2.04621 11.07539,6.27095 19.20709,13.84467 24.29347,22.62653 1.05324,1.81847 2.12755,3.43768 2.38736,3.59825 0.9023,0.55765 1.72451,-0.7626 2.67986,-4.30319 1.57299,-5.82955 2.3386,-12.2679 2.34147,-19.69041 0.006,-14.50983 -3.06153,-27.42133 -9.92938,-41.79864 -1.35632,-2.83936 -2.46603,-5.451848 -2.46603,-5.805548 0,-1.04048 1.03451,-1.1559 4.63843,-0.51749 9.13496,1.61819 16.668555,5.897358 24.207635,13.750238 11.11963,11.58246 18.57861,30.53753 21.515,54.67481 0.43014,3.53576 0.97507,6.68695 1.21096,7.00264 0.85593,1.14551 1.70888,0.51799 3.12079,-2.29595 3.76565,-7.505 9.82751,-15.00209 15.75289,-19.48264 3.62857,-2.74379 11.00544,-6.28912 15.65241,-7.52257 4.91788,-1.30537 14.77752,-1.80574 15.17492,-0.77012 0.16659,0.43412 -0.88002,2.25759 -2.73686,4.76833 -8.79744,11.8956 -14.21205,27.15569 -15.26624,43.02505 -0.24099,3.62786 -0.17276,4.60111 0.34557,4.92926 0.35522,0.22488 0.78228,0.41204 0.94903,0.4159 0.16676,0.004 1.71317,-1.69771 3.43648,-3.78128 8.4149,-10.17406 18.02043,-17.16621 26.63522,-19.38858 4.49476,-1.15951 11.5918,-1.4577 12.78896,-0.53734 0.9101,0.69967 0.90673,0.72593 -0.37443,2.91155 -4.32632,7.38055 -7.9804,16.92594 -9.0524,23.64717 -0.954,5.9814 -0.32059,6.21892 5.36768,2.01279 7.81582,-5.7793 14.8982,-8.51285 22.99308,-8.87451 6.55089,-0.29267 6.66189,-0.1184 3.22076,5.05658 -6.65467,10.00769 -9.56726,18.99818 -9.70462,29.95597 -0.0411,3.28321 -0.23686,6.22777 -0.43488,6.54346 -0.53717,0.85636 -195.585785,0.84209 -196.296585,-0.0144 z M 173.86506,176.59239 c 1.26229,-6.95565 6.76312,-18.94313 11.67333,-25.43865 3.22133,-4.26136 4.20877,-6.17969 4.19324,-8.14638 -0.0176,-2.23346 -1.62483,-5.03403 -3.663,-6.38282 -1.67871,-1.11092 -2.3463,-1.26294 -5.54633,-1.26294 -2.00084,0 -3.6379,-0.13917 -3.6379,-0.30928 0,-0.5904 5.84322,-10.03437 8.53929,-13.8014 5.57042,-7.7832 13.81549,-14.98417 19.93974,-17.41471 3.87584,-1.53821 8.75319,-1.70817 12.15927,-0.42372 5.88816,2.22046 11.34714,9.86588 14.22974,19.92908 1.73176,6.04555 3.0234,13.66188 2.43677,14.36873 -0.83386,1.00474 -1.4629,0.65143 -4.73989,-2.66228 -9.90997,-10.02104 -18.71069,-10.75206 -27.35706,-2.27238 -6.4481,6.32379 -12.19041,17.43363 -17.80049,34.43924 -1.35971,4.12162 -1.55547,4.43581 -3.54815,5.69463 -1.15997,0.73278 -3.25571,2.26639 -4.6572,3.40804 l -2.54817,2.07572 z m -36.92735,-22.86961 c -1.05509,-4.89634 -1.00584,-5.92546 0.67274,-14.05929 5.36713,-26.00739 13.49353,-49.944548 24.32642,-71.656048 8.33821,-16.71161 16.7187,-28.90455 26.0367,-37.88129 4.78944,-4.61403 7.54429,-6.61169 12.15114,-8.81131 3.47691,-1.6601 3.81582,-1.72951 8.44379,-1.72951 4.48671,0 4.99232,0.0946 7.28177,1.3627 8.68612,4.81111 15.0878,18.67699 18.1321,39.27369 1.05382,7.12974 0.45978,7.20589 -5.84166,0.74886 -8.24411,-8.44768 -14.50674,-11.59697 -22.3188,-11.22347 -5.82039,0.27827 -9.80808,2.29617 -15.1903,7.68677 -12.21121,12.23024 -22.77036,37.13424 -31.68658,74.733558 -1.79508,7.56979 -2.08691,8.39509 -3.13774,8.87389 -3.53569,1.61096 -9.47801,6.0943 -13.68151,10.32236 l -4.68169,4.70903 z m -52.304605,-1.7511 c -4.17301,-4.70088 -12.63762,-11.12019 -19.7576,-14.98359 l -3.30567,-1.79369 -2.04312,-4.53851 c -5.22155,-11.59899 -11.12461,-19.31008 -17.23879,-22.51885 -2.17758,-1.14281 -2.96353,-1.29768 -6.60443,-1.3014 -3.93873,-0.004 -4.29244,0.0811 -7.53572,1.81343 -2.22381,1.18782 -4.76151,3.13699 -7.32347,5.62508 -2.15626,2.09408 -4.06075,3.80741 -4.2322,3.80741 -0.17145,0 -0.54283,-0.27846 -0.82529,-0.6188 -0.68698,-0.82777 0.84189,-9.34901 2.75686,-15.36549 5.58561,-17.548938 15.22121,-23.741308 27.72119,-17.815178 15.82784,7.50384 31.49965,32.905138 39.25562,63.626558 0.78286,3.10091 1.36257,5.79576 1.28824,5.98855 -0.0743,0.19279 -1.04436,-0.6737 -2.15562,-1.92552 z m 45.921415,-20.86181 c -0.6003,-1.67383 -2.1774,-5.18057 -3.50465,-7.79273 l -2.4132,-4.74939 0.63377,-5.40899 c 3.99493,-34.095428 2.94108,-63.755858 -3.23497,-91.047888 -1.09035,-4.81827 -1.006,-5.96947 0.43738,-5.96947 0.86327,0 5.49515,5.59596 8.82068,10.6566 7.52097,11.44511 14.16018,29.81708 17.38935,48.11971 l 0.76965,4.3623 -2.57808,6.49798 c -5.12828,12.92565 -10.45637,29.878778 -13.43568,42.750138 -0.71611,3.09379 -1.41245,5.62508 -1.54741,5.62508 -0.13496,0 -0.73654,-1.3695 -1.33684,-3.04334 z m -12.68998,-22.04673 c -0.48106,-0.72234 -1.74543,-4.10293 -2.80973,-7.51242 -6.69682,-21.453328 -15.216415,-35.806858 -23.849675,-40.181148 -2.38239,-1.20711 -3.19272,-1.37553 -6.61791,-1.37553 -3.54304,0 -4.1983,0.14804 -7.10276,1.60469 -2.1802,1.09341 -4.54129,2.88731 -7.41055,5.63034 -6.08549,5.81776 -6.54514,5.364 -4.54965,-4.4914 2.71731,-13.42036 7.85266,-22.55298 14.56892,-25.90914 5.35835,-2.6776 12.29038,-1.62445 19.09842,2.90153 6.220515,4.13538 13.332115,12.20404 19.146085,21.72271 l 2.75513,4.51074 -0.0606,11.25015 c -0.0569,10.57876 -1.26719,30.389598 -1.97308,32.297788 -0.28991,0.7837 -0.40224,0.74154 -1.19464,-0.44831 z"
   id="path11747" /></svg>
