<?xml version="1.0" encoding="UTF-8" standalone="no"?>
<!-- Generator: Adobe Illustrator 19.0.0, SVG Export Plug-In . SVG Version: 6.00 Build 0)  -->

<svg
   version="1.1"
   id="Layer_1"
   x="0px"
   y="0px"
   viewBox="0 0 250 250"
   style="enable-background:new 0 0 250 250;"
   xml:space="preserve"
   inkscape:version="1.2.2 (b0a8486541, 2022-12-01)"
   sodipodi:docname="wading_water-cross.svg"
   xmlns:inkscape="http://www.inkscape.org/namespaces/inkscape"
   xmlns:sodipodi="http://sodipodi.sourceforge.net/DTD/sodipodi-0.dtd"
   xmlns="http://www.w3.org/2000/svg"
   xmlns:svg="http://www.w3.org/2000/svg"
   xmlns:rdf="http://www.w3.org/1999/02/22-rdf-syntax-ns#"
   xmlns:cc="http://creativecommons.org/ns#"
   xmlns:dc="http://purl.org/dc/elements/1.1/"><metadata
     id="metadata4155"><rdf:RDF><cc:Work
         rdf:about=""><dc:format>image/svg+xml</dc:format><dc:type
           rdf:resource="http://purl.org/dc/dcmitype/StillImage" /></cc:Work></rdf:RDF></metadata><defs
     id="defs4153" /><sodipodi:namedview
     pagecolor="#ffffff"
     bordercolor="#666666"
     borderopacity="1"
     objecttolerance="10"
     gridtolerance="10"
     guidetolerance="10"
     inkscape:pageopacity="0"
     inkscape:pageshadow="2"
     inkscape:window-width="2510"
     inkscape:window-height="1363"
     id="namedview4151"
     showgrid="false"
     inkscape:zoom="4.556"
     inkscape:cx="124.89025"
     inkscape:cy="125"
     inkscape:window-x="0"
     inkscape:window-y="0"
     inkscape:window-maximized="1"
     inkscape:current-layer="g4139"
     inkscape:showpageshadow="2"
     inkscape:pagecheckerboard="0"
     inkscape:deskcolor="#d1d1d1" /><style
     type="text/css"
     id="style4137">
	.st0{fill:#FFFFFF;}
</style><g
     id="g4139"><path
       style="fill:none;fill-rule:evenodd;stroke:#0066ff;stroke-width:3.84854;stroke-linecap:butt;stroke-linejoin:miter;stroke-miterlimit:4;stroke-dasharray:none;stroke-opacity:1"
       d="M -0.05711717,86.325175 C 19.780135,86.314575 22.226065,80.999971 22.226065,80.999971 h 1.289187 c 0,0 5.398455,5.286314 15.71194,5.286314 10.313469,0 15.742731,-5.316244 15.742731,-5.316244 l 0.414468,-0.0163 c 0,0 3.960232,5.340404 14.703425,5.340404 10.743203,0 14.126504,-5.310474 14.126504,-5.310474 h 0.188004 c 0,0 4.714635,5.251224 14.548352,5.248864 9.001834,-0.002 14.056214,-5.198634 14.056214,-5.198634 l 0.21796,0.006 c 0,0 6.59588,5.207934 14.49146,5.192054 10.17809,-0.0205 15.07525,-5.248384 15.07525,-5.248384 l 0.21486,-0.0163 c 0,0 5.05013,5.341684 12.83813,5.271424 7.54706,-0.0681 12.16667,-5.255104 12.16667,-5.255104 h 0.40286 c 0,0 4.21672,5.287744 12.35469,5.271424 7.74698,-0.0155 11.28037,-5.336704 11.28037,-5.336704 l 0.34915,0.0163 c 0,0 3.81383,5.222454 11.97866,5.222454 8.16484,0 13.16042,-5.157174 13.16042,-5.157174 l 0.24172,2e-5 c 0,0 4.80709,5.333034 10.93122,5.320374 5.39745,-0.0112 9.22165,-5.369334 9.22165,-5.369334 h 0.19261 c 0,0 3.22243,4.985814 11.81699,5.246934"
       id="path4233"
       inkscape:connector-curvature="0"
       sodipodi:nodetypes="cccsccsccsccsccsccsccsccsccc" /><path
       style="fill:none;fill-rule:evenodd;stroke:#0066ff;stroke-width:3.84854;stroke-linecap:butt;stroke-linejoin:miter;stroke-miterlimit:4;stroke-dasharray:none;stroke-opacity:1"
       d="m -0.057408,104.61579 c 19.837252,-0.0106 22.283182,-5.325206 22.283182,-5.325206 h 1.289187 c 0,0 5.398455,5.286316 15.71194,5.286316 10.313469,0 15.742731,-5.316246 15.742731,-5.316246 l 0.414468,-0.0163 c 0,0 3.960232,5.340406 14.703425,5.340406 10.743203,0 14.126504,-5.310476 14.126504,-5.310476 h 0.188004 c 0,0 4.714635,5.251226 14.548352,5.248866 9.001835,-0.002 14.056215,-5.198636 14.056215,-5.198636 l 0.21796,0.006 c 0,0 6.59588,5.207936 14.49146,5.192056 10.17809,-0.0205 15.07525,-5.248386 15.07525,-5.248386 l 0.21486,-0.0163 c 0,0 5.05013,5.341686 12.83813,5.271426 7.54706,-0.0681 12.16667,-5.255106 12.16667,-5.255106 h 0.40286 c 0,0 4.21672,5.287746 12.35469,5.271426 7.74698,-0.0155 11.28037,-5.336706 11.28037,-5.336706 l 0.34915,0.0163 c 0,0 3.81383,5.222456 11.97866,5.222456 8.16484,0 13.16042,-5.157176 13.16042,-5.157176 l 0.24172,2e-5 c 0,0 4.80709,5.333036 10.93122,5.320376 5.39745,-0.0112 9.22165,-5.369336 9.22165,-5.369336 h 0.19261 c 0,0 3.22243,4.985816 11.81699,5.246936"
       id="path2356"
       inkscape:connector-curvature="0"
       sodipodi:nodetypes="cccsccsccsccsccsccsccsccsccc" /><path
       style="fill:none;fill-rule:evenodd;stroke:#0066ff;stroke-width:3.84854;stroke-linecap:butt;stroke-linejoin:miter;stroke-miterlimit:4;stroke-dasharray:none;stroke-opacity:1"
       d="m -0.057408,121.2868 c 19.837252,-0.0106 22.283182,-5.3252 22.283182,-5.3252 h 1.289187 c 0,0 5.398455,5.28631 15.71194,5.28631 10.313469,0 15.742731,-5.31624 15.742731,-5.31624 l 0.414468,-0.0163 c 0,0 3.960232,5.3404 14.703425,5.3404 10.743203,0 14.126504,-5.31047 14.126504,-5.31047 h 0.188004 c 0,0 4.714635,5.25122 14.548352,5.24886 9.001835,-0.002 14.056215,-5.19863 14.056215,-5.19863 l 0.21796,0.006 c 0,0 6.59588,5.20793 14.49146,5.19205 10.17809,-0.0205 15.07525,-5.24838 15.07525,-5.24838 l 0.21486,-0.0163 c 0,0 5.05013,5.34168 12.83813,5.27142 7.54706,-0.0681 12.16667,-5.2551 12.16667,-5.2551 h 0.40286 c 0,0 4.21672,5.28774 12.35469,5.27142 7.74698,-0.0155 11.28037,-5.3367 11.28037,-5.3367 l 0.34915,0.0163 c 0,0 3.81383,5.22245 11.97866,5.22245 8.16484,0 13.16042,-5.15717 13.16042,-5.15717 l 0.24172,2e-5 c 0,0 4.80709,5.33303 10.93122,5.32037 5.39745,-0.0112 9.22165,-5.36933 9.22165,-5.36933 h 0.19261 c 0,0 3.22243,4.98581 11.81699,5.24693"
       id="path2358"
       inkscape:connector-curvature="0"
       sodipodi:nodetypes="cccsccsccsccsccsccsccsccsccc" /><path
       style="fill:none;fill-rule:evenodd;stroke:#0066ff;stroke-width:3.84854;stroke-linecap:butt;stroke-linejoin:miter;stroke-miterlimit:4;stroke-dasharray:none;stroke-opacity:1"
       d="m -0.08648267,138.76761 c 19.83725167,-0.0106 22.28318167,-5.3252 22.28318167,-5.3252 h 1.289187 c 0,0 5.398455,5.28631 15.71194,5.28631 10.313469,0 15.742731,-5.31624 15.742731,-5.31624 l 0.414468,-0.0163 c 0,0 3.960232,5.3404 14.703425,5.3404 10.743203,0 14.126504,-5.31047 14.126504,-5.31047 h 0.188004 c 0,0 4.714635,5.25122 14.548352,5.24886 9.00184,-0.002 14.05622,-5.19863 14.05622,-5.19863 l 0.21796,0.006 c 0,0 6.59588,5.20793 14.49146,5.19205 10.17809,-0.0205 15.07525,-5.24838 15.07525,-5.24838 l 0.21486,-0.0163 c 0,0 5.05013,5.34168 12.83813,5.27142 7.54706,-0.0681 12.16667,-5.2551 12.16667,-5.2551 h 0.40286 c 0,0 4.21672,5.28774 12.35469,5.27142 7.74698,-0.0155 11.28037,-5.3367 11.28037,-5.3367 l 0.34915,0.0163 c 0,0 3.81383,5.22245 11.97866,5.22245 8.16484,0 13.16042,-5.15717 13.16042,-5.15717 l 0.24172,2e-5 c 0,0 4.80709,5.33303 10.93122,5.32037 5.39745,-0.0112 9.22165,-5.36933 9.22165,-5.36933 h 0.19261 c 0,0 3.22243,4.98581 11.81699,5.24693"
       id="path2360"
       inkscape:connector-curvature="0"
       sodipodi:nodetypes="cccsccsccsccsccsccsccsccsccc" /><path
       style="fill:none;fill-rule:evenodd;stroke:#0066ff;stroke-width:3.84854;stroke-linecap:butt;stroke-linejoin:miter;stroke-miterlimit:4;stroke-dasharray:none;stroke-opacity:1"
       d="m -0.08648267,156.24842 c 19.83725167,-0.0106 22.28318167,-5.3252 22.28318167,-5.3252 h 1.289187 c 0,0 5.398455,5.28631 15.71194,5.28631 10.313469,0 15.742731,-5.31624 15.742731,-5.31624 l 0.414468,-0.0163 c 0,0 3.960232,5.3404 14.703425,5.3404 10.743203,0 14.126504,-5.31047 14.126504,-5.31047 h 0.188004 c 0,0 4.714635,5.25122 14.548352,5.24886 9.00184,-0.002 14.05622,-5.19863 14.05622,-5.19863 l 0.21796,0.006 c 0,0 6.59588,5.20793 14.49146,5.19205 10.17809,-0.0205 15.07525,-5.24838 15.07525,-5.24838 l 0.21486,-0.0163 c 0,0 5.05013,5.34168 12.83813,5.27142 7.54706,-0.0681 12.16667,-5.2551 12.16667,-5.2551 h 0.40286 c 0,0 4.21672,5.28774 12.35469,5.27142 7.74698,-0.0155 11.28037,-5.3367 11.28037,-5.3367 l 0.34915,0.0163 c 0,0 3.81383,5.22245 11.97866,5.22245 8.16484,0 13.16042,-5.15717 13.16042,-5.15717 l 0.24172,2e-5 c 0,0 4.80709,5.33303 10.93122,5.32037 5.39745,-0.0112 9.22165,-5.36933 9.22165,-5.36933 h 0.19261 c 0,0 3.22243,4.98581 11.81699,5.24693"
       id="path2362"
       inkscape:connector-curvature="0"
       sodipodi:nodetypes="cccsccsccsccsccsccsccsccsccc" /></g></svg>
