<?xml version="1.0" encoding="UTF-8" standalone="no"?>
<!-- Created with Inkscape (http://www.inkscape.org/) -->

<svg
   width="200mm"
   height="200mm"
   viewBox="0 0 200 200"
   version="1.1"
   id="svg5"
   xml:space="preserve"
   inkscape:version="1.2.2 (b0a8486541, 2022-12-01)"
   sodipodi:docname="TulipLogo.svg"
   xmlns:inkscape="http://www.inkscape.org/namespaces/inkscape"
   xmlns:sodipodi="http://sodipodi.sourceforge.net/DTD/sodipodi-0.dtd"
   xmlns="http://www.w3.org/2000/svg"
   xmlns:svg="http://www.w3.org/2000/svg"><sodipodi:namedview
     id="namedview7"
     pagecolor="#ffffff"
     bordercolor="#666666"
     borderopacity="1.0"
     inkscape:showpageshadow="2"
     inkscape:pageopacity="0.0"
     inkscape:pagecheckerboard="0"
     inkscape:deskcolor="#d1d1d1"
     inkscape:document-units="mm"
     showgrid="false"
     showguides="true"
     inkscape:zoom="0.45166246"
     inkscape:cx="56.458091"
     inkscape:cy="96.31086"
     inkscape:window-width="1870"
     inkscape:window-height="1131"
     inkscape:window-x="1490"
     inkscape:window-y="851"
     inkscape:window-maximized="1"
     inkscape:current-layer="layer1"><sodipodi:guide
       position="99.999999,260.47646"
       orientation="-1,0"
       id="guide1331"
       inkscape:locked="false"
       inkscape:label=""
       inkscape:color="rgb(0,134,229)" /></sodipodi:namedview><defs
     id="defs2" /><g
     inkscape:label="Layer 1"
     inkscape:groupmode="layer"
     id="layer1"><circle
       style="fill:#ffcc00;fill-opacity:1;stroke:#000000;stroke-width:8.00525;stroke-linecap:round;stroke-linejoin:round;stroke-dasharray:none"
       id="path293"
       cx="100"
       cy="100"
       r="95.997375" /><path
       style="fill:#000000;stroke-width:0.0404381"
       d="m 88.797846,144.01775 6.03e-4,-40.7111 c 4.07e-4,-22.391099 -0.0059,-40.711089 -0.01371,-40.711089 -0.0081,0 -0.248985,0.03576 -0.535809,0.07941 -0.607052,0.09242 -1.665203,0.202754 -3.311715,0.345179 -4.074275,0.352412 -6.255909,0.757303 -9.074316,1.68414 -1.724672,0.567146 -4.377506,2.12492 -6.352828,3.730442 -1.374804,1.117424 -2.997915,2.733457 -4.329655,4.310782 -2.835781,3.358724 -5.981521,8.079877 -10.285955,15.437259 -0.328555,0.561586 -0.610018,1.021069 -0.625473,1.021069 -0.01545,0 -0.341799,-0.263394 -0.725209,-0.585317 C 52.048,87.362612 50.437413,86.090689 46.884931,83.359833 41.603238,79.299721 39.566855,77.637025 37.473362,75.675337 l -0.353426,-0.331163 0.895669,-1.147692 C 44.035128,66.48323 49.591428,60.592918 55.154527,56.027277 60.82368,51.374603 66.598808,48.03716 72.745118,45.861712 c 0.91279,-0.323071 1.165714,-0.406748 2.102784,-0.695662 2.578165,-0.794885 5.663984,-1.476395 8.330257,-1.839754 0.25577,-0.03484 0.6834,-0.107631 0.95029,-0.161723 1.134943,-0.230049 3.514456,-0.526893 5.364428,-0.669214 2.431248,-0.187044 0.66616,-0.174028 25.499993,-0.188054 l 23.2216,-0.01312 v -0.535091 c 0,-0.294301 -0.0281,-2.700553 -0.0627,-5.347233 -0.0346,-2.646669 -0.0574,-5.026193 -0.0507,-5.287823 l 0.0122,-0.475679 14.15075,10.342588 c 7.78292,5.68843 14.15514,10.360782 14.16048,10.383029 0.006,0.02218 -6.23513,5.692608 -13.86769,12.600829 l -13.8774,12.560389 -0.0263,-0.914205 c -0.0144,-0.502825 -0.0559,-3.589193 -0.0922,-6.858623 -0.0362,-3.269415 -0.0763,-6.149116 -0.0889,-6.399333 l -0.0231,-0.45492 H 124.7039 110.95892 v 41.165017 41.16501 z"
       id="path239"
       sodipodi:nodetypes="ccscssssssssscssssccsscssccscscscccccccc" /><circle
       style="fill:#000000;fill-opacity:1;stroke:#000000;stroke-width:8.00525;stroke-linecap:round;stroke-linejoin:round;stroke-dasharray:none"
       id="path1329"
       cx="100"
       cy="155.2562"
       r="14.282912" /></g></svg>
